<svg xmlns="http://www.w3.org/2000/svg" viewBox="0 0 215.38 30"><defs><style>.cls-1{fill:#9b26b5;}.cls-2{isolation:isolate;}.cls-3{fill:#fff;}</style></defs><title>arhcoder</title><g id="Capa_2" data-name="Capa 2"><g id="Capa_1-2" data-name="Capa 1"><path class="cls-1" d="M23.73,29.51l-2.62-6.34H9L6.41,29.51H0L12.25,1h5.8L30.3,29.51Zm-8.66-21-3.8,9.18h7.6Z"/><path class="cls-1" d="M51.33,29.51l-6.13-9H40.26v9.05H34V1.21H47c3.41,0,6.05.83,8,2.47a8.61,8.61,0,0,1,2.83,6.87v.08a8.81,8.81,0,0,1-1.69,5.6,9.83,9.83,0,0,1-4.43,3.18l7,10.1Zm.12-18.63a3.61,3.61,0,0,0-1.3-3,5.88,5.88,0,0,0-3.64-1H40.26V15h6.37a5.25,5.25,0,0,0,3.58-1.09A3.68,3.68,0,0,0,51.45,11Z"/><path class="cls-1" d="M81.39,29.51V18.15H69.79V29.51H63.5V1.21h6.29v11.2h11.6V1.21h6.28v28.3Z"/><g class="cls-2"><path class="cls-3" d="M103.58,29.29a9.32,9.32,0,0,1-3.16-2,9,9,0,0,1-2.06-3.07,10.54,10.54,0,0,1-.74-4,12.32,12.32,0,0,1,1-5,13.24,13.24,0,0,1,2.74-4,12.93,12.93,0,0,1,4-2.73,12,12,0,0,1,4.86-1,12.22,12.22,0,0,1,3.16.38,9.52,9.52,0,0,1,2.46,1,8,8,0,0,1,1.84,1.51,11.13,11.13,0,0,1,1.35,1.82l-4.65,3.32a7.93,7.93,0,0,0-1.82-2.05,4.54,4.54,0,0,0-2.82-.79,4.84,4.84,0,0,0-2.32.61,6.56,6.56,0,0,0-2,1.65,8.43,8.43,0,0,0-1.36,2.41,8,8,0,0,0-.52,2.88,4.61,4.61,0,0,0,1.2,3.35,4,4,0,0,0,3,1.23,5.75,5.75,0,0,0,2.52-.54,10.89,10.89,0,0,0,2.32-1.6l3.12,4a14.9,14.9,0,0,1-3.56,2.45,10.45,10.45,0,0,1-4.6.91A11.26,11.26,0,0,1,103.58,29.29Z"/><path class="cls-3" d="M126.06,29.25a9.36,9.36,0,0,1-3.24-2.08A9.05,9.05,0,0,1,120.76,24a11,11,0,0,1-.72-4,11.93,11.93,0,0,1,1-4.69,13,13,0,0,1,6.58-6.79,11.41,11.41,0,0,1,4.86-1,11.66,11.66,0,0,1,4.31.75A9.55,9.55,0,0,1,140,10.27a9.2,9.2,0,0,1,2.06,3.17,11,11,0,0,1,.72,4,11.78,11.78,0,0,1-1,4.69,13.17,13.17,0,0,1-6.6,6.79A11.35,11.35,0,0,1,130.36,30,11.65,11.65,0,0,1,126.06,29.25Zm7.12-5.16a7,7,0,0,0,1.95-1.73,8.37,8.37,0,0,0,1.24-2.3,7.46,7.46,0,0,0,.44-2.44,5,5,0,0,0-1.28-3.68,4.55,4.55,0,0,0-3.37-1.29,4.83,4.83,0,0,0-2.54.7,7,7,0,0,0-1.94,1.73,8,8,0,0,0-1.24,2.32,7.53,7.53,0,0,0-.44,2.42,5,5,0,0,0,1.28,3.68,4.52,4.52,0,0,0,3.36,1.28A4.79,4.79,0,0,0,133.18,24.09Z"/><path class="cls-3" d="M151,29.29a7.45,7.45,0,0,1-2.62-1.82,8.29,8.29,0,0,1-1.75-2.93,11.68,11.68,0,0,1-.62-3.92,13.93,13.93,0,0,1,1-5.3,13.6,13.6,0,0,1,2.67-4.18,12,12,0,0,1,3.78-2.73,10.4,10.4,0,0,1,4.4-1,7.7,7.7,0,0,1,4.1,1,8.26,8.26,0,0,1,2.63,2.6l2.88-11h6.08l-7.8,29.51H159.7l.64-2.36a12.67,12.67,0,0,1-2.82,2,7,7,0,0,1-3.22.73A8.31,8.31,0,0,1,151,29.29Zm8.2-5.17a6.59,6.59,0,0,0,2.08-1.61,7.94,7.94,0,0,0,1.44-2.39,7.77,7.77,0,0,0,.54-2.89A4.42,4.42,0,0,0,162,13.92a4.53,4.53,0,0,0-3.32-1.27,5.25,5.25,0,0,0-2.38.57,6.35,6.35,0,0,0-2,1.58,8.34,8.34,0,0,0-1.42,2.41,8.2,8.2,0,0,0-.54,3,4.39,4.39,0,0,0,1.22,3.31,4.47,4.47,0,0,0,3.26,1.18A5.38,5.38,0,0,0,159.24,24.12Z"/><path class="cls-3" d="M180.6,23.91a4.86,4.86,0,0,0,3.56,1.16,6.79,6.79,0,0,0,2.32-.41,10.49,10.49,0,0,0,2.44-1.33l2.8,3.8a12.8,12.8,0,0,1-3.46,2,12.61,12.61,0,0,1-4.78.83,12,12,0,0,1-4.16-.67,8.74,8.74,0,0,1-3.13-1.9,8.23,8.23,0,0,1-2-3,11.33,11.33,0,0,1-.68-4,12.82,12.82,0,0,1,.9-4.67A13.24,13.24,0,0,1,177,11.54a13.47,13.47,0,0,1,4-3,11.89,11.89,0,0,1,5.22-1.13,10.07,10.07,0,0,1,3.72.65,7.69,7.69,0,0,1,2.76,1.78,7.51,7.51,0,0,1,1.71,2.66,9.64,9.64,0,0,1,.58,3.36,11.62,11.62,0,0,1-.28,2.43,16.1,16.1,0,0,1-.8,2.5H179.28A4.64,4.64,0,0,0,180.6,23.91ZM189.12,17a4.81,4.81,0,0,0,.2-1.41,3.3,3.3,0,0,0-.82-2.27,3.45,3.45,0,0,0-2.7-.93,5.65,5.65,0,0,0-3.66,1.28A7.38,7.38,0,0,0,179.8,17Z"/><path class="cls-3" d="M202.29,7.84h6.08l-1.16,4.37a13.11,13.11,0,0,1,3.59-3.7,7.08,7.08,0,0,1,4.58-1.07l-1.72,6.43h-.32a8,8,0,0,0-5.29,1.86,11.55,11.55,0,0,0-3.36,6.1l-2,7.68h-6.08Z"/></g></g></g></svg>