<svg xmlns="http://www.w3.org/2000/svg" viewBox="0 0 40 40"><defs><style>.cls-1{fill:#fff;}</style></defs><title>ball_instagram</title><g id="Capa_2" data-name="Capa 2"><g id="Capa_1-2" data-name="Capa 1"><path class="cls-1" d="M20,0A20,20,0,1,0,40,20,20,20,0,0,0,20,0ZM32.5,26.25a6.25,6.25,0,0,1-6.25,6.25H13.75A6.25,6.25,0,0,1,7.5,26.25V13.75A6.25,6.25,0,0,1,13.75,7.5h12.5a6.25,6.25,0,0,1,6.25,6.25Z"/><path class="cls-1" d="M25.86,11H14.14A3.11,3.11,0,0,0,11,14.14V25.86A3.11,3.11,0,0,0,14.14,29H25.86A3.11,3.11,0,0,0,29,25.86V14.14A3.11,3.11,0,0,0,25.86,11ZM20,26.48A6.48,6.48,0,1,1,26.48,20,6.48,6.48,0,0,1,20,26.48Zm6-10.93A1.57,1.57,0,1,1,27.58,14,1.56,1.56,0,0,1,26,15.55Z"/><circle class="cls-1" cx="20" cy="20" r="3.13"/></g></g></svg>