<svg xmlns="http://www.w3.org/2000/svg" viewBox="0 0 40 40"><defs><style>.cls-1{fill:#fff;}.cls-2{fill:none;}</style></defs><title>ball_up</title><g id="Capa_2" data-name="Capa 2"><g id="Capa_1-2" data-name="Capa 1"><path class="cls-1" d="M20,0A20,20,0,1,0,40,20,20,20,0,0,0,20,0ZM31.5,21.93a4,4,0,0,1-5.57,0l-1.57-1.57V30.43a4.35,4.35,0,1,1-8.7,0V20.36L14.1,21.93a4,4,0,0,1-5.58,0,4,4,0,0,1,0-5.59L18.16,6.7a2.63,2.63,0,0,1,3.69,0l9.65,9.64A4,4,0,0,1,31.5,21.93Z"/><path class="cls-2" d="M31.5,21.93a4,4,0,0,1-5.57,0l-1.57-1.57V30.43a4.35,4.35,0,1,1-8.7,0V20.36L14.1,21.93a4,4,0,0,1-5.58,0,4,4,0,0,1,0-5.59L18.16,6.7a2.63,2.63,0,0,1,3.69,0l9.65,9.64A4,4,0,0,1,31.5,21.93Z"/></g></g></svg>