<svg xmlns="http://www.w3.org/2000/svg" viewBox="0 0 40 40"><defs><style>.cls-1{fill:#fff;}</style></defs><title>ball_twitter</title><g id="Capa_2" data-name="Capa 2"><g id="Capa_1-2" data-name="Capa 1"><g id="Capa_2-2" data-name="Capa 2"><g id="Capa_1-2-2" data-name="Capa 1-2"><path class="cls-1" d="M20,0A20,20,0,1,0,40,20,20,20,0,0,0,20,0ZM30.71,14.4v.7A17.21,17.21,0,0,1,4.31,29.66a11.65,11.65,0,0,0,8.87-2.54A6,6,0,0,1,7.62,22.9a5.37,5.37,0,0,0,2.67-.11,5.75,5.75,0,0,1-4.8-6,6.16,6.16,0,0,0,2.61.8c-4.6-4.08-1.7-8-1.7-8a18.24,18.24,0,0,0,12.4,6.27,6.32,6.32,0,0,1-.15-1.37A6,6,0,0,1,29.1,10.38L30,10.1a20.94,20.94,0,0,0,2.94-1.22c-.3,1.77-2.47,3.25-2.63,3.35h0a14,14,0,0,0,3.42-.89A14.06,14.06,0,0,1,30.71,14.4Z"/></g></g></g></g></svg>