<svg xmlns="http://www.w3.org/2000/svg" viewBox="0 0 40 40"><defs><style>.cls-1,.cls-2{fill:#fff;}.cls-2{opacity:0;}</style></defs><title>ball_github</title><g id="Capa_2" data-name="Capa 2"><g id="Capa_1-2" data-name="Capa 1"><path class="cls-1" d="M40,20A20,20,0,0,1,27.67,38.48l-.34.13c-.39.16-.79.3-1.19.43-1,.18-1.32-.42-1.32-.92v-5.6A4.56,4.56,0,0,0,23.5,29c4.35-.48,8.92-2.1,8.92-9.49a7.39,7.39,0,0,0-2-5.15,7,7,0,0,0-.2-5.09s-1.64-.52-5.35,2a18.76,18.76,0,0,0-9.79,0c-3.74-2.49-5.38-2-5.38-2a6.74,6.74,0,0,0-.17,5.09,7.35,7.35,0,0,0-2,5.15c0,7.37,4.56,9,8.91,9.5a4.12,4.12,0,0,0-1.24,2.58A4.22,4.22,0,0,1,9.49,30a4.08,4.08,0,0,0-3-2s-1.91,0-.14,1.16a5.17,5.17,0,0,1,2.17,2.81s1.15,3.74,6.59,2.58c0,1.61.05,3.16.05,3.62a.94.94,0,0,1-1.17.94,19.59,19.59,0,0,1-2.89-1.16l-.1-.05A20,20,0,1,1,40,20Z"/><line class="cls-2" y1="40" x2="40" y2="40"/></g></g></svg>