<svg xmlns="http://www.w3.org/2000/svg" viewBox="0 0 40 40"><defs><style>.cls-1{fill:#fff;}</style></defs><title>ball_youtube</title><g id="Capa_2" data-name="Capa 2"><g id="Capa_1-2" data-name="Capa 1"><g id="Capa_2-2" data-name="Capa 2"><g id="Capa_1-2-2" data-name="Capa 1-2"><path class="cls-1" d="M20,0A20,20,0,1,0,40,20,20,20,0,0,0,20,0ZM34.23,27.2a3.73,3.73,0,0,1-2.61,2.62C29.3,30.4,20,30.4,20,30.4s-9.26,0-11.62-.63A3.72,3.72,0,0,1,5.77,27.2,39.91,39.91,0,0,1,5.16,20a39.37,39.37,0,0,1,.61-7.14,3.81,3.81,0,0,1,2.61-2.64C10.7,9.6,20,9.6,20,9.6s9.3,0,11.62.64a3.7,3.7,0,0,1,2.61,2.62,38,38,0,0,1,.61,7.2A39.37,39.37,0,0,1,34.23,27.2Z"/><path class="cls-1" d="M17.43,24l7-4-7-4Z"/></g></g></g></g></svg>