<?xml version="1.0" encoding="utf-8"?>
<!-- Generator: Adobe Illustrator 24.0.1, SVG Export Plug-In . SVG Version: 6.00 Build 0)  -->
<svg version="1.1" id="bold" xmlns="http://www.w3.org/2000/svg" xmlns:xlink="http://www.w3.org/1999/xlink" x="0px" y="0px"
	 viewBox="0 0 512 512" style="enable-background:new 0 0 512 512;" xml:space="preserve">
<style type="text/css">
	.st0{fill:#FFFFFF;}
</style>
<g>
	<path class="st0" d="M448,21.3H64c-35.3,0-64,28.7-64,64v341.3c0,35.3,28.7,64,64,64h384c35.3,0,64-28.7,64-64V85.3
		C512,50,483.3,21.3,448,21.3z M448,448H64c-11.8,0-21.3-9.6-21.3-21.3V128h426.7v298.7C469.3,438.4,459.8,448,448,448z"/>
	<g>
		<path class="st0" d="M405.3,234.6H256c-11.8,0-21.3-9.6-21.3-21.3S244.2,192,256,192h149.3c11.8,0,21.3,9.6,21.3,21.3
			S417.1,234.6,405.3,234.6z"/>
		<path class="st0" d="M405.3,320H256c-11.8,0-21.3-9.6-21.3-21.3s9.6-21.3,21.3-21.3h149.3c11.8,0,21.3,9.6,21.3,21.3
			S417.1,320,405.3,320z"/>
		<path class="st0" d="M405.3,405.3H256c-11.8,0-21.3-9.6-21.3-21.3s9.6-21.3,21.3-21.3h149.3c11.8,0,21.3,9.6,21.3,21.3
			S417.1,405.3,405.3,405.3z"/>
		<path class="st0" d="M170.7,234.6h-64c-11.8,0-21.3-9.6-21.3-21.3s9.6-21.3,21.3-21.3h64c11.8,0,21.3,9.5,21.3,21.3
			S182.4,234.6,170.7,234.6z"/>
		<path class="st0" d="M170.7,320h-64c-11.8,0-21.3-9.6-21.3-21.3s9.6-21.3,21.3-21.3h64c11.8,0,21.3,9.6,21.3,21.3
			S182.4,320,170.7,320z"/>
		<path class="st0" d="M170.7,405.3h-64c-11.8,0-21.3-9.6-21.3-21.3s9.6-21.3,21.3-21.3h64c11.8,0,21.3,9.6,21.3,21.3
			S182.4,405.3,170.7,405.3z"/>
	</g>
</g>
</svg>
