<svg xmlns="http://www.w3.org/2000/svg" xmlns:xlink="http://www.w3.org/1999/xlink" viewBox="0 0 380 360.71"><defs><style>.cls-1{isolation:isolate;}.cls-2{opacity:0.5;fill:url(#radial-gradient);}.cls-19,.cls-2,.cls-44,.cls-46,.cls-48,.cls-51,.cls-60,.cls-63,.cls-64{mix-blend-mode:color-dodge;}.cls-27,.cls-3,.cls-42,.cls-55,.cls-65{opacity:0.2;}.cls-4{opacity:0;}.cls-5{opacity:0.09;}.cls-6{opacity:0.18;}.cls-7{opacity:0.27;}.cls-8{opacity:0.36;}.cls-9{opacity:0.45;}.cls-10{opacity:0.55;}.cls-11{opacity:0.64;}.cls-12{opacity:0.73;}.cls-13{opacity:0.82;}.cls-14{opacity:0.91;}.cls-15{fill:url(#linear-gradient);}.cls-16{fill:url(#linear-gradient-2);}.cls-17{fill:url(#linear-gradient-3);}.cls-18{fill:#fff;}.cls-19{fill:url(#New_Gradient_Swatch_copy);}.cls-20{fill:url(#linear-gradient-4);}.cls-21,.cls-66{opacity:0.3;}.cls-21,.cls-26,.cls-54,.cls-55,.cls-67{mix-blend-mode:screen;}.cls-21{fill:url(#linear-gradient-5);}.cls-22{fill:url(#linear-gradient-6);}.cls-23{fill:url(#New_Gradient_Swatch_copy_26);}.cls-24{fill:#bcbec0;}.cls-24,.cls-27,.cls-65,.cls-66{mix-blend-mode:multiply;}.cls-25{fill:url(#linear-gradient-7);}.cls-26{fill:url(#Radial_Gradient_1);}.cls-27{fill:#231f20;}.cls-28{fill:url(#linear-gradient-8);}.cls-29{fill:#b086cc;}.cls-30{fill:url(#New_Gradient_Swatch_copy_7);}.cls-31{fill:url(#New_Gradient_Swatch_copy_7-2);}.cls-32{fill:url(#New_Gradient_Swatch_copy_7-3);}.cls-33{fill:url(#New_Gradient_Swatch_copy_7-4);}.cls-34{fill:url(#New_Gradient_Swatch_copy_7-5);}.cls-35{fill:url(#linear-gradient-9);}.cls-36{fill:url(#New_Gradient_Swatch_copy_8);}.cls-37{fill:url(#New_Gradient_Swatch_copy_8-2);}.cls-38{fill:url(#New_Gradient_Swatch_copy_8-3);}.cls-39{fill:url(#New_Gradient_Swatch_copy_8-4);}.cls-40{fill:url(#New_Gradient_Swatch_copy_8-5);}.cls-41{fill:url(#linear-gradient-10);}.Graphic-Style-177{fill:url(#linear-gradient-11);}.Graphic-Style-175{fill:url(#New_Gradient_Swatch_copy_7-6);}.cls-43{fill:url(#linear-gradient-12);}.cls-44{fill:url(#radial-gradient-2);}.cls-45{fill:url(#linear-gradient-14);}.cls-46{fill:url(#radial-gradient-3);}.cls-47{fill:url(#linear-gradient-16);}.cls-48{fill:url(#radial-gradient-4);}.cls-49{fill:#70789c;}.cls-50{fill:url(#linear-gradient-17);}.cls-51{fill:url(#radial-gradient-5);}.cls-52{fill:url(#radial-gradient-6);}.cls-53{fill:url(#linear-gradient-18);}.cls-54{fill:url(#radial-gradient-7);}.cls-55{fill:url(#radial-gradient-8);}.cls-56{fill:url(#linear-gradient-19);}.cls-57{fill:url(#linear-gradient-20);}.cls-58{fill:url(#linear-gradient-21);}.cls-59{fill:url(#linear-gradient-22);}.cls-60{fill:url(#radial-gradient-9);}.cls-61{fill:url(#linear-gradient-23);}.cls-62{fill:url(#linear-gradient-24);}.cls-63{fill:url(#radial-gradient-10);}.cls-64{fill:url(#radial-gradient-11);}.cls-65{fill:url(#radial-gradient-12);}.cls-66{fill:url(#radial-gradient-13);}.cls-67{fill:url(#radial-gradient-14);}</style><radialGradient id="radial-gradient" cx="232.19" cy="58.39" r="189.08" gradientTransform="translate(-43.33 124.66) scale(1 0.95)" gradientUnits="userSpaceOnUse"><stop offset="0" stop-color="#fa45c1"/><stop offset="0.21" stop-color="#cb389d"/><stop offset="0.67" stop-color="#571843"/><stop offset="1"/></radialGradient><linearGradient id="linear-gradient" x1="72.87" y1="247.56" x2="341.27" y2="247.56" gradientUnits="userSpaceOnUse"><stop offset="0.06" stop-color="#9f79b8"/><stop offset="0.26" stop-color="#a17bba"/><stop offset="0.36" stop-color="#a783bf"/><stop offset="0.43" stop-color="#b290c9"/><stop offset="0.49" stop-color="#c1a1d5"/><stop offset="0.51" stop-color="#c4a5d7"/><stop offset="0.52" stop-color="#cdb3dd"/><stop offset="0.53" stop-color="#dbc8e7"/><stop offset="0.55" stop-color="#efe7f4"/><stop offset="0.56" stop-color="#fff"/><stop offset="0.57" stop-color="#ece0f3"/><stop offset="0.58" stop-color="#ddc8ea"/><stop offset="0.59" stop-color="#d4b9e5"/><stop offset="0.6" stop-color="#d1b4e3"/><stop offset="0.66" stop-color="#b395d6"/><stop offset="0.72" stop-color="#9c7dcb"/><stop offset="0.77" stop-color="#8e6ec5"/><stop offset="0.81" stop-color="#8969c3"/><stop offset="1" stop-color="#b086cc"/></linearGradient><linearGradient id="linear-gradient-2" x1="67.16" y1="240.53" x2="325.38" y2="240.53" gradientUnits="userSpaceOnUse"><stop offset="0" stop-color="#2f054a"/><stop offset="1" stop-color="#5824b0"/></linearGradient><linearGradient id="linear-gradient-3" x1="70.05" y1="240.53" x2="322.49" y2="240.53" gradientUnits="userSpaceOnUse"><stop offset="0" stop-color="#3d065f"/><stop offset="1" stop-color="#5f27bd"/></linearGradient><radialGradient id="New_Gradient_Swatch_copy" cx="889.7" cy="-992.05" r="36.18" gradientTransform="matrix(1, 0, 0, 0.59, -735.96, 783.51)" gradientUnits="userSpaceOnUse"><stop offset="0" stop-color="#972a74"/><stop offset="0.04" stop-color="#8a266a"/><stop offset="0.19" stop-color="#601b4a"/><stop offset="0.35" stop-color="#3d112f"/><stop offset="0.51" stop-color="#230a1b"/><stop offset="0.67" stop-color="#0f040c"/><stop offset="0.83" stop-color="#040103"/><stop offset="1"/></radialGradient><linearGradient id="linear-gradient-4" x1="-555.83" y1="-235.77" x2="-673.53" y2="-324.74" gradientTransform="matrix(0.87, 0.5, -1.5, 0.29, 323, 616.78)" gradientUnits="userSpaceOnUse"><stop offset="0" stop-color="#3d065f"/><stop offset="1" stop-color="#12054e"/><stop offset="1" stop-color="#10054d"/></linearGradient><linearGradient id="linear-gradient-5" x1="176.83" y1="181.19" x2="242.76" y2="284.67" gradientUnits="userSpaceOnUse"><stop offset="0.06" stop-color="#9f79b8"/><stop offset="0.25" stop-color="#a17bba"/><stop offset="0.35" stop-color="#a883c0"/><stop offset="0.42" stop-color="#b490cc"/><stop offset="0.48" stop-color="#c5a3dc"/><stop offset="0.54" stop-color="#dbbbf0"/><stop offset="0.56" stop-color="#e6c6fa"/><stop offset="0.6" stop-color="#d6b6f1"/><stop offset="0.69" stop-color="#b595dd"/><stop offset="0.77" stop-color="#9d7dcf"/><stop offset="0.85" stop-color="#8e6ec6"/><stop offset="0.92" stop-color="#8969c3"/></linearGradient><linearGradient id="linear-gradient-6" x1="2763.71" y1="-4.07" x2="2495.08" y2="229.27" gradientTransform="matrix(-1, 0, 0, 1, 2844.35, 0)" xlink:href="#linear-gradient-3"/><linearGradient id="New_Gradient_Swatch_copy_26" x1="1298.79" y1="241.09" x2="1170.61" y2="42.38" gradientTransform="translate(-985.58)" gradientUnits="userSpaceOnUse"><stop offset="0.03" stop-color="#7c1dc9"/><stop offset="0.21" stop-color="#6e41d2"/><stop offset="0.62" stop-color="#4c9be8"/><stop offset="1" stop-color="#2af6ff"/></linearGradient><linearGradient id="linear-gradient-7" x1="1348.88" y1="256.62" x2="1216.83" y2="45.62" gradientTransform="translate(-985.58)" gradientUnits="userSpaceOnUse"><stop offset="0.06" stop-color="#9f79b8"/><stop offset="0.26" stop-color="#a17bba"/><stop offset="0.36" stop-color="#a783bf"/><stop offset="0.43" stop-color="#b290c9"/><stop offset="0.49" stop-color="#c1a1d5"/><stop offset="0.51" stop-color="#c4a5d7"/><stop offset="0.52" stop-color="#cdb3dd"/><stop offset="0.53" stop-color="#dbc8e7"/><stop offset="0.55" stop-color="#efe7f4"/><stop offset="0.56" stop-color="#fff"/><stop offset="0.57" stop-color="#ece0f3"/><stop offset="0.58" stop-color="#ddc8ea"/><stop offset="0.59" stop-color="#d4b9e5"/><stop offset="0.6" stop-color="#d1b4e3"/><stop offset="0.61" stop-color="#cfb2e2"/><stop offset="0.76" stop-color="#be9ad6"/><stop offset="0.89" stop-color="#b48bcf"/><stop offset="1" stop-color="#b086cc"/></linearGradient><radialGradient id="Radial_Gradient_1" cx="1311.9" cy="126.74" r="22.5" gradientTransform="translate(-982.9 0.57)" gradientUnits="userSpaceOnUse"><stop offset="0" stop-color="#fff"/><stop offset="1"/></radialGradient><linearGradient id="linear-gradient-8" x1="141.48" y1="303.58" x2="258.68" y2="103.92" gradientUnits="userSpaceOnUse"><stop offset="0.06" stop-color="#e6e7e8"/><stop offset="0.08" stop-color="#ecedee"/><stop offset="0.12" stop-color="#f3f4f5"/><stop offset="0.22" stop-color="#e6e7e8"/><stop offset="0.58" stop-color="#fafafb"/><stop offset="0.69" stop-color="#e6e7e8"/><stop offset="1" stop-color="#e6e7e8"/></linearGradient><linearGradient id="New_Gradient_Swatch_copy_7" x1="247.7" y1="111.49" x2="204.81" y2="90.55" gradientUnits="userSpaceOnUse"><stop offset="0.04" stop-color="#138bbd"/><stop offset="0.23" stop-color="#169ac7"/><stop offset="0.59" stop-color="#1fc3df"/><stop offset="1" stop-color="#2af6ff"/></linearGradient><linearGradient id="New_Gradient_Swatch_copy_7-2" x1="247.5" y1="111.89" x2="204.61" y2="90.94" xlink:href="#New_Gradient_Swatch_copy_7"/><linearGradient id="New_Gradient_Swatch_copy_7-3" x1="247.23" y1="112.44" x2="204.34" y2="91.5" xlink:href="#New_Gradient_Swatch_copy_7"/><linearGradient id="New_Gradient_Swatch_copy_7-4" x1="247.07" y1="112.77" x2="204.18" y2="91.83" xlink:href="#New_Gradient_Swatch_copy_7"/><linearGradient id="New_Gradient_Swatch_copy_7-5" x1="246.18" y1="114.59" x2="203.29" y2="93.64" xlink:href="#New_Gradient_Swatch_copy_7"/><linearGradient id="linear-gradient-9" x1="209.34" y1="130.19" x2="286.16" y2="130.19" gradientUnits="userSpaceOnUse"><stop offset="0.01" stop-color="#9f19ab"/><stop offset="0.43" stop-color="#5f27bd"/><stop offset="0.9" stop-color="#3d065f"/></linearGradient><linearGradient id="New_Gradient_Swatch_copy_8" x1="241.5" y1="163.76" x2="291.37" y2="190.94" gradientUnits="userSpaceOnUse"><stop offset="0.04" stop-color="#ffa98c"/><stop offset="0.32" stop-color="#ffb892"/><stop offset="0.86" stop-color="#fee1a3"/><stop offset="1" stop-color="#feeca8"/></linearGradient><linearGradient id="New_Gradient_Swatch_copy_8-2" x1="241.4" y1="163.95" x2="291.27" y2="191.13" xlink:href="#New_Gradient_Swatch_copy_8"/><linearGradient id="New_Gradient_Swatch_copy_8-3" x1="241.29" y1="164.14" x2="291.17" y2="191.32" xlink:href="#New_Gradient_Swatch_copy_8"/><linearGradient id="New_Gradient_Swatch_copy_8-4" x1="241.19" y1="164.33" x2="291.06" y2="191.51" xlink:href="#New_Gradient_Swatch_copy_8"/><linearGradient id="New_Gradient_Swatch_copy_8-5" x1="241.09" y1="164.52" x2="290.96" y2="191.7" xlink:href="#New_Gradient_Swatch_copy_8"/><linearGradient id="linear-gradient-10" x1="-2335.57" y1="1779.35" x2="-2244.46" y2="1779.35" gradientTransform="matrix(0.87, 0.5, -1, 0.58, 3965.23, 349.25)" xlink:href="#linear-gradient-9"/><linearGradient id="linear-gradient-11" x1="311.43" y1="298.03" x2="412.49" y2="267.77" xlink:href="#New_Gradient_Swatch_copy_7"/><linearGradient id="New_Gradient_Swatch_copy_7-6" x1="356.81" y1="230.24" x2="318.99" y2="302.32" xlink:href="#New_Gradient_Swatch_copy_7"/><linearGradient id="linear-gradient-12" x1="318.84" y1="310.13" x2="340.85" y2="303.54" xlink:href="#New_Gradient_Swatch_copy_7"/><radialGradient id="radial-gradient-2" cx="330.22" cy="303.35" r="22.4" gradientTransform="translate(0.14 0.57)" gradientUnits="userSpaceOnUse"><stop offset="0" stop-color="#fff"/><stop offset="0.07" stop-color="#d8d8d8"/><stop offset="0.16" stop-color="#a6a6a6"/><stop offset="0.26" stop-color="#797979"/><stop offset="0.37" stop-color="#545454"/><stop offset="0.47" stop-color="#353535"/><stop offset="0.59" stop-color="#1e1e1e"/><stop offset="0.7" stop-color="#0d0d0d"/><stop offset="0.84" stop-color="#030303"/><stop offset="1"/></radialGradient><linearGradient id="linear-gradient-14" x1="318.84" y1="305.51" x2="340.85" y2="298.92" xlink:href="#New_Gradient_Swatch_copy_7"/><radialGradient id="radial-gradient-3" cx="330.22" cy="298.71" r="22.4" xlink:href="#radial-gradient-2"/><linearGradient id="linear-gradient-16" x1="318.84" y1="300.78" x2="340.85" y2="294.19" xlink:href="#New_Gradient_Swatch_copy_7"/><radialGradient id="radial-gradient-4" cx="330.22" cy="293.98" r="22.4" xlink:href="#radial-gradient-2"/><linearGradient id="linear-gradient-17" x1="5240.81" y1="209.72" x2="5252.14" y2="227.46" gradientTransform="matrix(-1, 0, 0, 1, 5372.22, 0)" gradientUnits="userSpaceOnUse"><stop offset="0" stop-color="#d6dae6"/><stop offset="0.01" stop-color="#d4d8e6"/><stop offset="0.28" stop-color="#b4b8e3"/><stop offset="0.4" stop-color="#9a9fc8"/><stop offset="0.53" stop-color="#838ab0"/><stop offset="0.65" stop-color="#757da1"/><stop offset="0.76" stop-color="#70789c"/><stop offset="0.85" stop-color="#777ea2"/><stop offset="0.99" stop-color="#898eb3"/><stop offset="1" stop-color="#8b90b5"/></linearGradient><radialGradient id="radial-gradient-5" cx="5228.01" cy="216.79" r="20.33" gradientTransform="matrix(-1, 0, 0, 1, 5358.53, 0.57)" gradientUnits="userSpaceOnUse"><stop offset="0" stop-color="#b4299a"/><stop offset="0.12" stop-color="#8a2076"/><stop offset="0.26" stop-color="#601652"/><stop offset="0.4" stop-color="#3e0e35"/><stop offset="0.55" stop-color="#23081e"/><stop offset="0.69" stop-color="#0f030d"/><stop offset="0.84" stop-color="#040103"/><stop offset="1"/></radialGradient><radialGradient id="radial-gradient-6" cx="3023.46" cy="61.27" r="5.37" gradientTransform="matrix(-0.47, 0.88, 0.88, 0.47, 1589.96, -2435.59)" gradientUnits="userSpaceOnUse"><stop offset="0.1" stop-color="#8493ba"/><stop offset="0.21" stop-color="#606c90"/><stop offset="0.33" stop-color="#444d6e"/><stop offset="0.43" stop-color="#303756"/><stop offset="0.53" stop-color="#232a47"/><stop offset="0.62" stop-color="#1f2542"/><stop offset="0.71" stop-color="#242a49"/><stop offset="0.83" stop-color="#34395b"/><stop offset="0.98" stop-color="#4d5179"/><stop offset="0.98" stop-color="#4d517a"/></radialGradient><linearGradient id="linear-gradient-18" x1="3014.47" y1="46.75" x2="3033.99" y2="46.75" gradientTransform="matrix(-0.47, 0.88, 0.88, 0.47, 1593.92, -2442.45)" gradientUnits="userSpaceOnUse"><stop offset="0" stop-color="#bec5d8"/><stop offset="0.21" stop-color="#ebedf3"/><stop offset="0.24" stop-color="#e2e4ec"/><stop offset="0.5" stop-color="#9097b3"/><stop offset="0.62" stop-color="#70789c"/><stop offset="0.68" stop-color="#767ea3"/><stop offset="0.77" stop-color="#888eb5"/><stop offset="0.82" stop-color="#949ac2"/><stop offset="1" stop-color="#8b90b5"/></linearGradient><radialGradient id="radial-gradient-7" cx="6622.21" cy="177.15" r="12.88" gradientTransform="matrix(-0.15, 0.19, 0.78, 0.62, 1062.72, -1138.22)" xlink:href="#Radial_Gradient_1"/><radialGradient id="radial-gradient-8" cx="1956.63" cy="-488.56" r="12.88" gradientTransform="matrix(-0.04, 0.14, 0.82, 0.25, 679.85, 94.35)" xlink:href="#Radial_Gradient_1"/><linearGradient id="linear-gradient-19" x1="3014.4" y1="31.05" x2="3034.2" y2="31.05" gradientTransform="matrix(-0.47, 0.88, 0.88, 0.47, 1593.92, -2442.45)" gradientUnits="userSpaceOnUse"><stop offset="0" stop-color="#7d62b8"/><stop offset="0.03" stop-color="#8d62bb"/><stop offset="0.18" stop-color="#df63c9"/><stop offset="0.25" stop-color="#ff63ce"/><stop offset="0.25" stop-color="#fd62cd"/><stop offset="0.31" stop-color="#bf4aab"/><stop offset="0.37" stop-color="#89358f"/><stop offset="0.43" stop-color="#5e2477"/><stop offset="0.48" stop-color="#3c1665"/><stop offset="0.53" stop-color="#240d58"/><stop offset="0.58" stop-color="#150750"/><stop offset="0.62" stop-color="#10054d"/><stop offset="0.66" stop-color="#160954"/><stop offset="0.71" stop-color="#251566"/><stop offset="0.78" stop-color="#3f2885"/><stop offset="0.85" stop-color="#6343af"/><stop offset="0.88" stop-color="#7550c4"/><stop offset="0.9" stop-color="#6a42bb"/><stop offset="0.94" stop-color="#582aad"/><stop offset="0.97" stop-color="#4d1ba4"/><stop offset="1" stop-color="#4916a1"/></linearGradient><linearGradient id="linear-gradient-20" x1="1626.61" y1="-1629.45" x2="1663.16" y2="-1626.96" gradientTransform="matrix(0, 1, 1, 0, 1803.15, -1417.7)" xlink:href="#linear-gradient-17"/><linearGradient id="linear-gradient-21" x1="3014.57" y1="-15.77" x2="3034.3" y2="-15.77" gradientTransform="matrix(-0.47, 0.88, 0.88, 0.47, 1593.92, -2442.45)" gradientUnits="userSpaceOnUse"><stop offset="0" stop-color="#bec5d8"/><stop offset="0.12" stop-color="#dfe2ec"/><stop offset="0.25" stop-color="#fff"/><stop offset="0.29" stop-color="#e9eaf0"/><stop offset="0.36" stop-color="#bec1d2"/><stop offset="0.43" stop-color="#9ca1ba"/><stop offset="0.5" stop-color="#848baa"/><stop offset="0.56" stop-color="#757d9f"/><stop offset="0.62" stop-color="#70789c"/><stop offset="0.67" stop-color="#767ea3"/><stop offset="0.75" stop-color="#888fb5"/><stop offset="0.84" stop-color="#a5aad4"/><stop offset="0.88" stop-color="#b4b8e3"/><stop offset="0.89" stop-color="#b2b6e1"/><stop offset="0.93" stop-color="#9da1c9"/><stop offset="0.97" stop-color="#9094ba"/><stop offset="1" stop-color="#8b90b5"/></linearGradient><linearGradient id="linear-gradient-22" x1="1591.74" y1="-1694.35" x2="1628.29" y2="-1691.87" gradientTransform="matrix(0, 1, 1, 0, 1803.15, -1417.7)" xlink:href="#linear-gradient-17"/><radialGradient id="radial-gradient-9" cx="5256.36" cy="191.78" r="7.7" xlink:href="#radial-gradient-5"/><linearGradient id="linear-gradient-23" x1="3015.8" y1="-60.15" x2="3032.67" y2="-60.15" xlink:href="#linear-gradient-19"/><linearGradient id="linear-gradient-24" x1="1583.02" y1="-1705.63" x2="1614.03" y2="-1703.52" gradientTransform="matrix(0, 1, 1, 0, 1803.15, -1417.7)" gradientUnits="userSpaceOnUse"><stop offset="0" stop-color="#ff63ce"/><stop offset="0.03" stop-color="#f760cc"/><stop offset="0.21" stop-color="#c249bf"/><stop offset="0.39" stop-color="#9737b4"/><stop offset="0.56" stop-color="#7529ac"/><stop offset="0.72" stop-color="#5d1ea6"/><stop offset="0.87" stop-color="#4e18a2"/><stop offset="1" stop-color="#4916a1"/></linearGradient><radialGradient id="radial-gradient-10" cx="5268.13" cy="186.81" r="6.62" xlink:href="#radial-gradient-5"/><radialGradient id="radial-gradient-11" cx="5184.69" cy="255.54" r="35.34" xlink:href="#radial-gradient-5"/><radialGradient id="radial-gradient-12" cx="3821.51" cy="-5473.48" r="32.18" gradientTransform="matrix(-0.73, 0.67, 0.26, 0.28, 4432.14, -791.31)" gradientUnits="userSpaceOnUse"><stop offset="0"/><stop offset="1" stop-color="#fff"/></radialGradient><radialGradient id="radial-gradient-13" cx="3821.93" cy="-5466.96" r="15.75" xlink:href="#radial-gradient-12"/><radialGradient id="radial-gradient-14" cx="4949.56" cy="4364.94" r="20.75" gradientTransform="matrix(0, -1.15, -0.15, 0, 792.07, 5896.38)" gradientUnits="userSpaceOnUse"><stop offset="0" stop-color="#fff"/><stop offset="0.13" stop-color="#ff63ce"/><stop offset="1"/></radialGradient></defs><title>blog-banner</title><g class="cls-1"><g id="Capa_2" data-name="Capa 2"><g id="Capa_1-2" data-name="Capa 1"><ellipse class="cls-2" cx="190" cy="180.36" rx="190" ry="180.36"/><g class="cls-3"><path class="cls-4" d="M225.27,330.19a27.39,27.39,0,0,1-13.65-3.29L67,243.42c-5-2.87-7.84-7.42-7.84-12.47,0-5.55,3.44-10.71,9.44-14.17l82.05-47.37a33.59,33.59,0,0,1,16.58-4.22,27.39,27.39,0,0,1,13.65,3.29L325.5,252c5,2.87,7.84,7.42,7.84,12.48,0,5.54-3.44,10.7-9.44,14.16l-82,47.38A33.72,33.72,0,0,1,225.27,330.19Z"/><path class="cls-5" d="M151.05,170a32.85,32.85,0,0,1,16.53-4.09,31.69,31.69,0,0,1,6.77.82,26.86,26.86,0,0,1,6.76,2.67l144,83.15c5,2.87,7.54,7.4,7.24,12.32a14.11,14.11,0,0,1-.87,4c-1.25,3.52-4.82,7.27-8.87,9.61l-80.89,46.7a30.92,30.92,0,0,1-3.51,1.73,34.19,34.19,0,0,1-12.79,2.53A26.69,26.69,0,0,1,212,326.27L67.4,242.8c-5-2.87-7.54-7.42-7.21-12.35a14.56,14.56,0,0,1,.68-3.44c1.16-3.72,4.85-7.71,9.1-10.16Z"/><path class="cls-6" d="M151.41,170.66a32.22,32.22,0,0,1,16.48-4,28.3,28.3,0,0,1,13.41,3.69l143.48,82.84c4.93,2.85,7.25,7.36,6.64,12.16a15.31,15.31,0,0,1-1.07,3.8c-1.22,3.13-5.33,7.11-9,9.22l-79.72,46a38.48,38.48,0,0,1-3.46,1.73,33.88,33.88,0,0,1-12.58,2.58,26.12,26.12,0,0,1-13.28-3.08L67.76,242.17c-5-2.86-7.25-7.4-6.59-12.21a16.73,16.73,0,0,1,.87-3.28c1.16-3.32,5.44-7.56,9.26-9.77Z"/><path class="cls-7" d="M151.77,171.29a31.44,31.44,0,0,1,16.44-3.86,30,30,0,0,1,6.66,1.06,35.85,35.85,0,0,1,6.62,2.83l142.93,82.52c4.91,2.83,7,7.32,6.05,12a18.12,18.12,0,0,1-1.28,3.61c-1.17,2.75-5.83,7-9.07,8.83l-78.56,45.36c-.82.47-2.49,1.34-3.4,1.72A33.17,33.17,0,0,1,225.8,328a25.64,25.64,0,0,1-13.1-3L68.12,241.55c-4.94-2.86-7-7.39-6-12.08a20.93,20.93,0,0,1,1.07-3.12c1.12-2.92,6-7.41,9.41-9.37Z"/><path class="cls-8" d="M152.13,171.91a29.64,29.64,0,0,1,23-2.56,42.22,42.22,0,0,1,6.54,2.91l142.39,82.2c4.88,2.82,6.69,7.29,5.45,11.85a22.4,22.4,0,0,1-1.47,3.43c-1.12,2.36-6.35,6.8-9.19,8.44l-77.39,44.68c-.72.41-2.55,1.38-3.33,1.72A32.77,32.77,0,0,1,226,327.27a25,25,0,0,1-12.91-2.88L68.48,240.92c-4.93-2.85-6.69-7.36-5.34-11.95a26.41,26.41,0,0,1,1.25-3c1.08-2.51,6.6-7.25,9.58-9Z"/><path class="cls-9" d="M152.5,172.54a28.56,28.56,0,0,1,22.89-2.33,52.52,52.52,0,0,1,6.47,3l141.83,81.89c4.87,2.81,6.44,7.24,4.87,11.68a31.53,31.53,0,0,1-1.68,3.25c-1,2-6.86,6.65-9.29,8.05l-76.23,44c-.61.36-2.6,1.42-3.27,1.71a32.31,32.31,0,0,1-11.94,2.75,24.34,24.34,0,0,1-12.72-2.77L68.84,240.29c-4.91-2.84-6.42-7.34-4.72-11.81.36-.95,1-1.81,1.45-2.8,1-2.12,7.18-7.1,9.73-8.57Z"/><path class="cls-10" d="M152.86,173.17a27.7,27.7,0,0,1,22.79-2.1,64.16,64.16,0,0,1,6.4,3.08l141.28,81.57c4.84,2.79,6.18,7.2,4.27,11.52a12.39,12.39,0,0,1-1.88,3.06c-.58,1.78-7.37,6.49-9.39,7.66L241.27,321.3c-.52.3-2.66,1.46-3.22,1.71a31.76,31.76,0,0,1-11.73,2.8,23.69,23.69,0,0,1-12.53-2.67L69.21,239.67C64.3,236.83,63,232.35,65.1,228a13.13,13.13,0,0,1,1.64-2.65c.52-1.88,7.77-6.94,9.89-8.16Z"/><path class="cls-11" d="M153.22,173.79a28.84,28.84,0,0,1,16.24-3.39,29.3,29.3,0,0,1,6.45,1.53c.89.29,5.6,2.74,6.33,3.16L323,256.34c4.82,2.78,5.94,7.17,3.67,11.37a12.64,12.64,0,0,1-2.08,2.87c-.46,1.42-7.87,6.34-9.49,7.28l-73.9,42.66c-.41.24-2.71,1.5-3.15,1.7a31.42,31.42,0,0,1-11.53,2.86,23.11,23.11,0,0,1-12.34-2.57L69.57,239c-4.9-2.83-5.94-7.31-3.48-11.55A12.86,12.86,0,0,1,67.92,225c.41-1.51,8.35-6.79,10-7.77Z"/><path class="cls-12" d="M153.58,174.42a28.23,28.23,0,0,1,16.2-3.27,28.72,28.72,0,0,1,6.39,1.64c.66.23,5.71,2.93,6.26,3.25L322.61,257c4.79,2.77,5.7,7.14,3.08,11.21a13.07,13.07,0,0,1-2.29,2.68c-.35,1.07-8.38,6.19-9.6,6.89l-72.73,42c-.31.18-2.76,1.54-3.09,1.7a30.92,30.92,0,0,1-11.31,2.91,22.67,22.67,0,0,1-12.16-2.46L69.93,238.41c-4.88-2.82-5.71-7.3-2.86-11.41a13,13,0,0,1,2-2.32c.31-1.13,8.93-6.64,10.21-7.37Z"/><path class="cls-13" d="M153.94,175.05a27.55,27.55,0,0,1,16.15-3.16,28.26,28.26,0,0,1,6.33,1.76c.44.16,5.83,3.12,6.19,3.33L322.25,257.6c4.76,2.75,5.48,7.13,2.48,11a13.39,13.39,0,0,1-2.49,2.51c-.23.71-8.89,6-9.7,6.49L241,319c-.2.12-2.8,1.59-3,1.69a30.28,30.28,0,0,1-11.1,3,22,22,0,0,1-12-2.36L70.29,237.79c-4.87-2.82-5.49-7.32-2.23-11.28a14.61,14.61,0,0,1,2.2-2.17c.21-.75,9.52-6.48,10.37-7Z"/><path class="cls-14" d="M154.31,175.67a26.92,26.92,0,0,1,16.1-3,27.73,27.73,0,0,1,6.27,1.87c.22.09,5.94,3.31,6.12,3.41l139.09,80.3c4.74,2.74,5.26,7.13,1.88,10.89a13.9,13.9,0,0,1-2.69,2.32c-.11.35-9.39,5.87-9.8,6.11l-70.4,40.64c-.11.06-2.86,1.64-3,1.69a30.09,30.09,0,0,1-10.89,3c-4.39.28-8.68-.46-11.79-2.26L70.65,237.16c-4.85-2.8-5.27-7.33-1.61-11.14a14.41,14.41,0,0,1,2.4-2c.1-.38,10.1-6.33,10.52-6.57Z"/><path d="M215.6,320,71,236.53c-5.71-3.29-5-9.05,1.6-12.86l82.06-47.37c6.59-3.81,16.56-4.22,22.27-.92l144.58,83.47c5.71,3.3,5,9-1.6,12.86l-82.05,47.37C231.28,322.89,221.31,323.3,215.6,320Z"/></g><path class="cls-15" d="M215.6,319.87,71,236.4c-2.54-1.47-3.81-3.43-3.85-5.48v-7.17c0-2.49,1.89,1.85,5.45-.21l82.06-47.37c6.59-3.81,16.56-4.22,22.27-.93l144.58,83.48c1.91,1.1,3.29-3.57,3.79-2.09.16.5.06,7.05.07,7.56.05,2.56-1.8,5.28-5.46,7.39L237.87,319C231.28,322.76,221.31,323.17,215.6,319.87Z"/><path class="cls-16" d="M215.6,312.84,71,229.37c-5.71-3.3-5-9.05,1.6-12.86l82.06-47.37c6.59-3.81,16.56-4.22,22.27-.93l144.58,83.48c5.71,3.29,5,9.05-1.6,12.86l-82.05,47.37C231.28,315.73,221.31,316.14,215.6,312.84Z"/><path class="cls-17" d="M225.27,312.18a16.82,16.82,0,0,1-8.23-1.84L72.46,226.87c-.9-.52-2.41-1.61-2.41-3.08s1.5-3.33,4-4.78l82.05-47.37a22.92,22.92,0,0,1,11.16-2.76,17,17,0,0,1,8.23,1.83l144.58,83.48c.9.52,2.41,1.61,2.41,3.08s-1.5,3.33-4,4.78l-82.05,47.37A22.92,22.92,0,0,1,225.27,312.18Z"/><path class="cls-18" d="M319.92,263.35l-82.05,47.38c-6.59,3.8-16.56,4.22-22.27.92L71,228.18c-2.36-1.37-3.61-3.16-3.81-5.06-.29,2.33,1,4.6,3.81,6.25L215.6,312.84c5.71,3.3,15.68,2.89,22.27-.92l82.05-47.37c3.86-2.23,5.69-5.12,5.41-7.8C325,259.07,323.21,261.46,319.92,263.35Z"/><ellipse class="cls-19" cx="151.41" cy="199.16" rx="36.09" ry="21.31" transform="translate(-56.55 60.08) rotate(-18.98)"/><path class="cls-20" d="M241.29,282.1,123.88,214.31c-2.35-1.36-2-3.73.66-5.29l44.08-25.45c2.72-1.57,6.82-1.74,9.17-.38L295.2,251c2.35,1.36,2.06,3.73-.66,5.3l-44.08,25.45C247.75,283.28,243.64,283.45,241.29,282.1Z"/><path class="cls-21" d="M171.19,188.52l7.52,4.34a3.83,3.83,0,0,0,3.46,0c1-.55.94-1.44,0-2l-7.53-4.34a3.84,3.84,0,0,0-3.45,0A1.06,1.06,0,0,0,171.19,188.52ZM184.07,196l3.57,2a3.78,3.78,0,0,0,3.45,0,1,1,0,0,0,0-2L187.52,194a3.83,3.83,0,0,0-3.46,0C183.11,194.51,183.12,195.4,184.07,196Zm8.92,5.15,3.57,2a3.78,3.78,0,0,0,3.45,0,1,1,0,0,0,0-2l-3.56-2.06a3.83,3.83,0,0,0-3.46,0C192,199.66,192,200.55,193,201.11Zm8.93,5.15,3.56,2.06a3.81,3.81,0,0,0,3.45,0c1-.55.95-1.44,0-2l-3.56-2.06a3.84,3.84,0,0,0-3.45,0A1.05,1.05,0,0,0,201.92,206.26Zm8.92,5.15,3.56,2.06a3.83,3.83,0,0,0,3.46,0,1.05,1.05,0,0,0,0-2l-3.57-2.06a3.81,3.81,0,0,0-3.45,0A1,1,0,0,0,210.84,211.41Zm8.92,5.15,3.56,2.06a3.83,3.83,0,0,0,3.46,0c.95-.54.94-1.44,0-2l-3.57-2.06a3.81,3.81,0,0,0-3.45,0A1,1,0,0,0,219.76,216.56Zm8.92,5.15,3.57,2.06a3.84,3.84,0,0,0,3.45,0,1.06,1.06,0,0,0,0-2l-3.56-2.06a3.83,3.83,0,0,0-3.46,0A1.05,1.05,0,0,0,228.68,221.71Zm8.92,5.15,3.57,2.06a3.81,3.81,0,0,0,3.45,0,1.06,1.06,0,0,0,0-2l-3.56-2.06a3.83,3.83,0,0,0-3.46,0A1.05,1.05,0,0,0,237.6,226.86Zm8.93,5.15,3.56,2.06a3.81,3.81,0,0,0,3.45,0c1-.55,1-1.44,0-2L250,230a3.78,3.78,0,0,0-3.45,0C245.56,230.57,245.57,231.46,246.53,232Zm8.92,5.15,3.56,2.06a3.83,3.83,0,0,0,3.46,0c.95-.55.94-1.44,0-2l-3.56-2a3.78,3.78,0,0,0-3.45,0A1,1,0,0,0,255.45,237.16Zm8.92,5.16,3.56,2.05a3.8,3.8,0,0,0,3.46,0,1.05,1.05,0,0,0,0-2l-3.57-2.06a3.81,3.81,0,0,0-3.45,0C263.41,240.87,263.41,241.76,264.37,242.32Zm8.92,5.15,3.57,2.05a3.78,3.78,0,0,0,3.45,0,1,1,0,0,0,0-2l-3.57-2.06a3.81,3.81,0,0,0-3.45,0C272.33,246,272.33,246.91,273.29,247.47Zm9.11,5.25,3.56,2.06a3.83,3.83,0,0,0,3.46,0c.95-.55.94-1.44,0-2l-3.57-2a3.78,3.78,0,0,0-3.45,0A1,1,0,0,0,282.4,252.72ZM163.17,193.43l3.08,1.78a4.35,4.35,0,0,0,3.93,0l3.07-1.77a1.2,1.2,0,0,0,0-2.27l-3.09-1.78a4.32,4.32,0,0,0-3.93,0l-3.07,1.77C162.07,191.78,162.08,192.8,163.17,193.43Zm15.93,6.94,3.07-1.77a1.2,1.2,0,0,0,0-2.27l-3.09-1.78a4.32,4.32,0,0,0-3.93,0l-3.06,1.77c-1.09.62-1.08,1.64,0,2.27l3.08,1.78A4.35,4.35,0,0,0,179.1,200.37Zm1.91,3.36,3.09,1.78a4.35,4.35,0,0,0,3.93,0l3.06-1.77c1.09-.63,1.08-1.64,0-2.27L188,199.7a4.37,4.37,0,0,0-3.94,0L181,201.46A1.2,1.2,0,0,0,181,203.73Zm8.92,5.15,3.09,1.78a4.35,4.35,0,0,0,3.93,0L200,208.9c1.09-.63,1.08-1.64,0-2.27l-3.08-1.78a4.35,4.35,0,0,0-3.93,0l-3.07,1.77A1.2,1.2,0,0,0,189.93,208.88Zm19,2.9L205.84,210a4.35,4.35,0,0,0-3.93,0l-3.07,1.77a1.2,1.2,0,0,0,0,2.27l3.09,1.78a4.32,4.32,0,0,0,3.93,0l3.07-1.77C210,213.43,210,212.41,208.92,211.78Zm8.93,5.15-3.09-1.78a4.35,4.35,0,0,0-3.93,0l-3.07,1.77c-1.08.63-1.07,1.64,0,2.27l3.08,1.78a4.32,4.32,0,0,0,3.93,0l3.07-1.77A1.2,1.2,0,0,0,217.85,216.93Zm8.92,5.15-3.09-1.78a4.35,4.35,0,0,0-3.93,0l-3.06,1.77a1.2,1.2,0,0,0,0,2.27l3.08,1.79a4.35,4.35,0,0,0,3.93,0l3.07-1.77A1.2,1.2,0,0,0,226.77,222.08Zm8.92,5.15-3.09-1.78a4.32,4.32,0,0,0-3.93,0l-3.06,1.77a1.2,1.2,0,0,0,0,2.27l3.09,1.78a4.32,4.32,0,0,0,3.93,0l3.06-1.77A1.2,1.2,0,0,0,235.69,227.23Zm8.92,5.16-3.08-1.79a4.35,4.35,0,0,0-3.93,0l-3.07,1.77a1.2,1.2,0,0,0,0,2.27l3.09,1.78a4.32,4.32,0,0,0,3.93,0l3.06-1.77A1.19,1.19,0,0,0,244.61,232.39Zm8.92,5.15-3.08-1.79a4.35,4.35,0,0,0-3.93,0l-3.07,1.77a1.2,1.2,0,0,0,0,2.27l3.09,1.78a4.35,4.35,0,0,0,3.93,0l3.07-1.77A1.2,1.2,0,0,0,253.53,237.54Zm-1.14,7.4,3.08,1.78a4.35,4.35,0,0,0,3.93,0l3.07-1.77a1.2,1.2,0,0,0,0-2.27l-3.09-1.78a4.32,4.32,0,0,0-3.93,0l-3.07,1.77C251.29,243.29,251.3,244.31,252.39,244.94Zm19,2.9-3.09-1.78a4.32,4.32,0,0,0-3.93,0l-3.06,1.77c-1.09.62-1.08,1.64,0,2.27l3.08,1.78a4.35,4.35,0,0,0,3.93,0l3.07-1.77A1.2,1.2,0,0,0,271.38,247.84Zm13.06,7.54-7-4.06a4.32,4.32,0,0,0-3.93,0l-3.07,1.77a1.2,1.2,0,0,0,0,2.27l7,4.07a4.35,4.35,0,0,0,3.93,0l3.07-1.77C285.54,257,285.53,256,284.44,255.38ZM154.9,198.2l7,4.07a4.32,4.32,0,0,0,3.93,0L169,200.5c1.08-.62,1.07-1.64,0-2.27l-7-4.06a4.32,4.32,0,0,0-3.93,0l-3.07,1.77A1.2,1.2,0,0,0,154.9,198.2Zm12.88,7.44,3.09,1.78a4.32,4.32,0,0,0,3.93,0l3.07-1.77c1.08-.62,1.07-1.64,0-2.27l-3.08-1.78a4.32,4.32,0,0,0-3.93,0l-3.07,1.77A1.2,1.2,0,0,0,167.78,205.64Zm12,6.93a4.35,4.35,0,0,0,3.93,0l3.07-1.77a1.2,1.2,0,0,0,0-2.27l-3.09-1.79a4.35,4.35,0,0,0-3.93,0l-3.07,1.77c-1.08.62-1.07,1.64,0,2.27Zm8.92,5.15a4.35,4.35,0,0,0,3.93,0l3.07-1.77a1.2,1.2,0,0,0,0-2.27l-3.09-1.78a4.32,4.32,0,0,0-3.93,0l-3.06,1.77c-1.09.62-1.08,1.64,0,2.27Zm8.89-.67-3.06,1.77a1.2,1.2,0,0,0,0,2.27l3.09,1.78a4.35,4.35,0,0,0,3.93,0l3.06-1.77a1.2,1.2,0,0,0,0-2.27l-3.08-1.78A4.34,4.34,0,0,0,197.6,217.05Zm9.11,5-3.44,2c-1,.56-1,1.48,0,2l3.47,2a3.93,3.93,0,0,0,3.55,0l3.44-2c1-.56,1-1.48,0-2.05l-3.46-2A4,4,0,0,0,206.71,222.09Zm8.93,5.15-3.45,2a1.08,1.08,0,0,0,0,2.05l3.47,2a3.93,3.93,0,0,0,3.55,0l3.45-2c1-.56,1-1.48,0-2.05l-3.46-2A3.93,3.93,0,0,0,215.64,227.24Zm8.92,5.15-3.44,2a1.08,1.08,0,0,0,0,2.05l3.46,2a3.93,3.93,0,0,0,3.55,0l3.45-2c1-.56,1-1.48,0-2l-3.47-2A3.93,3.93,0,0,0,224.56,232.39Zm8.92,5.15-3.44,2a1.08,1.08,0,0,0,0,2.05l3.46,2a3.92,3.92,0,0,0,3.56,0l3.44-2c1-.56,1-1.48,0-2l-3.47-2A3.93,3.93,0,0,0,233.48,237.54Zm8.92,5.16-3.44,2a1.09,1.09,0,0,0,0,2.06l3.47,2a3.93,3.93,0,0,0,3.55,0l3.44-2c1-.56,1-1.48,0-2.05l-3.47-2A3.9,3.9,0,0,0,242.4,242.7Zm12.51,11.19,3.44-2a1.09,1.09,0,0,0,0-2.06l-3.46-2a4,4,0,0,0-3.56,0l-3.44,2c-1,.56-1,1.48,0,2l3.47,2A3.93,3.93,0,0,0,254.91,253.89Zm8.92,5.15,3.44-2a1.09,1.09,0,0,0,0-2.06l-3.46-2a3.93,3.93,0,0,0-3.55,0l-3.45,2c-1,.56-1,1.48,0,2.05l3.47,2A3.9,3.9,0,0,0,263.83,259Zm12.54,1.22-3.46-2a3.92,3.92,0,0,0-3.56,0l-3.44,2a1.09,1.09,0,0,0,0,2.06l3.47,2a3.93,3.93,0,0,0,3.55,0l3.44-2C277.36,261.75,277.36,260.83,276.37,260.26Zm-129.92-57.4,11.19,6.46a3.93,3.93,0,0,0,3.55,0l3.44-2a1.08,1.08,0,0,0,0-2.05l-11.19-6.46a3.93,3.93,0,0,0-3.55,0l-3.44,2C145.46,201.37,145.47,202.29,146.45,202.86Zm16.64,9.61,3.47,2a3.93,3.93,0,0,0,3.55,0l3.44-2a1.08,1.08,0,0,0,0-2.05l-3.46-2a3.93,3.93,0,0,0-3.55,0l-3.45,2C162.1,211,162.11,211.9,163.09,212.47Zm8.93,5.15,3.46,2a3.93,3.93,0,0,0,3.55,0l3.45-2c1-.57,1-1.48,0-2l-3.46-2a3.93,3.93,0,0,0-3.55,0l-3.45,2C171,216.13,171,217.05,172,217.62Zm8.92,5.15,3.46,2a3.93,3.93,0,0,0,3.55,0l3.45-2c1-.56,1-1.48,0-2l-3.47-2a3.93,3.93,0,0,0-3.55,0l-3.44,2A1.08,1.08,0,0,0,180.94,222.77Zm15.94,7.16,3.44-2c1-.56,1-1.48,0-2.05l-3.47-2a3.93,3.93,0,0,0-3.55,0l-3.44,2a1.08,1.08,0,0,0,0,2l3.46,2A4,4,0,0,0,196.88,229.93Zm8.92,5.15,3.44-2c1-.56,1-1.48,0-2.05l-3.46-2a4,4,0,0,0-3.56,0l-3.44,2a1.08,1.08,0,0,0,0,2l3.47,2A3.9,3.9,0,0,0,205.8,235.08Zm8.92,5.15,3.44-2c1-.56,1-1.48,0-2.05l-3.46-2a3.92,3.92,0,0,0-3.56,0l-3.44,2a1.08,1.08,0,0,0,0,2.05l3.47,2A3.93,3.93,0,0,0,214.72,240.23Zm8.92,5.15,3.45-2c1-.56,1-1.48,0-2l-3.46-2a3.93,3.93,0,0,0-3.55,0l-3.45,2a1.09,1.09,0,0,0,0,2.06l3.47,2A3.93,3.93,0,0,0,223.64,245.38Zm8.92,5.15,3.45-2a1.09,1.09,0,0,0,0-2.06l-3.47-2a3.93,3.93,0,0,0-3.55,0l-3.44,2c-1,.56-1,1.48,0,2.05l3.46,2A3.9,3.9,0,0,0,232.56,250.53Zm8.93,5.15,3.44-2a1.08,1.08,0,0,0,0-2l-3.47-2a3.9,3.9,0,0,0-3.55,0l-3.44,2c-1,.56-1,1.48,0,2.05l3.46,2A3.92,3.92,0,0,0,241.49,255.68Zm1.9,3.15,3.46,2a4,4,0,0,0,3.56,0l3.44-2a1.08,1.08,0,0,0,0-2.05l-3.47-2a3.93,3.93,0,0,0-3.55,0l-3.44,2C242.4,257.34,242.41,258.26,243.39,258.83Zm24.72,6.2L259.3,260a4,4,0,0,0-3.56,0l-3.44,2c-1,.56-1,1.48,0,2.05l8.81,5.09a4,4,0,0,0,3.56,0l3.44-2A1.09,1.09,0,0,0,268.11,265ZM138.22,207.88,154.09,217a4.45,4.45,0,0,0,4,0l3-1.72a1.23,1.23,0,0,0,0-2.32l-15.87-9.16a4.42,4.42,0,0,0-4,0l-3,1.72A1.22,1.22,0,0,0,138.22,207.88ZM160,220.46l3,1.73a4.42,4.42,0,0,0,4,0l3-1.72a1.22,1.22,0,0,0,0-2.32l-3-1.73a4.45,4.45,0,0,0-4,0l-3,1.72A1.22,1.22,0,0,0,160,220.46Zm8.92,5.15,3,1.73a4.4,4.4,0,0,0,4,0l3-1.72a1.22,1.22,0,0,0,0-2.32l-3-1.73a4.45,4.45,0,0,0-4,0l-3,1.72A1.23,1.23,0,0,0,168.93,225.61Zm8.93,5.15,3,1.74a4.43,4.43,0,0,0,4,0l3-1.72a1.23,1.23,0,0,0,0-2.32l-3-1.73a4.43,4.43,0,0,0-4,0l-3,1.72A1.22,1.22,0,0,0,177.86,230.76Zm8.92,5.15,3,1.74a4.43,4.43,0,0,0,4,0l3-1.72c1.1-.64,1.1-1.67,0-2.32l-3-1.73a4.46,4.46,0,0,0-4,0l-3,1.73C185.66,234.23,185.67,235.27,186.78,235.91Zm8.92,5.15,3,1.74a4.45,4.45,0,0,0,4,0l3-1.72a1.23,1.23,0,0,0,0-2.32l-3-1.73a4.46,4.46,0,0,0-4,0l-3,1.73C194.58,239.38,194.59,240.42,195.7,241.06Zm8.92,5.15,3,1.74a4.48,4.48,0,0,0,4,0l3-1.73c1.11-.63,1.1-1.67,0-2.31l-3-1.74a4.48,4.48,0,0,0-4,0l-3,1.73C203.5,244.54,203.51,245.57,204.62,246.21Zm8.92,5.16,3,1.73a4.46,4.46,0,0,0,4,0l3-1.73c1.11-.63,1.1-1.67,0-2.31l-3-1.74a4.45,4.45,0,0,0-4,0l-3,1.72A1.23,1.23,0,0,0,213.54,251.37Zm8.92,5.15,3,1.73a4.43,4.43,0,0,0,4,0l3-1.72a1.22,1.22,0,0,0,0-2.32l-3-1.74a4.43,4.43,0,0,0-4,0l-3,1.72A1.23,1.23,0,0,0,222.46,256.52Zm8.93,5.15,3,1.73a4.43,4.43,0,0,0,4,0l3-1.72a1.22,1.22,0,0,0,0-2.32l-3-1.73a4.4,4.4,0,0,0-4,0l-3,1.72A1.22,1.22,0,0,0,231.39,261.67Zm8.92,5.15,3,1.73a4.43,4.43,0,0,0,4,0l3-1.72a1.23,1.23,0,0,0,0-2.32l-3-1.73a4.4,4.4,0,0,0-4,0l-3,1.72A1.22,1.22,0,0,0,240.31,266.82Zm19.11,3-3-1.74a4.46,4.46,0,0,0-4,0l-3,1.73c-1.11.64-1.1,1.67,0,2.31l3,1.74a4.46,4.46,0,0,0,4,0l3-1.73A1.22,1.22,0,0,0,259.42,269.79ZM143.9,212.64l-7-4a4.4,4.4,0,0,0-4,0l-3,1.72a1.23,1.23,0,0,0,0,2.32l7,4a4.46,4.46,0,0,0,4,0l3-1.73C145,214.32,145,213.28,143.9,212.64Zm8.93,5.15-3-1.74a4.43,4.43,0,0,0-4,0l-3,1.72c-1.11.64-1.1,1.67,0,2.32l3,1.73a4.43,4.43,0,0,0,4,0l3-1.73A1.22,1.22,0,0,0,152.83,217.79Zm8.92,5.15-3-1.73a4.42,4.42,0,0,0-4,0l-3,1.72a1.22,1.22,0,0,0,0,2.32l3,1.73a4.45,4.45,0,0,0,4,0l3-1.72A1.22,1.22,0,0,0,161.75,222.94ZM224.2,259l-56.53-32.64a4.42,4.42,0,0,0-4,0l-3,1.72a1.22,1.22,0,0,0,0,2.32L217.22,263a4.46,4.46,0,0,0,4,0l3-1.73C225.32,260.68,225.31,259.64,224.2,259Zm8.92,5.15-3-1.74a4.43,4.43,0,0,0-4,0l-3,1.72c-1.1.64-1.1,1.67,0,2.32l3,1.73a4.46,4.46,0,0,0,4,0l3-1.73C234.24,265.83,234.23,264.79,233.12,264.15ZM242,269.3l-3-1.74a4.43,4.43,0,0,0-4,0l-3,1.72a1.23,1.23,0,0,0,0,2.32l3,1.73a4.43,4.43,0,0,0,4,0l3-1.72A1.22,1.22,0,0,0,242,269.3Zm9.11,5.26-3-1.74a4.43,4.43,0,0,0-4,0l-3,1.72a1.23,1.23,0,0,0,0,2.32l3,1.73a4.46,4.46,0,0,0,4,0l3-1.73C252.27,276.24,252.26,275.2,251.15,274.56Z"/><path class="cls-22" d="M319.23,250.58,179.93,170.1c-5.4-3.11-9.77-11.46-9.77-18.66V42.16c0-7.19,4.37-10.49,9.77-7.38l139.3,80.48c5.4,3.11,9.77,11.46,9.77,18.65V243.2C329,250.39,324.63,253.69,319.23,250.58Z"/><path class="cls-23" d="M320.49,245,182.67,165.35c-4.34-2.75-7-8.27-7-13.91V41.63a1.73,1.73,0,0,1,2.6-1.49l.31.18L316.49,120c5.17,3,7,8.27,7,13.91V243.47a1.87,1.87,0,0,1-2.79,1.62Z"/><path class="cls-24" d="M316.49,120,178.56,40.32l-.31-.18a1.73,1.73,0,0,0-2.6,1.49V151.44c0,5.64,2.68,11.16,7,13.91L320.49,245l.23.13a1.87,1.87,0,0,0,2.79-1.62V133.91C323.51,128.27,321.66,123,316.49,120Zm5.93,123.47a.78.78,0,0,1-.78.77.75.75,0,0,1-.38-.1l-138-79.74c-3.92-2.49-6.48-7.58-6.48-13V41.63a.63.63,0,0,1,.64-.63.62.62,0,0,1,.32.09L315.94,121c5.35,3.09,6.48,8.75,6.48,13Z"/><path class="cls-25" d="M322,113.79,182.69,33.31a6.6,6.6,0,0,0-5.71-.84c-.2.08-2.93,1.53-3.12,1.63h0c1.67-.81,3.78-.66,6.08.67l139.3,80.48c5.4,3.11,9.77,11.46,9.77,18.65V243.2c0,4.48-1.71,7.46-4.3,8.3a1.65,1.65,0,0,0,.86-.29c.12-.07,3.08-1.74,3.2-1.82,1.85-1.3,3-4,3-7.66V132.44C331.77,125.25,327.39,116.9,322,113.79Z"/><path class="cls-26" d="M319.7,115,180.4,34.55c-2.22-1.28-4.25-1.46-5.89-.76a7.19,7.19,0,0,1,4.71,1.11l139.31,80.47c5.39,3.12,9.76,11.47,9.76,18.66V243.31c0,4.25-1.52,7.12-3.88,8.14,3-.48,5.06-3.58,5.06-8.49V133.68C329.47,126.49,325.09,118.14,319.7,115Z"/><path class="cls-27" d="M297.53,129.25,198.44,73c-.26,13.19,0,54.52-.1,68-.12,21.86-3.39,39.09-28.64,58.85-8,6.28-43.47,25.59-72.23,40.7C85.8,246.66,84.92,249.25,79,254.25c-5.72,4.84-14.49,9.34-17,10.84L160.4,322c1.84-1.09,11.41-5.89,17.7-11.22,5.9-5,6.79-10.32,18.46-16.45,28.75-15.12,78-45.37,86.77-50.62,11.22-6.74,14.09-11,14.09-28.68C297.42,201.45,297.27,142.2,297.53,129.25Z"/><path class="cls-28" d="M297.53,122.77l-99.09-56.3c-.26,13.19,0,54.52-.1,68-.12,21.87-3.39,39.09-28.64,58.85-8,6.29-43.47,25.6-72.23,40.71C85.8,240.18,83.92,248,78,253c-5.72,4.84-12.06,6.17-14.62,7.66l98.43,56.92c1.84-1.09,9-2.72,15.28-8,5.9-5,7.78-12.82,19.45-19,28.75-15.12,64.19-34.42,72.23-40.71,25.24-19.76,28.51-37,28.63-58.85C297.5,177.45,297.27,135.72,297.53,122.77Z"/><path class="cls-29" d="M239.45,168.29a.48.48,0,0,1-.26-.07l-.1-.06a.5.5,0,0,1-.18-.68l0,0v-2.51a.5.5,0,1,1,1,0v2.87a.48.48,0,0,1-.25.43A.42.42,0,0,1,239.45,168.29Zm-2.69-1.56a.43.43,0,0,1-.25-.07l-2.59-1.5a.5.5,0,0,1,.5-.86l2.59,1.5a.5.5,0,0,1,.18.68A.51.51,0,0,1,236.76,166.73Zm-5.18-3a.45.45,0,0,1-.25-.07l-2.59-1.5a.5.5,0,1,1,.5-.86l2.59,1.5a.5.5,0,0,1-.25.93Zm7.87-1.31a.5.5,0,0,1-.5-.5v-3a.5.5,0,1,1,1,0v3A.49.49,0,0,1,239.45,162.42Zm-13-1.7a.57.57,0,0,1-.25-.06l-2.59-1.5a.51.51,0,0,1-.18-.69.5.5,0,0,1,.68-.18l2.59,1.5a.5.5,0,0,1-.25.93Zm-5.17-3a.43.43,0,0,1-.25-.07l-2.59-1.5a.5.5,0,0,1,.5-.86l2.59,1.5a.5.5,0,0,1-.25.93Zm18.22-1.28a.5.5,0,0,1-.5-.5v-3a.5.5,0,1,1,1,0v3A.5.5,0,0,1,239.45,156.44Zm-23.4-1.72a.45.45,0,0,1-.25-.07l-2.59-1.5a.5.5,0,1,1,.5-.86l2.59,1.5a.5.5,0,0,1-.25.93Zm-5.18-3a.57.57,0,0,1-.25-.06l-2.59-1.5a.51.51,0,0,1-.24-.44V148a.5.5,0,1,1,1,0v1.39l2.34,1.35a.51.51,0,0,1,.18.69A.49.49,0,0,1,210.87,151.71Zm28.58-1.26a.5.5,0,0,1-.5-.5v-3a.5.5,0,1,1,1,0v3A.49.49,0,0,1,239.45,150.45Zm-31.16-4.9a.5.5,0,0,1-.5-.5v-3a.5.5,0,1,1,1,0v3A.49.49,0,0,1,208.29,145.55Zm31.16-1.08a.5.5,0,0,1-.5-.5v-3a.5.5,0,1,1,1,0v3A.49.49,0,0,1,239.45,144.47Zm-31.16-4.91a.49.49,0,0,1-.5-.49v-3a.5.5,0,1,1,1,0v3A.49.49,0,0,1,208.29,139.56Zm31.16-1.08a.5.5,0,0,1-.5-.5v-.54l-1.62-.94a.5.5,0,1,1,.5-.86l1.87,1.08a.5.5,0,0,1,.24.43V138A.49.49,0,0,1,239.45,138.48ZM235,135.06a.57.57,0,0,1-.25-.06l-2.59-1.5a.51.51,0,0,1-.18-.69.5.5,0,0,1,.68-.18l2.59,1.5a.5.5,0,0,1-.25.93Zm-26.7-1.48a.5.5,0,0,1-.5-.5v-3a.5.5,0,1,1,1,0v3A.49.49,0,0,1,208.29,133.58Zm21.53-1.52a.43.43,0,0,1-.25-.07l-2.59-1.5a.5.5,0,0,1,.5-.86l2.59,1.5a.5.5,0,0,1,.18.68A.51.51,0,0,1,229.82,132.06Zm-5.18-3a.45.45,0,0,1-.25-.07l-2.59-1.5a.5.5,0,1,1,.5-.86l2.59,1.5a.5.5,0,0,1-.25.93Zm-16.35-1.47a.49.49,0,0,1-.5-.49v-3a.5.5,0,0,1,1,0v3A.49.49,0,0,1,208.29,127.59Zm11.17-1.54a.57.57,0,0,1-.25-.06l-2.59-1.5a.51.51,0,0,1-.18-.69.5.5,0,0,1,.68-.18l2.59,1.5a.51.51,0,0,1,.18.69A.49.49,0,0,1,219.46,126.05Zm-5.17-3A.43.43,0,0,1,214,123l-2.59-1.5a.5.5,0,0,1,.5-.86l2.59,1.5a.5.5,0,0,1-.25.93Zm-6-1.44a.5.5,0,0,1-.5-.5v-2a.48.48,0,0,1,.25-.43.5.5,0,0,1,.5,0l.82.48a.5.5,0,1,1-.5.86l-.08,0v1.17A.49.49,0,0,1,208.29,121.61Z"/><path class="cls-29" d="M287.32,180.26a.5.5,0,0,1-.5-.5v-3a.5.5,0,0,1,.5-.5.5.5,0,0,1,.5.5v3A.5.5,0,0,1,287.32,180.26Zm-2.21-.82a.54.54,0,0,1-.25-.06l-2.6-1.48a.51.51,0,0,1-.19-.68.5.5,0,0,1,.68-.19l2.6,1.48a.5.5,0,0,1-.24.93Zm-5.2-3a.54.54,0,0,1-.25-.06l-2.6-1.48a.51.51,0,0,1-.19-.68.5.5,0,0,1,.68-.19l2.6,1.48a.5.5,0,0,1-.24.93Zm7.41-2.2a.51.51,0,0,1-.5-.5v-3a.5.5,0,0,1,.5-.49.49.49,0,0,1,.5.49v3A.5.5,0,0,1,287.32,174.28Zm-12.62-.76a.53.53,0,0,1-.24-.06l-2.6-1.48a.5.5,0,1,1,.49-.87l2.6,1.48a.51.51,0,0,1,.19.68A.5.5,0,0,1,274.7,173.52Zm-5.2-3a.53.53,0,0,1-.24-.06l-2.6-1.48a.5.5,0,1,1,.49-.87l2.6,1.48a.5.5,0,0,1-.25.93Zm17.82-2.27a.5.5,0,0,1-.5-.5v-3a.5.5,0,0,1,.5-.5.5.5,0,0,1,.5.5v3A.5.5,0,0,1,287.32,168.29Zm-23-.69a.42.42,0,0,1-.24-.07l-2.6-1.48a.49.49,0,1,1,.49-.86l2.6,1.48a.5.5,0,0,1,.19.68A.51.51,0,0,1,264.3,167.6Zm-5.2-3a.47.47,0,0,1-.25-.07l-2.59-1.48a.49.49,0,1,1,.49-.86l2.6,1.48a.5.5,0,0,1-.25.93Zm25.84-.95a.54.54,0,0,1-.25-.06l-2.6-1.48a.51.51,0,0,1-.19-.68.5.5,0,0,1,.68-.19l2.6,1.48a.5.5,0,0,1-.24.93Zm-31-2a.47.47,0,0,1-.25-.07l-2.6-1.48a.5.5,0,1,1,.5-.86l2.6,1.48a.5.5,0,0,1-.25.93Zm25.84-1a.54.54,0,0,1-.25-.06l-2.6-1.48a.5.5,0,1,1,.49-.87l2.6,1.48a.5.5,0,0,1-.24.93Zm-31-2a.47.47,0,0,1-.25-.07l-2.6-1.48a.5.5,0,1,1,.5-.86l2.6,1.48a.5.5,0,0,1-.25.93Zm25.83-.95a.53.53,0,0,1-.24-.06l-2.6-1.48a.5.5,0,1,1,.49-.87l2.6,1.48a.51.51,0,0,1,.19.68A.5.5,0,0,1,274.53,157.77Zm-30.43-2.36a.5.5,0,0,1-.5-.5v-3a.5.5,0,0,1,1,0v3A.5.5,0,0,1,244.1,155.41Zm25.23-.6a.53.53,0,0,1-.24-.06l-2.6-1.48a.51.51,0,0,1-.19-.69.5.5,0,0,1,.68-.18l2.6,1.48a.51.51,0,0,1,.19.68A.5.5,0,0,1,269.33,154.81Zm-5.2-3a.5.5,0,0,1-.24-.06l-2.6-1.49a.49.49,0,1,1,.49-.86l2.6,1.48a.5.5,0,0,1,.19.68A.51.51,0,0,1,264.13,151.85Zm-20-2.43a.5.5,0,0,1-.5-.5v-3a.5.5,0,0,1,1,0v3A.5.5,0,0,1,244.1,149.42Zm14.83-.53a.42.42,0,0,1-.24-.07l-2.61-1.48a.5.5,0,0,1-.18-.68.49.49,0,0,1,.68-.18l2.6,1.48a.5.5,0,0,1,.19.68A.51.51,0,0,1,258.93,148.89Zm-5.2-3a.47.47,0,0,1-.25-.07l-2.6-1.48a.5.5,0,1,1,.5-.86L254,145a.5.5,0,0,1-.25.93Zm-9.63-2.49a.5.5,0,0,1-.5-.5v-3a.5.5,0,0,1,1,0v3A.5.5,0,0,1,244.1,143.44Zm4.43-.47a.47.47,0,0,1-.25-.07l-2.6-1.48a.5.5,0,1,1,.5-.86l2.6,1.48a.5.5,0,0,1-.25.93Z"/><path class="cls-30" d="M212.18,100.22a.72.72,0,0,1-.11-.36V90.19l-2.83-1.63a.75.75,0,0,1-.26-.27.77.77,0,0,1-.1-.38V86.59a.31.31,0,0,1,.09-.26.26.26,0,0,1,.27,0l7.82,4.51a.73.73,0,0,1,.27.28.76.76,0,0,1,.11.38v1.31a.28.28,0,0,1-.11.26.26.26,0,0,1-.27,0l-2.82-1.62v9.67a.27.27,0,0,1-.1.24c-.06,0-.15,0-.26,0l-1.44-.83A.68.68,0,0,1,212.18,100.22Z"/><path class="cls-31" d="M218.76,93.4a.63.63,0,0,1-.11-.36V91.76c0-.13,0-.21.11-.25a.25.25,0,0,1,.26,0l1.4.82a.76.76,0,0,1,.38.66v1.28a.23.23,0,0,1-.11.23.27.27,0,0,1-.27,0l-1.4-.82A.62.62,0,0,1,218.76,93.4Zm.06,10.65a.72.72,0,0,1-.11-.36V95.41c0-.13,0-.21.11-.24a.25.25,0,0,1,.26,0l1.3.75a.71.71,0,0,1,.26.28.7.7,0,0,1,.1.36v8.28a.26.26,0,0,1-.1.24.25.25,0,0,1-.26,0l-1.3-.75A.65.65,0,0,1,218.82,104.05Z"/><path class="cls-32" d="M224.28,106.49a5.63,5.63,0,0,1-.71-2.85v-4L222.36,99a.79.79,0,0,1-.26-.28.7.7,0,0,1-.1-.36v-1a.22.22,0,0,1,.36-.21l1.21.7V94.88a.24.24,0,0,1,.11-.24.26.26,0,0,1,.26,0l1.27.73a.7.7,0,0,1,.27.27.75.75,0,0,1,.1.36V99l1.91,1.11a.75.75,0,0,1,.26.27.7.7,0,0,1,.1.36v1a.24.24,0,0,1-.1.23.27.27,0,0,1-.26,0l-1.91-1.11v3.78a3.21,3.21,0,0,0,.22,1.27,1.85,1.85,0,0,0,.75.82l1.08.61a.75.75,0,0,1,.26.27.71.71,0,0,1,.1.37v1.1a.25.25,0,0,1-.1.24c-.06,0-.15,0-.26,0l-1.26-.72A5.42,5.42,0,0,1,224.28,106.49Z"/><path class="cls-33" d="M229.48,110.21a.63.63,0,0,1-.11-.36V98.23c0-.13,0-.21.11-.24a.25.25,0,0,1,.26,0l1.28.74a.87.87,0,0,1,.27.27.82.82,0,0,1,.1.37V111a.31.31,0,0,1-.1.25.26.26,0,0,1-.27,0l-1.28-.74A.68.68,0,0,1,229.48,110.21Z"/><path class="cls-34" d="M234.15,112.08a7.88,7.88,0,0,1-1.07-3.81v-.44c0-1.47.33-2.43,1-2.88s1.59-.35,2.78.34a7.18,7.18,0,0,1,2.8,2.88,8.14,8.14,0,0,1,1,3.94v.37a.25.25,0,0,1-.11.23.27.27,0,0,1-.27,0l-5.08-2.93v.14a4.62,4.62,0,0,0,.47,1.89,3,3,0,0,0,1.2,1.33,1.14,1.14,0,0,0,1.42,0,.38.38,0,0,1,.21-.12.68.68,0,0,1,.26.11l1.35.78a.71.71,0,0,1,.24.22.58.58,0,0,1,.09.3.89.89,0,0,1-.43.74,1.87,1.87,0,0,1-1.25.28,4.46,4.46,0,0,1-1.88-.67A7.29,7.29,0,0,1,234.15,112.08Zm4.38-1.89v0a4.18,4.18,0,0,0-.45-1.92,3.18,3.18,0,0,0-1.23-1.33c-.52-.3-.93-.33-1.23-.08a1.77,1.77,0,0,0-.44,1.4v0Z"/><path class="cls-35" d="M283.42,130.12v2.41l2.74,1.58V131.7Zm-.11,24.6,2.85,1.65V154l-2.85-1.65Zm-28.75-35.64-9.3-5.35v2.41l9.3,5.35Zm26.49,17.64,3.27,1.89V136.2l-3.27-1.89Zm-21.21-20.16-7.33-4.23v2.41l7.33,4.23Zm21.85,12.56-6.83-3.92v2.41l6.83,3.92Zm-8.55-4.92-11.58-6.64V120l11.58,6.64Zm-2.59,15.2-11.9-6.83V135l11.9,6.83Zm8.77-6.08-15.39-8.83v2.41l15.39,8.83Zm-14.95-3L257,126.07v2.41l7.33,4.23Zm-2.16-6.81-5.93-3.42v2.41l5.93,3.43Zm12.54,26.31,6.83,3.93v-2.41l-6.83-3.93Zm-2.48-7,8.82,5.07v-2.42l-8.82-5.06Zm-19.86-5.87,7.32,4.23v-2.41l-7.32-4.24Zm13.68-3.23,7.59,4.34v-2.41l-7.59-4.34Zm9.31,5.34,10.76,6.19v-2.41l-10.76-6.19Zm-18.47-7.48L251,128.15v2.41l5.93,3.42Zm-1.62-6.49-10.05-5.78v2.41l10.05,5.78Zm-11.87,6.71,7.24,4.15v-2.41l-7.24-4.15Zm18,10.37L273,148.81V146.4l-11.57-6.65Zm-40-23.08,20.3,11.71v-2.41l-20.3-11.71Zm29.37-7.74-5.53-3.17v2.41l5.53,3.17Zm-1.51,15.82-13.71-7.89v2.41l13.71,7.89Zm-29.59-11.49-10.35-6.1V112l10.35,6.1Zm14.16,2.61L219.58,110v2.42l14.27,8.23Zm-16-9.23-8.52-5v2.41l8.52,5Z"/><path class="cls-29" d="M259.64,244.61a.48.48,0,0,1-.26-.07l-1.07-.64a.5.5,0,0,1-.17-.69.49.49,0,0,1,.68-.17l.81.49,1.17-.79a.5.5,0,1,1,.57.82c-.44.3-.92.63-1.46,1A.43.43,0,0,1,259.64,244.61ZM256,242.42a.51.51,0,0,1-.26-.07l-2.56-1.54a.5.5,0,0,1,.51-.85l2.57,1.54a.5.5,0,0,1,.17.68A.49.49,0,0,1,256,242.42Zm7.48-.56a.51.51,0,0,1-.39-.19.5.5,0,0,1,.08-.7c.79-.63,1.56-1.26,2.3-1.89a.5.5,0,0,1,.65.77c-.75.63-1.53,1.26-2.33,1.9A.51.51,0,0,1,263.48,241.86Zm-12.61-2.52a.47.47,0,0,1-.25-.07l-2.57-1.54a.5.5,0,1,1,.52-.86l2.56,1.54a.5.5,0,0,1-.26.93ZM268.05,238a.5.5,0,0,1-.37-.16.51.51,0,0,1,0-.71c.76-.68,1.48-1.35,2.18-2a.5.5,0,0,1,.71,0,.49.49,0,0,1,0,.7c-.7.68-1.44,1.36-2.21,2A.5.5,0,0,1,268.05,238Zm-22.3-1.74a.59.59,0,0,1-.26-.07l-2.57-1.55a.5.5,0,1,1,.52-.85l2.56,1.54a.5.5,0,0,1-.25.93Zm26.62-2.4a.47.47,0,0,1-.35-.14.49.49,0,0,1,0-.7c.7-.73,1.38-1.46,2-2.18a.5.5,0,0,1,.74.66c-.65.73-1.33,1.47-2,2.21A.51.51,0,0,1,272.37,233.86Zm-31.75-.69a.48.48,0,0,1-.26-.07l-2.57-1.54a.5.5,0,1,1,.52-.86l2.56,1.55a.48.48,0,0,1,.17.68A.47.47,0,0,1,240.62,233.17Zm-5.13-3.08a.59.59,0,0,1-.26-.07l-2.56-1.55a.48.48,0,0,1-.17-.68.49.49,0,0,1,.68-.17l2.57,1.54a.51.51,0,0,1,.17.69A.52.52,0,0,1,235.49,230.09Zm40.84-.7a.5.5,0,0,1-.39-.82c.63-.78,1.24-1.57,1.8-2.35a.5.5,0,0,1,.7-.12.51.51,0,0,1,.11.7c-.58.8-1.19,1.61-1.83,2.4A.51.51,0,0,1,276.33,229.39Zm-46-2.39a.48.48,0,0,1-.26-.07l-2.56-1.54a.5.5,0,0,1,.51-.86l2.57,1.55a.5.5,0,0,1-.26.92Zm49.46-2.47a.47.47,0,0,1-.27-.08.49.49,0,0,1-.15-.68c.53-.84,1-1.7,1.51-2.55a.49.49,0,0,1,.67-.2.51.51,0,0,1,.2.68c-.48.87-1,1.74-1.54,2.6A.49.49,0,0,1,279.82,224.53Zm-54.59-.61a.63.63,0,0,1-.26-.07l-2.56-1.55a.5.5,0,1,1,.51-.85l2.57,1.54a.5.5,0,0,1-.26.93Zm-5.13-3.09a.47.47,0,0,1-.25-.07l-2.57-1.54a.5.5,0,1,1,.52-.86l2.56,1.55a.49.49,0,0,1,.17.68A.49.49,0,0,1,220.1,220.83Zm62.6-1.54a.46.46,0,0,1-.21,0,.51.51,0,0,1-.25-.67c.42-.88.81-1.79,1.16-2.72a.51.51,0,0,1,.65-.28.5.5,0,0,1,.28.64c-.36.95-.76,1.88-1.18,2.78A.5.5,0,0,1,282.7,219.29ZM215,217.75a.59.59,0,0,1-.25-.07l-2.57-1.55a.5.5,0,1,1,.52-.85l2.56,1.54a.5.5,0,0,1,.17.69A.51.51,0,0,1,215,217.75Zm-5.12-3.09a.48.48,0,0,1-.26-.07L207,213.05a.5.5,0,1,1,.52-.85l2.56,1.54a.48.48,0,0,1,.17.68A.47.47,0,0,1,209.85,214.66Zm75-.94a.4.4,0,0,1-.15,0,.5.5,0,0,1-.33-.62c.29-.93.56-1.89.79-2.85a.5.5,0,0,1,1,.23c-.24,1-.51,2-.81,2.92A.49.49,0,0,1,284.85,213.72Zm-80.13-2.14a.48.48,0,0,1-.26-.07L201.9,210a.5.5,0,0,1,.51-.86l2.57,1.54a.51.51,0,0,1,.17.69A.52.52,0,0,1,204.72,211.58Zm-5.13-3.09a.48.48,0,0,1-.26-.07l-2.56-1.54a.5.5,0,1,1,.51-.85l2.57,1.54a.5.5,0,0,1-.26.92Zm86.67-.58h-.09a.5.5,0,0,1-.4-.58c.17-.94.33-1.93.46-2.93a.5.5,0,0,1,.56-.43.51.51,0,0,1,.43.56c-.14,1-.29,2-.47,3A.49.49,0,0,1,286.26,207.91Zm-91.8-2.5a.51.51,0,0,1-.26-.07l-2.56-1.54a.5.5,0,0,1-.17-.69.49.49,0,0,1,.68-.17l2.57,1.54a.51.51,0,0,1,.17.69A.51.51,0,0,1,194.46,205.41Zm-5.13-3.08a.49.49,0,0,1-.25-.08l-2.57-1.54a.5.5,0,1,1,.52-.85l2.56,1.54a.5.5,0,0,1-.26.93Zm97.72-.35H287a.49.49,0,0,1-.45-.51l-2.32-1.33a.5.5,0,1,1,.49-.87l2.6,1.5a.49.49,0,0,1,.24.47l0,.28A.5.5,0,0,1,287.05,202ZM184.2,199.24a.47.47,0,0,1-.25-.07l-2.57-1.54a.5.5,0,1,1,.52-.86l2.56,1.54a.5.5,0,0,1-.26.93Zm97.68-.53a.57.57,0,0,1-.25-.06l-2.59-1.5a.5.5,0,0,1,.5-.86l2.59,1.49a.5.5,0,0,1-.25.93Zm-99-2.9a.5.5,0,0,1-.37-.17.48.48,0,0,1,0-.7c.74-.68,1.47-1.35,2.18-2a.5.5,0,0,1,.69.72c-.72.69-1.45,1.37-2.21,2.05A.46.46,0,0,1,182.86,195.81Zm93.84-.08a.55.55,0,0,1-.25-.07l-2.6-1.49a.5.5,0,0,1,.5-.87l2.59,1.49a.51.51,0,0,1,.19.69A.5.5,0,0,1,276.7,195.73Zm-5.19-3a.45.45,0,0,1-.25-.07l-2.59-1.49a.5.5,0,1,1,.5-.86l2.59,1.49a.5.5,0,0,1-.25.93Zm-84.32-1.07a.46.46,0,0,1-.35-.14.5.5,0,0,1,0-.71c.71-.71,1.39-1.43,2.06-2.15a.5.5,0,0,1,.73.68c-.67.73-1.36,1.45-2.08,2.18A.54.54,0,0,1,187.19,191.67Zm79.13-1.92a.57.57,0,0,1-.25-.06l-2.59-1.5a.5.5,0,0,1,.5-.86l2.59,1.49a.5.5,0,0,1-.25.93Zm-75.08-2.47a.49.49,0,0,1-.37-.82c.65-.76,1.29-1.53,1.89-2.29a.51.51,0,0,1,.71-.08.49.49,0,0,1,.07.7c-.61.77-1.25,1.55-1.92,2.32A.52.52,0,0,1,191.24,187.28Zm69.9-.51a.45.45,0,0,1-.25-.07l-2.6-1.49a.5.5,0,0,1,.5-.87l2.6,1.5a.5.5,0,0,1-.25.93Zm-5.19-3a.57.57,0,0,1-.25-.06l-2.59-1.5a.5.5,0,1,1,.5-.86l2.59,1.49a.5.5,0,0,1-.25.93Zm-61-1.17a.53.53,0,0,1-.29-.1.51.51,0,0,1-.11-.7q.88-1.22,1.71-2.43a.49.49,0,0,1,.69-.13.5.5,0,0,1,.14.69c-.56.82-1.13,1.64-1.73,2.46A.49.49,0,0,1,195,182.61Zm55.79-1.82a.5.5,0,0,1-.24-.06l-2.6-1.49a.51.51,0,0,1-.18-.69.49.49,0,0,1,.68-.18l2.59,1.49a.52.52,0,0,1,.19.69A.5.5,0,0,1,250.76,180.79Zm-5.18-3a.45.45,0,0,1-.25-.07l-2.59-1.49a.51.51,0,0,1-.19-.68.51.51,0,0,1,.69-.19l2.59,1.5a.5.5,0,0,1-.25.93Zm-47.28-.17a.59.59,0,0,1-.26-.07.5.5,0,0,1-.16-.69c.51-.85,1-1.72,1.48-2.57a.49.49,0,0,1,.67-.2.49.49,0,0,1,.2.68c-.47.87-1,1.74-1.5,2.61A.52.52,0,0,1,198.3,177.64Zm42.09-2.82a.57.57,0,0,1-.25-.06l-2.59-1.5a.5.5,0,1,1,.5-.86l2.59,1.49a.5.5,0,0,1-.25.93Zm-39.22-2.43a.54.54,0,0,1-.22,0,.5.5,0,0,1-.23-.67c.43-.89.84-1.8,1.23-2.7a.5.5,0,1,1,.91.39c-.39.92-.81,1.84-1.25,2.74A.49.49,0,0,1,201.17,172.39Zm34-.55a.55.55,0,0,1-.25-.07l-2.6-1.49a.5.5,0,0,1-.18-.68.5.5,0,0,1,.68-.19l2.6,1.5a.5.5,0,0,1-.25.93Zm-5.19-3a.47.47,0,0,1-.25-.07l-2.59-1.49a.51.51,0,0,1-.19-.68.5.5,0,0,1,.68-.18l2.6,1.49a.5.5,0,0,1-.25.93Zm-26.5-2-.18,0a.5.5,0,0,1-.29-.65c.34-.91.66-1.85,1-2.8a.5.5,0,0,1,1,.3c-.31,1-.64,1.92-1,2.85A.49.49,0,0,1,203.52,166.89Zm21.31-1a.57.57,0,0,1-.25-.06L222,164.3a.5.5,0,1,1,.5-.86l2.59,1.49a.5.5,0,0,1-.25.93Zm-5.18-3a.45.45,0,0,1-.25-.07l-2.59-1.49a.5.5,0,0,1-.19-.68.51.51,0,0,1,.68-.19l2.6,1.5a.5.5,0,0,1-.25.93Zm-14.31-1.69a.27.27,0,0,1-.13,0,.48.48,0,0,1-.35-.61c.25-.95.49-1.91.71-2.88a.5.5,0,1,1,1,.22c-.22,1-.46,1.95-.72,2.92A.5.5,0,0,1,205.34,161.19Zm9.12-1.3a.47.47,0,0,1-.25-.07l-2.59-1.49a.5.5,0,1,1,.5-.86l2.59,1.49a.5.5,0,0,1-.25.93Zm-5.19-3a.5.5,0,0,1-.24-.06l-2.6-1.5a.5.5,0,1,1,.5-.86l2.59,1.49a.52.52,0,0,1,.19.69A.5.5,0,0,1,209.27,156.9Z"/><path class="cls-29" d="M145,245.79a.55.55,0,0,1-.25-.07l-2.59-1.5a.5.5,0,1,1,.5-.86l2.34,1.35,1.2-.69a.5.5,0,0,1,.68.18.5.5,0,0,1-.18.68l-1.45.84A.59.59,0,0,1,145,245.79Zm4-2.34a.5.5,0,0,1-.25-.93l2.59-1.49a.5.5,0,0,1,.5.86l-2.59,1.5A.57.57,0,0,1,149.08,243.45Zm-9.22-.66a.51.51,0,0,1-.25-.06l-2.59-1.5a.49.49,0,1,1,.49-.86l2.59,1.49a.5.5,0,0,1-.24.93Zm14.4-2.33a.5.5,0,0,1-.25-.93l2.59-1.5a.5.5,0,0,1,.5.87l-2.59,1.49A.45.45,0,0,1,154.26,240.46Zm-19.59-.66a.47.47,0,0,1-.25-.07l-2.59-1.49a.49.49,0,0,1-.18-.68.51.51,0,0,1,.68-.19l2.59,1.5a.5.5,0,0,1-.25.93Zm24.77-2.33a.5.5,0,0,1-.43-.25.5.5,0,0,1,.18-.68l2.6-1.5a.5.5,0,1,1,.49.87l-2.59,1.49A.45.45,0,0,1,159.44,237.47Zm-29.95-.66a.45.45,0,0,1-.25-.07l-2.59-1.49a.51.51,0,0,1-.18-.69.5.5,0,0,1,.68-.18l2.59,1.5a.5.5,0,0,1-.25.93Zm35.14-2.33a.51.51,0,0,1-.44-.25.5.5,0,0,1,.19-.68l2.59-1.5a.5.5,0,0,1,.5.86l-2.59,1.5A.47.47,0,0,1,164.63,234.48Zm-40.32-.66a.55.55,0,0,1-.25-.07l-1.73-1a.49.49,0,0,1,0-.86l.86-.5a.5.5,0,1,1,.5.86l-.11.07,1,.57a.5.5,0,0,1-.25.93Zm40.6-2.34a.54.54,0,0,1-.25-.06l-2.6-1.5a.5.5,0,0,1-.18-.68.49.49,0,0,1,.68-.18l2.6,1.49a.51.51,0,0,1,.18.69A.51.51,0,0,1,164.91,231.48ZM126,230.82a.5.5,0,0,1-.24-.93l2.59-1.49a.5.5,0,0,1,.68.18.5.5,0,0,1-.18.68l-2.6,1.5A.51.51,0,0,1,126,230.82Zm33.69-2.33a.47.47,0,0,1-.25-.07l-2.59-1.49a.5.5,0,0,1,.5-.86l2.59,1.49a.5.5,0,0,1-.25.93Zm-28.5-.66a.5.5,0,0,1-.25-.93l2.59-1.49a.5.5,0,0,1,.5.86l-2.59,1.49A.47.47,0,0,1,131.22,227.83Zm23.32-2.33a.47.47,0,0,1-.25-.07l-2.59-1.49a.5.5,0,0,1-.18-.68.5.5,0,0,1,.68-.19l2.59,1.5a.5.5,0,0,1-.25.93Zm-18.14-.66a.5.5,0,0,1-.25-.93l2.59-1.5a.5.5,0,0,1,.5.87l-2.59,1.49A.45.45,0,0,1,136.4,224.84Zm13-2.33a.45.45,0,0,1-.25-.07l-2.59-1.5a.5.5,0,1,1,.5-.86l2.59,1.5a.5.5,0,0,1-.25.93Zm-7.78-.66a.5.5,0,0,1-.25-.93l2.59-1.5a.5.5,0,1,1,.5.86l-2.59,1.5A.45.45,0,0,1,141.58,221.85Z"/><path class="cls-29" d="M178.35,291.33a.57.57,0,0,1-.25-.06l-2.59-1.5a.5.5,0,1,1,.5-.86l2.59,1.49a.5.5,0,0,1-.25.93Zm2.32-1.32a.5.5,0,0,1-.24-.93l2.6-1.49a.49.49,0,0,1,.68.19.51.51,0,0,1-.19.68l-2.6,1.48A.45.45,0,0,1,180.67,290Zm-7.5-1.67a.57.57,0,0,1-.25-.06l-2.59-1.5a.5.5,0,1,1,.5-.86l2.59,1.49a.5.5,0,0,1-.25.93Zm12.7-1.3a.5.5,0,0,1-.25-.93l2.6-1.49a.51.51,0,0,1,.68.19.49.49,0,0,1-.18.68l-2.6,1.48A.45.45,0,0,1,185.87,287ZM168,285.35a.45.45,0,0,1-.25-.07l-2.59-1.49a.5.5,0,0,1,.49-.87l2.6,1.5a.5.5,0,0,1,.18.68A.5.5,0,0,1,168,285.35Zm23.08-1.28a.51.51,0,0,1-.44-.25.5.5,0,0,1,.19-.68l2.6-1.49a.5.5,0,0,1,.49.87l-2.6,1.48A.42.42,0,0,1,191.07,284.07Zm-28.27-1.71a.47.47,0,0,1-.25-.07L160,280.8a.5.5,0,0,1,.5-.87l2.59,1.5a.51.51,0,0,1,.19.68A.51.51,0,0,1,162.8,282.36Zm32.55-1.26a.47.47,0,0,1-.25-.07l-2.59-1.5a.5.5,0,0,1,.5-.86l2.59,1.5a.5.5,0,0,1,.19.68A.51.51,0,0,1,195.35,281.1Zm-37.73-1.73a.47.47,0,0,1-.25-.07l-2.59-1.5a.5.5,0,0,1,.5-.86l2.59,1.5a.5.5,0,0,1-.25.93Zm32.55-1.26a.59.59,0,0,1-.25-.07l-2.59-1.5a.5.5,0,0,1,.5-.86l2.59,1.5a.5.5,0,0,1-.25.93Zm-37.73-1.73a.55.55,0,0,1-.25-.07l-2.59-1.5a.5.5,0,1,1,.5-.86l2.59,1.5a.5.5,0,0,1-.25.93ZM185,275.11a.54.54,0,0,1-.25-.06l-2.59-1.5a.5.5,0,1,1,.5-.86l2.59,1.49a.5.5,0,0,1,.18.68A.5.5,0,0,1,185,275.11Zm-37.74-1.73a.57.57,0,0,1-.25-.06l-2.59-1.5a.5.5,0,0,1,.5-.86l2.59,1.49a.51.51,0,0,1,.19.68A.51.51,0,0,1,147.25,273.38Zm32.55-1.26a.47.47,0,0,1-.25-.07L177,270.56a.5.5,0,0,1,.5-.86l2.59,1.49a.51.51,0,0,1,.19.68A.51.51,0,0,1,179.8,272.12Zm-37.73-1.73a.47.47,0,0,1-.25-.07l-2.59-1.49a.5.5,0,1,1,.5-.86l2.59,1.49a.5.5,0,0,1-.25.93Zm32.55-1.26a.47.47,0,0,1-.25-.07l-2.59-1.49a.5.5,0,0,1-.18-.68.5.5,0,0,1,.68-.19l2.59,1.5a.5.5,0,0,1-.25.93Zm-37.73-1.73a.45.45,0,0,1-.25-.07l-2.59-1.49a.51.51,0,0,1-.19-.68.52.52,0,0,1,.69-.19l2.59,1.5a.5.5,0,0,1-.25.93Zm32.55-1.26a.45.45,0,0,1-.25-.07l-2.59-1.49a.5.5,0,1,1,.5-.87l2.59,1.5a.5.5,0,0,1-.25.93Zm-37.73-1.73a.45.45,0,0,1-.25-.07l-2.6-1.5a.5.5,0,1,1,.5-.86l2.59,1.5a.5.5,0,0,1-.24.93Zm32.55-1.26a.43.43,0,0,1-.25-.07l-2.6-1.5a.5.5,0,0,1,.5-.86l2.59,1.5a.5.5,0,0,1-.24.93Zm-37.74-1.73a.59.59,0,0,1-.25-.07l-2.59-1.5a.5.5,0,0,1,.5-.86l2.59,1.5a.5.5,0,0,1-.25.93Zm32.55-1.27a.57.57,0,0,1-.25-.06l-2.59-1.5a.5.5,0,0,1,.5-.86l2.59,1.49a.5.5,0,0,1-.25.93Zm-37.73-1.73a.54.54,0,0,1-.25-.06l-2.59-1.5a.5.5,0,0,1,.5-.86l2.59,1.49a.5.5,0,0,1-.25.93Zm32.55-1.26a.54.54,0,0,1-.25-.06l-2.59-1.5a.5.5,0,0,1,.5-.86l2.59,1.49a.5.5,0,0,1-.25.93Zm-37.73-1.73a.54.54,0,0,1-.25-.06l-2.59-1.5a.51.51,0,0,1-.19-.68.5.5,0,0,1,.68-.18l2.6,1.49a.5.5,0,0,1,.18.68A.5.5,0,0,1,116.16,255.43Zm32.55-1.26a.45.45,0,0,1-.25-.07l-2.59-1.49a.49.49,0,1,1,.49-.86l2.59,1.49a.5.5,0,0,1-.24.93ZM111,252.44a.47.47,0,0,1-.25-.07l-2.59-1.49a.49.49,0,0,1-.18-.68.51.51,0,0,1,.68-.19l2.59,1.5a.5.5,0,0,1-.25.93Zm32.55-1.26a.47.47,0,0,1-.25-.07l-2.59-1.49a.5.5,0,0,1-.18-.68.51.51,0,0,1,.68-.19l2.59,1.5a.5.5,0,0,1-.25.93Zm-37.73-1.73a.47.47,0,0,1-.25-.07L103,247.89a.5.5,0,0,1,.5-.87l2.59,1.5a.5.5,0,0,1-.25.93Zm32.55-1.26a.47.47,0,0,1-.25-.07l-2.59-1.49a.51.51,0,0,1-.18-.69.5.5,0,0,1,.68-.18l2.59,1.5a.5.5,0,0,1-.25.93Zm-37.73-1.73a.45.45,0,0,1-.25-.07l-.59-.34a.5.5,0,0,1,0-.87l2-1.14a.5.5,0,0,1,.5.86l-1.28.74a.5.5,0,0,1-.38.82Zm32.55-1.26a.55.55,0,0,1-.25-.07l-2.59-1.5a.5.5,0,0,1-.19-.68.5.5,0,0,1,.68-.18l2.6,1.5a.5.5,0,0,1-.25.93Zm-28.54-1.71a.5.5,0,0,1-.44-.26.51.51,0,0,1,.19-.68l2.6-1.48a.5.5,0,1,1,.49.87l-2.6,1.48A.51.51,0,0,1,104.62,243.49ZM128,242.2a.57.57,0,0,1-.25-.06l-2.59-1.5a.5.5,0,0,1,.5-.86l2.59,1.49a.5.5,0,0,1-.25.93Zm-18.16-1.68a.5.5,0,0,1-.24-.93l2.59-1.49a.5.5,0,0,1,.5.87l-2.6,1.48A.45.45,0,0,1,109.81,240.52Zm13-1.31a.57.57,0,0,1-.25-.06l-2.59-1.5a.5.5,0,0,1,.5-.86l2.59,1.49a.5.5,0,0,1-.25.93ZM115,237.55a.5.5,0,0,1-.43-.25.51.51,0,0,1,.18-.69l2.46-1.4a.5.5,0,0,1,.5,0l.14.08a.5.5,0,0,1,.18.68.51.51,0,0,1-.55.24l-2.23,1.27A.47.47,0,0,1,115,237.55Z"/><path class="cls-29" d="M173.46,262.41a.42.42,0,0,1-.24-.07l-2.6-1.49a.51.51,0,0,1-.18-.69.5.5,0,0,1,.68-.18l2.34,1.35,1.2-.69a.5.5,0,0,1,.5.86l-1.45.84A.43.43,0,0,1,173.46,262.41Zm4-2.33a.51.51,0,0,1-.44-.25.5.5,0,0,1,.19-.68l2.59-1.5a.5.5,0,0,1,.5.86l-2.6,1.5A.42.42,0,0,1,177.51,260.08Zm-9.23-.66a.59.59,0,0,1-.25-.07l-2.59-1.5a.5.5,0,0,1,.5-.86l2.59,1.5a.5.5,0,0,1-.25.93Zm14.41-2.34a.5.5,0,0,1-.25-.93l2.59-1.49a.5.5,0,0,1,.5.86l-2.59,1.5A.57.57,0,0,1,182.69,257.08Zm-19.59-.66a.54.54,0,0,1-.25-.06l-2.59-1.5a.5.5,0,1,1,.5-.86l2.59,1.49a.5.5,0,0,1-.25.93Zm24.77-2.33a.5.5,0,0,1-.25-.93l2.59-1.49a.5.5,0,1,1,.5.86L188.12,254A.47.47,0,0,1,187.87,254.09Zm-30-.66a.45.45,0,0,1-.25-.07l-2.59-1.49a.51.51,0,0,1-.19-.68.5.5,0,0,1,.68-.18l2.6,1.49a.5.5,0,0,1,.18.68A.5.5,0,0,1,157.92,253.43Zm35.13-2.33a.5.5,0,0,1-.43-.25.5.5,0,0,1,.18-.68l2.6-1.5a.5.5,0,0,1,.68.19.51.51,0,0,1-.19.68L193.3,251A.45.45,0,0,1,193.05,251.1Zm-40.32-.66a.47.47,0,0,1-.25-.07l-1.72-1a.47.47,0,0,1-.25-.43.48.48,0,0,1,.25-.43l.86-.5a.5.5,0,0,1,.5.87l-.12.06,1,.57a.51.51,0,0,1,.19.68A.51.51,0,0,1,152.73,250.44Zm40.6-2.33a.47.47,0,0,1-.25-.07l-2.59-1.5a.5.5,0,1,1,.5-.86l2.59,1.5a.5.5,0,0,1-.25.93Zm-38.87-.66a.5.5,0,0,1-.25-.93l2.59-1.5a.5.5,0,1,1,.5.86l-2.59,1.5A.45.45,0,0,1,154.46,247.45Zm33.69-2.33a.55.55,0,0,1-.25-.07l-2.59-1.5a.5.5,0,0,1,.5-.86l2.59,1.49a.51.51,0,0,1,.18.69A.5.5,0,0,1,188.15,245.12Zm-28.51-.67a.49.49,0,0,1-.43-.24.51.51,0,0,1,.18-.69L162,242a.5.5,0,0,1,.68.18.5.5,0,0,1-.18.68l-2.6,1.5A.54.54,0,0,1,159.64,244.45ZM183,242.12a.54.54,0,0,1-.25-.06l-2.59-1.5a.5.5,0,1,1,.5-.86l2.59,1.49a.5.5,0,0,1,.18.68A.5.5,0,0,1,183,242.12Zm-18.14-.66a.5.5,0,0,1-.25-.93l2.59-1.49a.5.5,0,0,1,.5.86l-2.59,1.5A.57.57,0,0,1,164.83,241.46Zm12.95-2.33a.47.47,0,0,1-.25-.07l-2.59-1.49a.49.49,0,0,1-.18-.68.51.51,0,0,1,.68-.19l2.59,1.5a.51.51,0,0,1,.19.68A.51.51,0,0,1,177.78,239.13Zm-7.77-.66a.5.5,0,0,1-.25-.93l2.59-1.5a.5.5,0,0,1,.5.87l-2.59,1.49A.47.47,0,0,1,170,238.47Z"/><path class="cls-29" d="M201.06,278.37a.55.55,0,0,1-.25-.07l-2.59-1.5a.5.5,0,0,1,.5-.86l2.34,1.35,1.2-.69a.5.5,0,0,1,.5.86l-1.45.84A.55.55,0,0,1,201.06,278.37Zm4-2.33a.5.5,0,0,1-.25-.93l2.59-1.5a.5.5,0,1,1,.5.86l-2.59,1.5A.59.59,0,0,1,205.1,276Zm-9.22-.67a.54.54,0,0,1-.25-.06l-2.59-1.5a.5.5,0,1,1,.5-.86l2.59,1.49a.51.51,0,0,1,.18.69A.49.49,0,0,1,195.88,275.37Zm14.4-2.33a.5.5,0,0,1-.25-.93l2.59-1.49a.5.5,0,1,1,.5.86l-2.59,1.5A.54.54,0,0,1,210.28,273Zm-19.59-.66a.5.5,0,0,1-.24-.06l-2.6-1.5a.5.5,0,0,1-.18-.68.5.5,0,0,1,.68-.18l2.59,1.49a.51.51,0,0,1,.19.68A.51.51,0,0,1,190.69,272.38Zm24.77-2.33a.5.5,0,0,1-.43-.25.51.51,0,0,1,.19-.68l2.59-1.5a.5.5,0,0,1,.5.87l-2.6,1.49A.43.43,0,0,1,215.46,270.05Zm-30-.66a.47.47,0,0,1-.25-.07l-2.59-1.49a.5.5,0,0,1-.18-.68.51.51,0,0,1,.68-.19l2.59,1.5a.5.5,0,0,1-.25.93Zm35.14-2.33a.5.5,0,0,1-.25-.93l2.59-1.5a.5.5,0,0,1,.5.87L220.9,267A.47.47,0,0,1,220.65,267.06Zm-40.32-.66a.47.47,0,0,1-.25-.07l-1.73-1a.49.49,0,0,1,0-.86l.87-.5a.5.5,0,0,1,.5.86l-.12.07,1,.57a.5.5,0,0,1-.25.93Zm40.6-2.33a.55.55,0,0,1-.25-.07l-2.59-1.5a.5.5,0,1,1,.5-.86l2.59,1.5a.5.5,0,0,1-.25.93Zm-38.87-.66a.5.5,0,0,1-.25-.93l2.59-1.5a.5.5,0,0,1,.5.86l-2.59,1.5A.59.59,0,0,1,182.06,263.41Zm33.69-2.34a.51.51,0,0,1-.25-.06l-2.6-1.5a.5.5,0,0,1-.18-.68.5.5,0,0,1,.68-.18l2.59,1.49a.5.5,0,0,1-.24.93Zm-28.51-.66a.5.5,0,0,1-.25-.93l2.59-1.49a.5.5,0,1,1,.5.86l-2.59,1.5A.57.57,0,0,1,187.24,260.41Zm23.32-2.33a.47.47,0,0,1-.25-.07l-2.59-1.49a.5.5,0,1,1,.5-.86l2.59,1.49a.5.5,0,0,1-.25.93Zm-18.14-.66a.5.5,0,0,1-.25-.93l2.59-1.5a.52.52,0,0,1,.69.19.51.51,0,0,1-.19.68l-2.59,1.49A.45.45,0,0,1,192.42,257.42Zm13-2.33a.45.45,0,0,1-.25-.07l-2.59-1.49a.5.5,0,0,1,.5-.87l2.59,1.5a.5.5,0,0,1-.25.93Zm-7.77-.66a.51.51,0,0,1-.44-.25.51.51,0,0,1,.19-.68L200,252a.5.5,0,0,1,.68.18.51.51,0,0,1-.18.69l-2.59,1.49A.47.47,0,0,1,197.61,254.43Z"/><path class="cls-36" d="M247.57,170.14l-2.11.05c-.18,0-.39-.29-.36-.5l.4-2.47a.42.42,0,0,0-.07-.29l-1.7-2.89c-.15-.25-.07-.49.13-.41l2.36,1a.15.15,0,0,0,.19,0l1.05-1.84c.1-.16.36,0,.45.25L249,166a.63.63,0,0,0,.19.26l2.36,1.75c.2.16.28.49.14.57l-1.71.92c-.06,0-.08.11-.07.21l.4,2.93c0,.26-.18.31-.36.09l-2.11-2.49A.34.34,0,0,0,247.57,170.14Z"/><path class="cls-37" d="M255.84,174.89l-2.11.06c-.18,0-.4-.3-.36-.51l.4-2.47a.48.48,0,0,0-.07-.29L252,168.79c-.15-.25-.06-.49.14-.41l2.36,1a.15.15,0,0,0,.19,0l1-1.84c.09-.16.35,0,.45.25l1.05,3.07a.63.63,0,0,0,.19.26l2.36,1.76c.2.15.28.48.13.56l-1.7.92a.19.19,0,0,0-.07.21l.4,2.93c0,.26-.18.31-.36.1l-2.11-2.5A.34.34,0,0,0,255.84,174.89Z"/><path class="cls-38" d="M264.1,179.64l-2.11.06c-.18,0-.39-.3-.36-.51l.41-2.46a.57.57,0,0,0-.07-.3l-1.71-2.89c-.15-.25-.07-.49.14-.41l2.36,1a.13.13,0,0,0,.18,0l1.06-1.84c.09-.16.35,0,.44.25l1.06,3.07a.53.53,0,0,0,.18.26l2.36,1.76c.21.15.29.48.14.56l-1.71.92a.22.22,0,0,0-.07.22l.41,2.92c0,.26-.18.31-.36.1l-2.12-2.49A.31.31,0,0,0,264.1,179.64Z"/><path class="cls-39" d="M272.37,184.39l-2.11.06c-.18,0-.39-.3-.36-.51l.4-2.46a.43.43,0,0,0-.07-.3l-1.7-2.89c-.15-.25-.07-.49.13-.41l2.36,1a.14.14,0,0,0,.19,0l1.05-1.84c.09-.16.36,0,.45.26l1.05,3.06a.63.63,0,0,0,.19.26l2.36,1.76c.2.15.28.48.14.56l-1.71.93a.18.18,0,0,0-.07.21l.4,2.93c0,.25-.18.3-.36.09l-2.11-2.49A.32.32,0,0,0,272.37,184.39Z"/><path class="cls-40" d="M280.64,189.14l-2.11.06c-.18,0-.4-.3-.36-.51l.4-2.46a.49.49,0,0,0-.07-.3L276.79,183c-.15-.25-.06-.49.14-.41l2.36,1a.14.14,0,0,0,.19,0l1-1.84c.09-.16.35,0,.45.26l1,3.06a.63.63,0,0,0,.19.26l2.36,1.76c.2.15.28.48.13.56l-1.7.93a.18.18,0,0,0-.07.21l.4,2.93c0,.25-.18.3-.36.09l-2.11-2.49A.32.32,0,0,0,280.64,189.14Z"/><path class="cls-29" d="M226.68,203.14l13.76,1.67L234.06,192A60.41,60.41,0,0,1,226.68,203.14Z"/><path class="cls-41" d="M189.89,238.08l2.5-1.44-5-2.92-2.51,1.45Zm21,3L182.63,224.8l-2.5,1.45,28.28,16.33Zm-9.74-8.94,2.51-1.44-9-5.2L192.16,227ZM215,231.08l-20.27-11.7-2.5,1.44,20.26,11.71Zm-52.58-8.86,20.27,11.7,2.51-1.44-20.27-11.7Zm7.32-8.18L190,225.75l2.51-1.45-20.27-11.7Zm60.91,38.48-17.56-10.14-2.51,1.44L228.13,254Zm10.08-12.79L212.43,223.4l-2.5,1.45,28.28,16.33Zm-30.45-17.58L190,210.45l-2.51,1.45,20.27,11.7Zm6.88,10.18-2.5,1.44,5,2.92,2.51-1.45Zm-.17,18.5-22.43-13-2.5,1.45,22.43,12.95Zm-13.65-17.39,17.11,9.88,2.51-1.44L205.84,232Zm19.28,11.13,18.31,10.58,2.51-1.45-18.32-10.58Zm7.69,10.64,5.25,3,2.51-1.45-5.26-3Zm-67.54-35.68-9-5.19-2.5,1.45,9,5.18ZM242.88,241l-2.51,1.45,11.29,6.51,2.51-1.44Zm3.91,8.46-22.43-12.95-2.51,1.44,22.43,12.95ZM187.84,209.2l-12.58-7.26-2.5,1.45,12.58,7.26Zm-7.37,14.35-21.32-12.31-2.5,1.45L178,225Zm-10.39-12.2-5.56-3.21-2.5,1.45,5.55,3.21Zm22.48,6.78L169.89,205l-2.5,1.45,22.67,13.09Z"/><path class="cls-29" d="M167,304.93a.43.43,0,0,1-.25-.07l-.85-.49a.5.5,0,0,1,.5-.86l.6.35a25.8,25.8,0,0,0,2.22-1.44.5.5,0,1,1,.59.8,25.26,25.26,0,0,1-2.57,1.65A.5.5,0,0,1,167,304.93Zm-3.44-2a.47.47,0,0,1-.25-.07l-2.58-1.51a.5.5,0,0,1,.5-.86l2.59,1.51a.5.5,0,0,1,.17.68A.48.48,0,0,1,163.57,302.93Zm8.2-1.59a.5.5,0,0,1-.34-.13.49.49,0,0,1,0-.7c.63-.7,1.29-1.55,1.85-2.29a.5.5,0,0,1,.8.6c-.58.76-1.25,1.63-1.92,2.36A.46.46,0,0,1,171.77,301.34Zm-13.36-1.43a.48.48,0,0,1-.26-.07l-2.58-1.51a.5.5,0,0,1,.5-.86l2.59,1.51a.51.51,0,0,1,.18.68A.51.51,0,0,1,158.41,299.91Zm-5.17-3a.51.51,0,0,1-.25-.06l-2.59-1.51a.5.5,0,0,1,.5-.86l2.59,1.5a.51.51,0,0,1,.18.69A.52.52,0,0,1,153.24,296.89Zm22.17-.26a.45.45,0,0,1-.25-.07l-2.6-1.48a.49.49,0,0,1-.18-.68.5.5,0,0,1,.68-.19l2.6,1.48a.51.51,0,0,1,.18.69A.5.5,0,0,1,175.41,296.63Zm-27.34-2.75a.45.45,0,0,1-.25-.07l-2.59-1.51a.5.5,0,1,1,.51-.86l2.58,1.51a.5.5,0,0,1-.25.93Zm22.14-.22a.57.57,0,0,1-.25-.06l-2.6-1.49a.5.5,0,0,1-.18-.68.49.49,0,0,1,.68-.18l2.6,1.48a.5.5,0,0,1-.25.93Zm-27.31-2.8a.45.45,0,0,1-.25-.07l-2.59-1.51a.5.5,0,0,1-.17-.68.49.49,0,0,1,.68-.18l2.58,1.51a.5.5,0,0,1-.25.93ZM165,290.7a.51.51,0,0,1-.24-.07l-2.6-1.48a.5.5,0,0,1-.19-.68.51.51,0,0,1,.68-.19l2.6,1.48a.51.51,0,0,1,.19.68A.5.5,0,0,1,165,290.7Zm-27.28-2.86a.47.47,0,0,1-.25-.07l-2.58-1.5a.51.51,0,0,1-.18-.69.49.49,0,0,1,.68-.17l2.58,1.5a.5.5,0,0,1-.25.93Zm22.08-.11a.44.44,0,0,1-.24-.07l-2.6-1.48a.5.5,0,0,1,.49-.87l2.6,1.49a.5.5,0,0,1-.25.93Zm-27.25-2.9a.59.59,0,0,1-.25-.07l-2.58-1.51a.5.5,0,1,1,.5-.86l2.58,1.51a.5.5,0,0,1-.25.93Zm22.06-.07a.54.54,0,0,1-.25-.06l-2.6-1.48a.52.52,0,0,1-.19-.69.51.51,0,0,1,.69-.18l2.59,1.48a.5.5,0,0,1-.24.93Zm-27.23-2.95a.47.47,0,0,1-.25-.07l-2.29-1.34a.48.48,0,0,1-.25-.43.51.51,0,0,1,.24-.43l.29-.17a.5.5,0,0,1,.75.48l1.77,1a.5.5,0,0,1,.17.68A.48.48,0,0,1,127.39,281.81Zm22,0a.45.45,0,0,1-.25-.07l-2.6-1.48a.49.49,0,0,1-.18-.68.5.5,0,0,1,.68-.19l2.6,1.49a.5.5,0,0,1-.25.93Zm-5.2-3a.57.57,0,0,1-.25-.06l-2.6-1.49a.5.5,0,0,1-.18-.68.49.49,0,0,1,.68-.18l2.6,1.48a.5.5,0,0,1-.25.93Zm-16.38-.24a.48.48,0,0,1-.39-.19.5.5,0,0,1,.08-.7l.42-.34a14.13,14.13,0,0,0,1.62-1.69.51.51,0,0,1,.71-.07.49.49,0,0,1,.06.7,14.78,14.78,0,0,1-1.75,1.82l-.44.36A.45.45,0,0,1,127.84,278.59ZM139,275.87a.51.51,0,0,1-.24-.07l-2.6-1.48a.5.5,0,0,1-.19-.68.51.51,0,0,1,.68-.19l2.6,1.48a.51.51,0,0,1,.19.68A.5.5,0,0,1,139,275.87Zm-7.23-1.75a.49.49,0,0,1-.3-.1.48.48,0,0,1-.1-.69l.3-.41c.32-.44.63-.85.95-1.27a.5.5,0,0,1,.64-.13l.79.45a.5.5,0,0,1,.19.68.49.49,0,0,1-.68.18l-.41-.23-.65.88-.33.44A.51.51,0,0,1,131.79,274.12Z"/><path class="cls-42" d="M355.77,295.65l-32.44-18.73a8,8,0,0,0-7.19,0l-19,11c-2,1.14-2,3,0,4.15l20.27,11.7.07,11.67,10.07-5.82,2,1.17a7.93,7.93,0,0,0,7.18,0l19-11C357.77,298.66,357.76,296.8,355.77,295.65Z"/><path class="Graphic-Style-177" d="M354.93,297.26v-4.14l-3.2,1.27-28.86-16.67a7.54,7.54,0,0,0-6.8,0l-17,9.81-2.38-1.78v4.18a2.31,2.31,0,0,0,1.4,2.1l19.16,11.07.06,11,9.53-5.5,1.91,1.11a7.54,7.54,0,0,0,6.8,0l18-10.39A2.27,2.27,0,0,0,354.93,297.26Z"/><path class="Graphic-Style-175" d="M353.54,291l-30.67-17.7a7.51,7.51,0,0,0-6.8,0l-18,10.39c-1.87,1.08-1.86,2.84,0,3.92l19.17,11.07.06,11,9.53-5.5,1.91,1.11a7.51,7.51,0,0,0,6.8,0l18-10.39C355.43,293.84,355.42,292.09,353.54,291Z"/><path class="cls-18" d="M321.33,284.63c0,1.15-1.6,2.08-3.59,2.07s-3.61-.93-3.62-2.08,1.61-2.08,3.6-2.08S321.32,283.48,321.33,284.63Z"/><path class="cls-18" d="M329.64,289.43c0,1.15-1.6,2.07-3.59,2.07s-3.61-.94-3.62-2.09,1.6-2.07,3.59-2.07S329.63,288.28,329.64,289.43Z"/><ellipse class="cls-18" cx="334.34" cy="294.22" rx="2.08" ry="3.6" transform="translate(38.32 626.96) rotate(-89.69)"/><polygon class="cls-43" points="326.86 304.19 326.86 308.62 317.33 314.12 317.33 309.69 326.86 304.19"/><path class="cls-44" d="M353.56,294.74l-18,10.39a7.51,7.51,0,0,1-6.8,0l-1.91-1.1-9.53,5.5-.06-11-19.16-11.06a2.68,2.68,0,0,1-1.35-1.52c-.25.86.19,1.77,1.35,2.44l19.16,11.07.06,11,9.53-5.5,1.91,1.11a7.54,7.54,0,0,0,6.8,0l18-10.39c1.13-.65,1.56-1.55,1.32-2.4A2.7,2.7,0,0,1,353.56,294.74Z"/><path class="Graphic-Style-177" d="M354.93,292.64V288.5l-3.2,1.26L322.87,273.1a7.51,7.51,0,0,0-6.8,0l-17,9.8-2.38-1.77v4.18a2.31,2.31,0,0,0,1.4,2.1l19.16,11.06.06,11,9.53-5.5,1.91,1.1a7.51,7.51,0,0,0,6.8,0l18-10.39A2.27,2.27,0,0,0,354.93,292.64Z"/><path class="Graphic-Style-175" d="M353.54,286.38l-30.67-17.71a7.54,7.54,0,0,0-6.8,0l-18,10.39c-1.87,1.08-1.86,2.84,0,3.92L317.27,294l.06,11,9.53-5.5,1.91,1.11a7.54,7.54,0,0,0,6.8,0l18-10.39C355.43,289.22,355.42,287.47,353.54,286.38Z"/><path class="cls-18" d="M321.33,280c0,1.15-1.6,2.08-3.59,2.07s-3.61-.93-3.62-2.08,1.61-2.08,3.6-2.08S321.32,278.86,321.33,280Z"/><path class="cls-18" d="M329.64,284.81c0,1.14-1.6,2.07-3.59,2.07s-3.61-.94-3.62-2.09,1.6-2.07,3.59-2.07S329.63,283.66,329.64,284.81Z"/><path class="cls-18" d="M337.94,289.6c0,1.15-1.6,2.08-3.59,2.08s-3.61-.94-3.61-2.09,1.6-2.08,3.59-2.08S337.94,288.45,337.94,289.6Z"/><polygon class="cls-45" points="326.86 299.57 326.86 304 317.33 309.5 317.33 305.07 326.86 299.57"/><path class="cls-46" d="M353.56,290.12l-18,10.39a7.51,7.51,0,0,1-6.8,0l-1.91-1.1-9.53,5.5-.06-11-19.16-11.06a2.71,2.71,0,0,1-1.35-1.52c-.25.86.19,1.77,1.35,2.44l19.16,11.07.06,11,9.53-5.5,1.91,1.11a7.54,7.54,0,0,0,6.8,0l18-10.39c1.13-.65,1.56-1.55,1.32-2.4A2.7,2.7,0,0,1,353.56,290.12Z"/><path class="Graphic-Style-177" d="M354.93,287.91v-4.14l-3.2,1.27-28.86-16.66a7.51,7.51,0,0,0-6.8,0l-17,9.81-2.38-1.78v4.18a2.3,2.3,0,0,0,1.4,2.1l19.16,11.07.06,11,9.53-5.5,1.91,1.11a7.51,7.51,0,0,0,6.8,0l18-10.39A2.26,2.26,0,0,0,354.93,287.91Z"/><path class="Graphic-Style-175" d="M353.54,281.66,322.87,264a7.51,7.51,0,0,0-6.8,0l-18,10.38c-1.87,1.08-1.86,2.84,0,3.93l19.17,11.06.06,11,9.53-5.49,1.91,1.1a7.51,7.51,0,0,0,6.8,0l18-10.38C355.43,284.5,355.42,282.74,353.54,281.66Z"/><path class="cls-18" d="M321.33,275.28c0,1.15-1.6,2.08-3.59,2.08s-3.61-.94-3.62-2.09,1.61-2.08,3.6-2.07S321.32,274.14,321.33,275.28Z"/><path class="cls-18" d="M329.64,280.08c0,1.15-1.6,2.08-3.59,2.07s-3.61-.93-3.62-2.08S324,278,326,278,329.63,278.93,329.64,280.08Z"/><path class="cls-18" d="M337.94,284.88c0,1.14-1.6,2.07-3.59,2.07s-3.61-.94-3.61-2.09,1.6-2.08,3.59-2.07S337.94,283.73,337.94,284.88Z"/><polygon class="cls-47" points="326.86 294.85 326.86 299.27 317.33 304.77 317.33 300.34 326.86 294.85"/><path class="cls-48" d="M353.56,285.39l-18,10.39a7.54,7.54,0,0,1-6.8,0l-1.91-1.11-9.53,5.5-.06-11-19.16-11.07a2.68,2.68,0,0,1-1.35-1.52c-.25.86.19,1.78,1.35,2.44l19.16,11.07.06,11,9.53-5.5,1.91,1.11a7.51,7.51,0,0,0,6.8,0l18-10.38c1.13-.66,1.56-1.56,1.32-2.41A2.7,2.7,0,0,1,353.56,285.39Z"/><polygon class="cls-49" points="151.99 228.82 149.09 225.63 106.27 202.69 107.08 201.78 103.08 198.88 101.64 203.1 101.23 205.63 151.99 228.82"/><path class="cls-50" d="M152,228.82h0a3.48,3.48,0,0,1-4.7,1.41l-46.06-24.6s2.87-2.45,2.9-2.44Z"/><path class="cls-51" d="M151.37,229.43l-47.86-25.62s-1.36,1.13-2.21,1.85l-.07,0s2.87-2.45,2.9-2.44L152,228.82a3.49,3.49,0,0,1-1,1.1A2.8,2.8,0,0,0,151.37,229.43Z"/><path class="cls-52" d="M210.7,251.31c1.32.71,5.41,1.73,6.12.42s-2.24-4.46-3.56-5.17a2.7,2.7,0,0,0-2.56,4.75Z"/><path class="cls-53" d="M187.47,246.33c-6.95-3.65,2.34-21.56,9.93-17.16s16,15.79,16,15.79h0c1,1.18,1.2,2.69.15,4.64s-1.93,2.5-4,2.42h0S194.42,250,187.47,246.33Z"/><path class="cls-54" d="M192.55,233.65c-6.17-4.85-3.36-8.91,3.48-3.43S212,244.79,212,244.79l0,0c1.06,1,1.57,1.79,1.23,2.22s-.88.27-2.44-.68l0,0S198.73,238.5,192.55,233.65Z"/><path class="cls-55" d="M189.71,246c-6.45-1.92-5.86-4.82,1.33-2.62s17.42,6.2,17.42,6.2h0c1.17.44,1.84.83,1.75,1.14s-.56.31-2.09,0h0S196.16,247.94,189.71,246Z"/><path class="cls-56" d="M170.24,237.3l9.51-17.65,17.79,9.5h0l.08,0c2.83,1.52,3,6.72.38,11.59s-7.06,7.59-9.89,6.06l-.07-.05h0Z"/><path class="cls-57" d="M170.28,237.32c2.84,1.53,7.27-1.18,9.89-6.06s2.46-10.06-.38-11.59-7.27,1.18-9.9,6.05S167.44,235.79,170.28,237.32Z"/><path class="cls-58" d="M105.34,202.43l9.51-17.65,65,35h0l.07,0c2.84,1.53,3,6.72.39,11.6s-7.06,7.58-9.9,6l-.07,0h0Z"/><path class="cls-59" d="M105.38,202.45c2.83,1.53,7.26-1.18,9.89-6s2.46-10.07-.38-11.6-7.27,1.18-9.9,6.06S102.54,200.92,105.38,202.45Z"/><path class="cls-60" d="M114.86,196.31c2.63-4.87,2.45-10.06-.38-11.59l-.2-.09a3.53,3.53,0,0,1,.94.34c2.83,1.52,3,6.72.38,11.59s-6.86,7.45-9.7,6.14C108.71,203.3,112.51,200.68,114.86,196.31Z"/><path class="cls-61" d="M95,194.8l8.07-15,10.09,5.59h0l.06,0c2.41,1.29,2.56,5.7.33,9.83s-6,6.44-8.4,5.14l0,0h0Z"/><path class="cls-62" d="M95,194.82c2.41,1.29,6.17-1,8.39-5.14s2.09-8.54-.32-9.84-6.17,1-8.4,5.14S92.58,193.52,95,194.82Z"/><path class="cls-63" d="M103.06,189.51c2-3.77,2.08-7.75.25-9.41l.16.07c2.41,1.3,2.55,5.7.32,9.84s-6,6.43-8.39,5.13a2.68,2.68,0,0,1-.58-.42C97.23,195.84,100.87,193.56,103.06,189.51Z"/><path class="cls-64" d="M121.6,189l75.31,40.89a7.41,7.41,0,0,1,.85.63c7.32,4.75,15.61,14.49,15.61,14.49h0c1,1.18,1.2,2.69.15,4.64s-1.93,2.5-4,2.42h0s-12.68-1.7-20.16-4.79a3.49,3.49,0,0,1-1.31-.39l-.07-.05h0l-75.78-40.61Z"/><path class="cls-65" d="M132.54,297l66.06-39.4s.55-.31.78-.4a110.54,110.54,0,0,1,15.25-6.48h0c1.06-.36,1.59-.06,1.32,1.2s-.78,2-2.29,3.36h0s-9.77,8.09-16.08,12.28a8.75,8.75,0,0,1-1.07.78l-.07,0h0L137.7,299.91Z"/><path class="cls-66" d="M178.13,272l29.63-17.67s.25-.14.35-.18a49.75,49.75,0,0,1,6.84-2.91h0c.47-.16.24,1.44-.44,2h0s-4.39,3.63-7.22,5.51a4.85,4.85,0,0,1-.48.35h0L177,277Z"/><ellipse class="cls-67" cx="138.7" cy="203.51" rx="3.11" ry="23.86" transform="translate(-105.97 231.68) rotate(-62.29)"/></g></g></g></svg>