<svg xmlns="http://www.w3.org/2000/svg" viewBox="0 0 100 100"><defs><style>.cls-1{fill:#004fac;}.cls-2{fill:#003f8a;}.cls-3{fill:#fff;}</style></defs><title>facebook</title><g id="Capa_2" data-name="Capa 2"><g id="Capa_1-2" data-name="Capa 1"><circle class="cls-1" cx="50" cy="50" r="50" transform="translate(-0.4 0.4) rotate(-0.45)"/><path class="cls-2" d="M99.92,47.21,76.37,23.65c-.39.12-1.36-.34-1.79-.25-10.1,1.68-19.87,0-29.63,2.69-4.71,1.35-5.05,7.07-6.73,10.78-2.36,6.73-2,14.14-5.06,20.54-2,4.37-6.73,7.07-8.41,12.12-.56,2.1-.53,4.76-1.17,6.77L47.21,99.92c.93,0,1.85.08,2.79.08a50,50,0,0,0,50-50C100,49.06,100,48.13,99.92,47.21Z"/><path class="cls-3" d="M70.91,21.38H29.09a7.71,7.71,0,0,0-7.71,7.71V70.91a7.71,7.71,0,0,0,7.71,7.71H49.72l0-20.45H44.44a1.27,1.27,0,0,1-1.26-1.25l0-6.6a1.25,1.25,0,0,1,1.25-1.26h5.31V42.69c0-7.39,4.51-11.41,11.11-11.41h5.41a1.25,1.25,0,0,1,1.25,1.25v5.56a1.25,1.25,0,0,1-1.25,1.25H62.92c-3.59,0-4.28,1.71-4.28,4.21v5.52h7.88a1.25,1.25,0,0,1,1.24,1.4L67,57.06a1.25,1.25,0,0,1-1.24,1.11H58.67l0,20.45H70.91a7.71,7.71,0,0,0,7.71-7.71V29.09a7.71,7.71,0,0,0-7.71-7.71Z"/><polygon class="cls-3" points="49.72 78.62 49.75 58.17 49.66 58.17 49.66 78.62 49.72 78.62"/></g></g></svg>