<?xml version="1.0" encoding="utf-8"?>
<!-- Generator: Adobe Illustrator 24.0.1, SVG Export Plug-In . SVG Version: 6.00 Build 0)  -->
<svg version="1.1" id="Layer_1" xmlns="http://www.w3.org/2000/svg" xmlns:xlink="http://www.w3.org/1999/xlink" x="0px" y="0px"
	 viewBox="0 0 512 512" style="enable-background:new 0 0 512 512;" xml:space="preserve">
<style type="text/css">
	.st0{fill:#BB30BB;}
	.st1{fill:#F9A24B;}
	.st2{fill:#FFFFFF;}
	.st3{fill:#6C147A;}
	.st4{fill:#BC80BC;}
	.st5{fill:#1C2833;}
	.st6{fill:#9B26B5;}
</style>
<g>
	<path class="st0" d="M438,256.6c0,13.2-1.4,26-4.1,38.4c-7.6,35.7-25.7,67.6-50.8,92.2c-12.1,11.9-26,22.1-41,30.3
		c-15.4,8.3-32.1,14.5-49.7,18.2c-12,2.5-24.5,3.8-37.3,3.8c-3.1,0-6.1-0.1-9.1-0.2c-34.5-1.7-66.4-12.9-93.3-31.1
		c-8.4-5.7-16.3-12.1-23.6-19c-8-7.7-15.4-16-21.9-25c-21.9-30.1-34.8-67-34.9-107c0-0.8,0-1.7,0-2.5c0-0.7,0-1.4,0-2.1
		c0-0.6,0-1.2,0-1.8c1.3-41,16.2-78.6,40.2-108.5c4.6-5.8,9.6-11.2,14.9-16.4c23.3-22.7,52.6-39.3,85.3-47.1
		c9.2-2.2,18.7-3.7,28.3-4.4c4.6-0.4,9.3-0.5,14.1-0.5c31.6,0,61.3,8,87.2,22.1c7.9,4.3,15.4,9.1,22.5,14.4
		c6.9,5.2,13.4,10.8,19.5,16.9c3,3,5.9,6.1,8.6,9.2c13.2,15.1,24,32.4,31.6,51.3C433.3,209,438,232.2,438,256.6z"/>
	<path class="st1" d="M427.7,195.9c-29.5,39.3-66.2,81.6-108.2,123.6c-42.4,42.4-85.1,79.4-124.7,109c-0.2,0.2-0.5,0.4-0.7,0.5
		c-12.5-4.4-24.3-10.1-35.4-17c0.2-0.1,0.5-0.2,0.7-0.4l0,0l0.1-0.1c40-21.9,90.7-61.2,140.8-111.2c49.6-49.6,88.6-99.7,110.6-139.6
		c5.3,8.5,9.9,17.6,13.7,27C425.7,190.4,426.7,193.1,427.7,195.9z"/>
	<g>
		<path class="st2" d="M340.8,121.9c-1,0-2-0.3-2.8-0.8c-6.3-4-13-7.5-19.8-10.5c-2.7-1.2-3.9-4.4-2.7-7.1c1.2-2.7,4.4-3.9,7.1-2.7
			c7.3,3.2,14.4,7,21.2,11.2c2.5,1.6,3.3,4.9,1.7,7.4C344.4,121.1,342.6,121.9,340.8,121.9z"/>
		<path class="st2" d="M365.6,376.8c-1.4,0-2.9-0.6-3.9-1.7c-2-2.2-1.9-5.6,0.3-7.6c31.5-29.5,49.5-71,49.5-114
			c0-43.2-17.3-83.4-48.8-113.3c-2.1-2-2.2-5.4-0.2-7.6c2-2.1,5.4-2.2,7.6-0.2c33.6,31.9,52.1,74.9,52.1,121
			c0,45.9-19.3,90.3-52.9,121.8C368.2,376.3,366.9,376.8,365.6,376.8z"/>
		<path class="st2" d="M343.1,394.4c-1.8,0-3.5-0.9-4.5-2.4c-1.6-2.5-0.9-5.8,1.6-7.4c2.7-1.8,5.4-3.7,8.1-5.6
			c2.4-1.8,5.7-1.3,7.5,1.1s1.3,5.7-1.1,7.5c-2.8,2.1-5.7,4.1-8.6,6C345.1,394.1,344.1,394.4,343.1,394.4z"/>
	</g>
	<path class="st3" d="M384.3,127.2c-6.1-6.1-12.6-11.7-19.5-16.9c-7.1-5.3-14.7-10.2-22.5-14.4c0.4,0.6,0.8,1.2,1.3,1.8
		c11.4,11.3,5.4,38-13.5,72.5l-0.1,0.1c-0.2,0.4-0.4,0.8-0.7,1.2c-22,39.8-61,90-110.6,139.6c-8.7,8.7-17.4,17.1-26.1,25.1
		c-8.8,8.1-23,5.3-28-5.6c-10.6-23.2-16.6-49-16.6-76.1c0-49.3,19.5-94.1,51.3-127c17.5-18.1,38.7-32.6,62.4-42.3
		c9.9-4,20.2-7.2,30.9-9.5c-12.4-2.6-25.2-4-38.3-4c-24.5,0-47.8,4.8-69.2,13.5c-23.7,9.7-44.9,24.2-62.4,42.3
		c-31.8,32.9-51.3,77.7-51.3,127c0,52.9,22.5,100.6,58.4,134c-0.3,0.2-0.6,0.5-0.9,0.7c7.3,7,15.2,13.3,23.6,19
		c0.4-0.3,0.8-0.6,1.1-0.9c12.3,8.1,25.5,14.8,39.6,19.7c19.1,6.7,39.6,10.4,61,10.4c13.1,0,25.9-1.4,38.3-4
		c-7.7-1.7-15.3-3.8-22.6-6.4c-21.4-7.6-41-19-57.9-33.4c-0.9-0.8-1.8-1.6-2.7-2.4c-9.8-8.7-9.8-24-0.3-33
		c9.6-9,19.2-18.3,28.7-27.9c42-42,78.7-84.3,108.2-123.6c0.3-0.4,0.5-0.7,0.8-1.1c18.3-24.4,33.7-47.7,46-69.1
		C390.2,133.2,387.3,130.2,384.3,127.2z"/>
	<path class="st4" d="M498.3,13.6c-24-24-95.5,5.9-181.1,69.8l-0.8,0.8c12.4,4.4,24.2,10.1,35.2,17l0.9-0.9
		c34.6-18.9,61.2-24.8,72.5-13.5c11.4,11.3,5.4,38-13.5,72.5l-0.1,0.1c-0.2,0.4-0.4,0.8-0.7,1.2c-22,39.8-61,90-110.6,139.6
		c-50.1,50.1-100.7,89.3-140.8,111.2l-0.1,0.1l0,0c-0.2,0.1-0.5,0.3-0.7,0.4c-8.5,4.6-16.4,8.4-23.8,11.4
		c-22.5,9.1-39.5,10.2-48,1.7c-11.3-11.3-5.5-37.5,13.1-71.8c-6.9-11-12.6-22.9-17.1-35.3c-63.5,85.2-93.1,156.4-69.2,180.3
		c18.6,18.6,65.7,4.9,125.8-32l0,0c17.3-10.6,35.6-23.1,54.6-37.3c0.2-0.2,0.5-0.4,0.7-0.5c39.7-29.6,82.3-66.6,124.7-109
		c42-42,78.7-84.3,108.2-123.6c0.3-0.4,0.5-0.7,0.8-1.1C492.5,109.2,522.3,37.6,498.3,13.6z"/>
	<path class="st5" d="M256,444.5c-21.7,0-42.9-3.6-63.2-10.8l3.6-10.1c19.1,6.8,39.1,10.2,59.6,10.2c98,0,177.8-79.8,177.8-177.8
		c0-20.4-3.4-40.5-10.2-59.6l-0.3-0.9v-0.9h5.4l5-1.8c7.2,20.2,10.8,41.5,10.8,63.2C444.5,360,360,444.5,256,444.5z"/>
	<path class="st5" d="M37.7,512c-11.9,0-21.2-3.3-27.8-9.9c-13.4-13.4-13.1-38,0.7-73.2c12.7-32,36.5-71.8,68.7-114.9l8.6,6.4
		C56.2,362.8,33,401.7,20.7,432.8c-11.8,30-12.9,51.9-3.1,61.7c9.8,9.8,31.7,8.7,61.7-3.1c31.2-12.3,70.1-35.5,112.4-67.2
		c40.5-30.3,83.4-67.8,124.1-108.5s78.2-83.6,108.5-124.1c31.7-42.4,54.9-81.3,67.2-112.4c11.8-30,12.9-51.9,3.1-61.7
		s-31.7-8.7-61.7,3.1c-31.2,12.3-70.1,35.5-112.4,67.2l-6.4-8.6C357.2,47,397,23.2,429,10.6c35.2-13.9,59.8-14.1,73.2-0.7
		s13.1,38-0.7,73.2c-12.6,32.1-36.4,71.8-68.6,114.9c-30.6,40.9-68.5,84.2-109.5,125.3c-41.1,41.1-84.4,78.9-125.3,109.5
		c-43.1,32.2-82.9,56-114.9,68.6C65.3,508.5,50.1,512,37.7,512z M103.7,436.2c-8.8,0-15.7-2.4-20.5-7.3
		C70.3,416,74.6,388.7,95.7,350l9.4,5.1c-17.8,32.6-23.2,57.4-14.4,66.2s33.6,3.4,66.2-14.4l1.2-0.7
		c40.8-22.5,91.2-62.5,138.5-109.8c47.6-47.6,87.8-98.4,110.3-139.4l0.1-0.2c17.9-32.7,23.2-57.4,14.4-66.2s-33.6-3.4-66.2,14.4
		l-5.1-9.4c38.7-21.2,66-25.5,78.9-12.6s8.6,40.2-12.5,78.8l-0.1,0.2c-22.9,41.9-63.8,93.6-112.2,142s-100.1,89.3-142,112.2
		l-0.1,0.1c-0.1,0-0.2,0.1-0.2,0.1l0,0C137.8,429.6,118.2,436.2,103.7,436.2z"/>
	<path class="st6" d="M37.8,487.3c-5,0-8.8-0.9-10.4-2.6c-0.4-0.4-8.6-9.2,6.2-46.7c8-20.4,21-44.3,38.2-70.5
		c-13.6,32.8-13.1,56.7,1.5,71.3c5.2,5.2,14.7,11.4,30.4,11.4c11.4,0,25-3.3,40.7-9.8C98.9,470.2,60.5,487.3,37.8,487.3L37.8,487.3z
		 M440.3,144.5c13.6-32.7,13.1-56.7-1.5-71.3c-5.2-5.2-14.7-11.4-30.4-11.4c-11.4,0-25,3.3-40.7,9.8c45.5-29.8,83.9-46.9,106.6-46.9
		c5,0,8.8,0.9,10.4,2.6c0.4,0.4,8.6,9.2-6.2,46.7C470.4,94.4,457.5,118.3,440.3,144.5z"/>
	<path class="st5" d="M159.9,415l-4.6-2.2c-24.3-15.1-45.1-36-60.3-60.3c-7-11.3-12.9-23.4-17.3-36c-7.1-20.1-10.8-41.1-10.8-62.7
		c0-103.1,83.9-187,187-187c21.5,0,42.6,3.6,62.7,10.8c12.5,4.5,24.6,10.3,35.9,17.3c24.3,15.1,45.2,36,60.3,60.3l-6.3,10.6l-2.8-5
		c-14.3-22.9-33.9-42.6-56.8-56.8c-10.7-6.6-22.1-12.1-33.9-16.3c-18.9-6.7-38.8-10.1-59-10.1c-97.2,0-176.2,79.1-176.2,176.2
		c0,20.3,3.4,40.2,10.1,59.1c4.2,11.8,9.7,23.2,16.3,33.9c14.2,22.8,33.7,42.4,56.6,56.7l3.8,1.8L159.9,415z"/>
</g>
</svg>
