<svg xmlns="http://www.w3.org/2000/svg" viewBox="0 0 100 100"><defs><style>.cls-1{fill:#e6f3ff;}.cls-2{fill:#cfdbe6;}.cls-3{fill:#ff3501;}.cls-4{fill:#cd2a00;}</style></defs><title>gmail</title><g id="Capa_2" data-name="Capa 2"><g id="Capa_1-2" data-name="Capa 1"><g id="Capa_2-2" data-name="Capa 2"><g id="Capa_1-2-2" data-name="Capa 1-2"><path class="cls-1" d="M70.71,27H50L43.13,50,50,73H70.71l6.87-23Z"/><path class="cls-2" d="M29.29,27,22.42,50l6.87,23H50V27Z"/><path class="cls-3" d="M79.3,27H70.71L50,42.94H45.42L50,54,70.71,38V73.05H79.3Z"/><path class="cls-4" d="M50,54V43L29.29,27H20.7V73.1h8.59V38Z"/><polygon class="cls-3" points="50 0 50 8.08 91.92 8.08 91.92 91.92 50 91.92 50 100 100 100 100 0 50 0"/><polygon class="cls-4" points="8.08 91.92 8.08 8.08 50 8.08 50 0 0 0 0 100 50 100 50 91.92 8.08 91.92"/></g></g></g></g></svg>