<?xml version="1.0" encoding="utf-8"?>
<!-- Generator: Adobe Illustrator 24.0.1, SVG Export Plug-In . SVG Version: 6.00 Build 0)  -->
<svg version="1.1" id="Layer_1" xmlns="http://www.w3.org/2000/svg" xmlns:xlink="http://www.w3.org/1999/xlink" x="0px" y="0px"
	 viewBox="0 0 512 512" style="enable-background:new 0 0 512 512;" xml:space="preserve">
<style type="text/css">
	.st0{fill:#3A67FA;}
	.st1{fill:#2451D1;}
	.st2{fill:#FFFFFF;}
	.st3{fill:#D1D1D1;}
</style>
<circle class="st0" cx="256" cy="256" r="256"/>
<path class="st1" d="M511,233.6L394.7,117.2c-71,9.2-145.3,7.9-216.3,9.5c-29.3,0-58.6,13.8-53.4,46.5
	c10.3,65.5,15.5,129.3,3.4,196.5c-1.9,8.5-5.9,17.1-11.1,25.1L233.5,511c7.4,0.6,14.9,1,22.5,1c141.4,0,256-114.6,256-256
	C512,248.5,511.7,241,511,233.6z"/>
<path class="st2" d="M376,109.5H136c-14.6,0-26.5,11.9-26.5,26.5v240c0,14.6,11.9,26.5,26.5,26.5h240c14.6,0,26.5-11.9,26.5-26.5
	V136C402.5,121.3,390.7,109.5,376,109.5L376,109.5z M200.2,362.5c0,4.3-3.5,7.7-7.7,7.7h-32.8c-4.3,0-7.7-3.5-7.7-7.7V224.9
	c0-4.3,3.5-7.7,7.7-7.7h32.8c4.3,0,7.7,3.5,7.7,7.7L200.2,362.5L200.2,362.5z M176,204.2c-17.2,0-31.2-14-31.2-31.2
	c0-17.2,14-31.2,31.2-31.2c17.2,0,31.2,14,31.2,31.2C207.2,190.2,193.3,204.2,176,204.2L176,204.2z M371.8,363.1
	c0,3.9-3.2,7.1-7.1,7.1h-35.2c-3.9,0-7.1-3.2-7.1-7.1v-64.6c0-9.6,2.8-42.2-25.2-42.2c-21.7,0-26.1,22.3-27,32.3v74.5
	c0,3.9-3.2,7.1-7.1,7.1H229c-3.9,0-7.1-3.2-7.1-7.1V224.2c0-3.9,3.2-7.1,7.1-7.1h34.1c3.9,0,7.1,3.2,7.1,7.1v12
	c8.1-12.1,20-21.4,45.5-21.4c56.4,0,56.1,52.7,56.1,81.7L371.8,363.1L371.8,363.1L371.8,363.1z"/>
<path class="st3" d="M376,109.5H255.4v107.7h7.6c3.9,0,7.1,3.2,7.1,7.1v12c8.1-12.1,20-21.4,45.5-21.4c56.4,0,56.1,52.7,56.1,81.7
	v66.6c0,3.9-3.2,7.1-7.1,7.1h-35.2c-3.9,0-7.1-3.2-7.1-7.1v-64.6c0-9.6,2.8-42.2-25.2-42.2c-21.7,0-26.1,22.3-27,32.3v74.5
	c0,3.9-3.2,7.1-7.1,7.1h-7.6v32.3H376c14.6,0,26.5-11.9,26.5-26.5V136C402.5,121.3,390.7,109.5,376,109.5z"/>
</svg>
