<svg xmlns="http://www.w3.org/2000/svg" xmlns:xlink="http://www.w3.org/1999/xlink" viewBox="0 0 620 460"><defs><style>.cls-1{fill:url(#Áåçûìÿííûé_ãðàäèåíò_33);}.cls-2{fill:url(#Áåçûìÿííûé_ãðàäèåíò_33-2);}.cls-3{fill:url(#Áåçûìÿííûé_ãðàäèåíò_33-3);}.cls-4{fill:#020230;opacity:0.6;}.cls-5{fill:url(#Áåçûìÿííûé_ãðàäèåíò_33-4);}.cls-6{fill:url(#Áåçûìÿííûé_ãðàäèåíò_113);}.cls-7{fill:url(#Áåçûìÿííûé_ãðàäèåíò_109);}.cls-8{fill:url(#Áåçûìÿííûé_ãðàäèåíò_343);}.cls-29,.cls-9{fill:#fff;}.cls-10,.cls-14{opacity:0.4;}.cls-11,.cls-14,.cls-15{fill:#06033e;}.cls-12{fill:url(#Áåçûìÿííûé_ãðàäèåíò_343-2);}.cls-13{fill:url(#Áåçûìÿííûé_ãðàäèåíò_441);}.cls-15,.cls-17,.cls-29{opacity:0.5;}.cls-16{fill:url(#Áåçûìÿííûé_ãðàäèåíò_343-3);}.cls-18{fill:#0084f6;}.cls-19{fill:#f8359e;}.cls-20{fill:url(#Áåçûìÿííûé_ãðàäèåíò_33-5);}.cls-21{fill:url(#Áåçûìÿííûé_ãðàäèåíò_199);}.cls-22{fill:url(#Áåçûìÿííûé_ãðàäèåíò_144);}.cls-23{fill:url(#Áåçûìÿííûé_ãðàäèåíò_483);}.cls-24{fill:url(#Áåçûìÿííûé_ãðàäèåíò_483-2);}.cls-25{fill:url(#Áåçûìÿííûé_ãðàäèåíò_193);}.cls-26{fill:url(#Áåçûìÿííûé_ãðàäèåíò_223);}.cls-27{fill:#0c0a78;}.cls-28{fill:url(#Áåçûìÿííûé_ãðàäèåíò_193-2);}</style><linearGradient id="Áåçûìÿííûé_ãðàäèåíò_33" x1="573.89" y1="381.51" x2="620" y2="381.51" gradientUnits="userSpaceOnUse"><stop offset="0" stop-color="#e39a65"/><stop offset="1" stop-color="#e95f8d"/></linearGradient><linearGradient id="Áåçûìÿííûé_ãðàäèåíò_33-2" x1="510.75" y1="318.21" x2="588.21" y2="318.21" xlink:href="#Áåçûìÿííûé_ãðàäèåíò_33"/><linearGradient id="Áåçûìÿííûé_ãðàäèåíò_33-3" x1="0" y1="344.2" x2="77.45" y2="344.2" xlink:href="#Áåçûìÿííûé_ãðàäèåíò_33"/><linearGradient id="Áåçûìÿííûé_ãðàäèåíò_33-4" x1="90.17" y1="339.23" x2="503.56" y2="339.23" xlink:href="#Áåçûìÿííûé_ãðàäèåíò_33"/><radialGradient id="Áåçûìÿííûé_ãðàäèåíò_113" cx="318.51" cy="32.99" r="315.73" gradientTransform="translate(0 -0.38)" gradientUnits="userSpaceOnUse"><stop offset="0" stop-color="#e39a65"/><stop offset="0.47" stop-color="#a92ffb"/><stop offset="0.59" stop-color="#891cfb"/><stop offset="0.74" stop-color="#6507fa"/><stop offset="0.8" stop-color="#0d0c6f"/></radialGradient><radialGradient id="Áåçûìÿííûé_ãðàäèåíò_109" cx="125.4" cy="286.54" r="345.25" gradientTransform="translate(0 -0.38)" gradientUnits="userSpaceOnUse"><stop offset="0" stop-color="#e39a65"/><stop offset="0.47" stop-color="#a92ffb"/><stop offset="0.57" stop-color="#891cfb"/><stop offset="0.68" stop-color="#6507fa"/><stop offset="0.74" stop-color="#0d0c6f"/></radialGradient><radialGradient id="Áåçûìÿííûé_ãðàäèåíò_343" cx="157.16" cy="217.25" r="309.6" gradientTransform="translate(0 -0.38)" gradientUnits="userSpaceOnUse"><stop offset="0" stop-color="#e39a65"/><stop offset="0.47" stop-color="#a92ffb"/><stop offset="0.59" stop-color="#891cfb"/><stop offset="0.73" stop-color="#6507fa"/><stop offset="1" stop-color="#3919bb"/></radialGradient><radialGradient id="Áåçûìÿííûé_ãðàäèåíò_343-2" cx="234.28" cy="98.85" r="315.79" xlink:href="#Áåçûìÿííûé_ãðàäèåíò_343"/><linearGradient id="Áåçûìÿííûé_ãðàäèåíò_441" x1="268.99" y1="181.66" x2="522.04" y2="181.66" gradientUnits="userSpaceOnUse"><stop offset="0" stop-color="#3919bb"/><stop offset="1" stop-color="#6507fa"/></linearGradient><radialGradient id="Áåçûìÿííûé_ãðàäèåíò_343-3" cx="119" cy="31.41" r="491.84" xlink:href="#Áåçûìÿííûé_ãðàäèåíò_343"/><linearGradient id="Áåçûìÿííûé_ãðàäèåíò_33-5" x1="96.47" y1="216.34" x2="205.02" y2="216.34" xlink:href="#Áåçûìÿííûé_ãðàäèåíò_33"/><radialGradient id="Áåçûìÿííûé_ãðàäèåíò_199" cx="106.09" cy="127.81" r="233.8" gradientTransform="translate(0 -0.38)" gradientUnits="userSpaceOnUse"><stop offset="0" stop-color="#e39a65"/><stop offset="0.15" stop-color="#a92ffb"/><stop offset="0.41" stop-color="#3919bb"/><stop offset="0.93" stop-color="#3919bb"/></radialGradient><linearGradient id="Áåçûìÿííûé_ãðàäèåíò_144" x1="110.23" y1="98.63" x2="194.09" y2="98.63" gradientUnits="userSpaceOnUse"><stop offset="0" stop-color="#e39a65"/><stop offset="0.25" stop-color="#a92ffb"/><stop offset="0.56" stop-color="#3919bb"/></linearGradient><linearGradient id="Áåçûìÿííûé_ãðàäèåíò_483" x1="118.09" y1="94.36" x2="186.22" y2="94.36" gradientUnits="userSpaceOnUse"><stop offset="0" stop-color="#4f1fec"/><stop offset="1" stop-color="#a92ffb"/></linearGradient><linearGradient id="Áåçûìÿííûé_ãðàäèåíò_483-2" x1="116.48" y1="94.36" x2="184.61" y2="94.36" xlink:href="#Áåçûìÿííûé_ãðàäèåíò_483"/><linearGradient id="Áåçûìÿííûé_ãðàäèåíò_193" x1="118.1" y1="85.36" x2="204" y2="85.36" gradientUnits="userSpaceOnUse"><stop offset="0" stop-color="#131060"/><stop offset="0.19" stop-color="#141062"/><stop offset="0.28" stop-color="#19106a"/><stop offset="0.36" stop-color="#221078"/><stop offset="0.42" stop-color="#2e0f8b"/><stop offset="0.48" stop-color="#3e0fa3"/><stop offset="0.54" stop-color="#510ec2"/><stop offset="0.58" stop-color="#680de5"/><stop offset="0.61" stop-color="#740df8"/><stop offset="0.62" stop-color="#7a14f0"/><stop offset="0.68" stop-color="#9b3cc3"/><stop offset="0.75" stop-color="#b75d9d"/><stop offset="0.81" stop-color="#cc7680"/><stop offset="0.88" stop-color="#dc886c"/><stop offset="0.94" stop-color="#e5935f"/><stop offset="1" stop-color="#e8975b"/></linearGradient><radialGradient id="Áåçûìÿííûé_ãðàäèåíò_223" cx="99.76" cy="75.12" r="152.94" gradientTransform="translate(0 -0.38)" gradientUnits="userSpaceOnUse"><stop offset="0" stop-color="#e39a65"/><stop offset="0.25" stop-color="#a92ffb"/><stop offset="0.74" stop-color="#3919bb"/></radialGradient><linearGradient id="Áåçûìÿííûé_ãðàäèåíò_193-2" x1="146.77" y1="113.13" x2="158.65" y2="113.13" xlink:href="#Áåçûìÿííûé_ãðàäèåíò_193"/></defs><title>main-banner</title><g id="Capa_2" data-name="Capa 2"><g id="Capa_1-2" data-name="Capa 1"><path class="cls-1" d="M596.94,395.09a9.81,9.81,0,0,1-4.92-1.32l-16.59-9.6a3.08,3.08,0,0,1,0-5.33L592,369.25a9.85,9.85,0,0,1,9.85,0l16.59,9.59a3.08,3.08,0,0,1,0,5.33l-16.59,9.6A9.82,9.82,0,0,1,596.94,395.09Zm0-24.53a7.13,7.13,0,0,0-3.6,1l-16.6,9.6a.42.42,0,0,0-.22.38.43.43,0,0,0,.22.38l16.6,9.6h0a7.2,7.2,0,0,0,7.21,0l16.6-9.6a.43.43,0,0,0,.22-.38.42.42,0,0,0-.22-.38l-16.6-9.6A7.14,7.14,0,0,0,596.94,370.56Z"/><path class="cls-2" d="M549.48,340.63a15.91,15.91,0,0,1-8-2.14L512.93,322a4.33,4.33,0,0,1,0-7.52l28.55-16.52a16,16,0,0,1,16,0L586,314.45a4.35,4.35,0,0,1,0,7.53l-28.56,16.51A15.94,15.94,0,0,1,549.48,340.63Zm-6.68-4.42a13.39,13.39,0,0,0,13.36,0l28.56-16.52a1.7,1.7,0,0,0,0-3l-28.56-16.52a13.39,13.39,0,0,0-13.36,0l-28.56,16.52a1.71,1.71,0,0,0,0,3Z"/><path class="cls-3" d="M38.73,366.62a16,16,0,0,1-8-2.13L2.17,348a4.35,4.35,0,0,1,0-7.53l28.56-16.52a16,16,0,0,1,16,0l28.56,16.52a4.35,4.35,0,0,1,0,7.53L46.72,364.49A16,16,0,0,1,38.73,366.62Zm0-42.2A13.41,13.41,0,0,0,32,326.2L3.49,342.72a1.71,1.71,0,0,0,0,3L32.05,362.2h0a13.39,13.39,0,0,0,13.36,0L74,345.69a1.72,1.72,0,0,0,0-3L45.41,326.2A13.35,13.35,0,0,0,38.73,324.42Z"/><path class="cls-4" d="M328,438.68,123.73,320.58c-3-1.73-2.61-4.73.83-6.72l131.07-75.8c3.44-2,8.64-2.2,11.61-.48l204.22,118.1c3,1.72,2.61,4.73-.83,6.72L339.56,438.2C336.12,440.18,330.92,440.4,328,438.68Z"/><path class="cls-5" d="M332.63,460a13.06,13.06,0,0,1-6.43-1.51h0L93.13,323.7a5.21,5.21,0,0,1-3-4.47c0-2,1.43-4,3.91-5.47L253,220.52c4.36-2.52,10.76-2.77,14.58-.56L500.6,354.75a5.22,5.22,0,0,1,3,4.47c0,2-1.43,4-3.91,5.48L340.78,457.94A16.75,16.75,0,0,1,332.63,460ZM261.14,221.1a14.23,14.23,0,0,0-6.86,1.69L95.4,316c-1.63,1-2.59,2.14-2.59,3.2a2.79,2.79,0,0,0,1.63,2.19L327.52,456.21h0c3,1.72,8.44,1.47,11.93-.55l158.88-93.24c1.63-.94,2.6-2.14,2.6-3.2a2.81,2.81,0,0,0-1.64-2.19L266.22,222.24A10.5,10.5,0,0,0,261.14,221.1Z"/><path class="cls-6" d="M525.72,157.68,322.3,40.05a5.25,5.25,0,0,0-4.15-.6h0l-3.77,1.31,1.33.31a6.65,6.65,0,0,0-1.24,2.33L268.45,193a9,9,0,0,0,3.72,10.07L475.59,320.72a5.81,5.81,0,0,0,1.5.62l-.51,1.1,3.6-1.27h0a5.77,5.77,0,0,0,3.27-3.81l46-149.61A9,9,0,0,0,525.72,157.68Z"/><path class="cls-7" d="M468.31,326.31l.07.09L267.46,210.2c-3-1.71-8.12-1.49-11.53.48L126.11,285.75l-4.33-1.65,1.22,6.08h0a3.64,3.64,0,0,0,1.94,2.43L327.73,409.88c3,1.71,8.12,1.5,11.53-.48l130.15-75.26a5.24,5.24,0,0,0,2.76-3.22h0l1.25-5.92Z"/><path class="cls-8" d="M328,404.53,123.73,286.43c-3-1.72-2.61-4.73.83-6.72l131.07-75.8c3.44-2,8.64-2.2,11.61-.48l204.22,118.1c3,1.73,2.61,4.73-.83,6.72l-131.07,75.8C336.12,406,330.92,406.25,328,404.53Z"/><path class="cls-9" d="M470.63,326.66l-131.07,75.8c-3.44,2-8.64,2.2-11.61.48L123.73,284.84a3.82,3.82,0,0,1-1.86-2.13c-.39,1.38.18,2.75,1.86,3.72L328,404.53c3,1.72,8.17,1.51,11.61-.48l131.07-75.8c2.27-1.31,3.17-3.06,2.69-4.59A5.46,5.46,0,0,1,470.63,326.66Z"/><g class="cls-10"><path class="cls-11" d="M221.14,267.26l-6.9-4c-.55-.32-.48-.88.16-1.25l8.14-4.71a2.4,2.4,0,0,1,2.16-.09l6.89,4c.55.32.48.88-.15,1.25l-8.14,4.7A2.4,2.4,0,0,1,221.14,267.26Z"/><path class="cls-11" d="M231.79,273.42l-6.9-4c-.55-.32-.48-.88.16-1.25l8.13-4.7a2.4,2.4,0,0,1,2.16-.09l6.9,4c.55.32.48.88-.16,1.24L234,273.33A2.4,2.4,0,0,1,231.79,273.42Z"/><path class="cls-11" d="M242.43,279.58l-6.89-4c-.56-.32-.49-.88.15-1.25l8.14-4.7a2.4,2.4,0,0,1,2.16-.09l6.9,4c.55.32.48.88-.16,1.25l-8.14,4.71A2.4,2.4,0,0,1,242.43,279.58Z"/><path class="cls-11" d="M257.16,274.49l-6.9-4c-.55-.32-.48-.88.16-1.25l6.83-3.95a2.4,2.4,0,0,1,2.16-.09l6.9,4c.55.32.48.88-.16,1.25l-6.83,3.95A2.4,2.4,0,0,1,257.16,274.49Z"/><path class="cls-11" d="M267.81,280.65l-6.9-4c-.55-.32-.48-.88.16-1.25l6.83-4a2.4,2.4,0,0,1,2.16-.09l6.89,4c.56.32.49.88-.15,1.25L270,280.56A2.4,2.4,0,0,1,267.81,280.65Z"/><path class="cls-11" d="M278.45,286.81l-6.89-4c-.55-.32-.49-.88.15-1.25l6.84-3.95a2.4,2.4,0,0,1,2.16-.09l6.89,4c.55.32.48.88-.15,1.25l-6.84,4A2.4,2.4,0,0,1,278.45,286.81Z"/><path class="cls-11" d="M289.1,293l-6.89-4c-.56-.32-.49-.88.15-1.25l6.83-4a2.4,2.4,0,0,1,2.16-.09l6.9,4c.55.32.48.88-.16,1.25l-6.83,3.95A2.4,2.4,0,0,1,289.1,293Z"/><path class="cls-11" d="M299.75,299.12l-6.9-4c-.55-.32-.48-.88.16-1.25l6.83-3.95a2.4,2.4,0,0,1,2.16-.09l6.9,4c.55.32.48.88-.16,1.25L301.91,299A2.4,2.4,0,0,1,299.75,299.12Z"/><path class="cls-11" d="M310.4,305.28l-6.9-4c-.55-.32-.48-.88.16-1.25l6.83-4a2.4,2.4,0,0,1,2.16-.09l6.89,4c.56.32.49.88-.15,1.25l-6.83,3.95A2.4,2.4,0,0,1,310.4,305.28Z"/><path class="cls-11" d="M321,311.44l-6.89-4c-.55-.32-.49-.88.15-1.25l6.84-3.95a2.4,2.4,0,0,1,2.16-.09l6.89,4c.55.32.48.88-.15,1.25l-6.84,4A2.4,2.4,0,0,1,321,311.44Z"/><path class="cls-11" d="M331.69,317.6l-6.89-4c-.56-.32-.49-.88.15-1.25l6.83-3.95a2.4,2.4,0,0,1,2.16-.09l6.9,4c.55.32.48.88-.16,1.25l-6.83,3.95A2.4,2.4,0,0,1,331.69,317.6Z"/><path class="cls-11" d="M342.34,323.75l-6.9-4c-.55-.32-.48-.88.16-1.25l6.83-3.95a2.4,2.4,0,0,1,2.16-.09l6.9,4c.55.32.48.88-.16,1.25l-6.83,4A2.4,2.4,0,0,1,342.34,323.75Z"/><path class="cls-11" d="M353,329.91l-6.9-4c-.55-.32-.48-.88.16-1.25l6.83-3.95a2.4,2.4,0,0,1,2.16-.09l6.89,4c.56.32.49.88-.15,1.25l-6.83,3.95A2.4,2.4,0,0,1,353,329.91Z"/><path class="cls-11" d="M272.85,271.58l-6.9-4c-.55-.32-.48-.88.16-1.25l6.83-3.95a2.4,2.4,0,0,1,2.16-.09l6.89,4c.56.32.49.88-.15,1.25L275,271.49A2.4,2.4,0,0,1,272.85,271.58Z"/><path class="cls-11" d="M262,265.33l-6.89-4c-.56-.32-.49-.88.15-1.25l6.83-3.95a2.4,2.4,0,0,1,2.16-.09l6.9,4c.55.32.48.88-.16,1.25l-6.83,3.95A2.4,2.4,0,0,1,262,265.33Z"/><path class="cls-11" d="M251.22,259.07l-14.85-8.59c-.56-.32-.49-.88.15-1.25l6.83-3.95a2.4,2.4,0,0,1,2.16-.09l14.85,8.59c.56.32.49.88-.15,1.25l-6.83,4A2.4,2.4,0,0,1,251.22,259.07Z"/><path class="cls-11" d="M258.78,251.46l-12-7c-.55-.32-.48-.88.16-1.25l6.83-4a2.4,2.4,0,0,1,2.16-.09l12.05,7c.55.32.48.88-.16,1.25l-6.83,4A2.4,2.4,0,0,1,258.78,251.46Z"/><path class="cls-11" d="M283.49,277.74l-6.89-4c-.55-.32-.48-.88.16-1.25l6.83-3.95a2.4,2.4,0,0,1,2.16-.09l6.89,4c.55.32.49.88-.15,1.25l-6.84,3.95A2.4,2.4,0,0,1,283.49,277.74Z"/><path class="cls-11" d="M294.14,283.89l-6.89-4c-.56-.32-.49-.88.15-1.25l6.83-4a2.4,2.4,0,0,1,2.16-.09l6.9,4c.55.32.48.88-.16,1.25l-6.83,3.95A2.4,2.4,0,0,1,294.14,283.89Z"/><path class="cls-11" d="M304.79,290.05l-6.89-4c-.56-.32-.49-.88.15-1.25l6.83-3.95a2.4,2.4,0,0,1,2.16-.09l6.9,4c.55.32.48.88-.16,1.25L307,290A2.4,2.4,0,0,1,304.79,290.05Z"/><path class="cls-11" d="M315.44,296.21l-6.9-4c-.55-.32-.48-.88.16-1.25l6.83-4a2.4,2.4,0,0,1,2.16-.09l6.89,4c.56.32.49.88-.15,1.25l-6.83,3.95A2.4,2.4,0,0,1,315.44,296.21Z"/><path class="cls-11" d="M326.08,302.37l-6.89-4c-.55-.32-.48-.88.16-1.25l6.83-3.95a2.4,2.4,0,0,1,2.16-.09l6.89,4c.55.32.49.88-.15,1.25l-6.84,3.95A2.4,2.4,0,0,1,326.08,302.37Z"/><path class="cls-11" d="M336.73,308.52l-6.89-4c-.56-.32-.49-.88.15-1.25l6.83-4a2.4,2.4,0,0,1,2.16-.09l6.9,4c.55.32.48.88-.16,1.25l-6.83,3.95A2.4,2.4,0,0,1,336.73,308.52Z"/><path class="cls-11" d="M347.38,314.68l-6.9-4c-.55-.32-.48-.88.16-1.25l6.83-3.95a2.4,2.4,0,0,1,2.16-.09l6.9,4c.55.32.48.88-.16,1.25l-6.83,3.95A2.4,2.4,0,0,1,347.38,314.68Z"/><path class="cls-11" d="M358,320.84l-6.9-4c-.55-.32-.48-.88.16-1.25l6.83-4a2.4,2.4,0,0,1,2.16-.09l6.89,4c.56.32.49.88-.15,1.25l-6.83,3.95A2.4,2.4,0,0,1,358,320.84Z"/><path class="cls-11" d="M368.67,327l-6.89-4c-.55-.32-.48-.88.16-1.25l6.83-3.95a2.4,2.4,0,0,1,2.16-.09l6.89,4c.55.32.49.88-.15,1.25l-6.84,4A2.4,2.4,0,0,1,368.67,327Z"/><path class="cls-11" d="M387.6,337.94l-15-8.7c-.55-.32-.48-.88.15-1.25l6.84-3.95a2.4,2.4,0,0,1,2.16-.09l15,8.7c.55.32.48.88-.16,1.25l-6.83,4A2.4,2.4,0,0,1,387.6,337.94Z"/><path class="cls-11" d="M408.33,326l-12.69-7.34c-.56-.32-.49-.88.15-1.25l6.83-3.95a2.4,2.4,0,0,1,2.16-.09l12.7,7.35c.55.32.48.87-.16,1.24l-6.83,3.95A2.4,2.4,0,0,1,408.33,326Z"/><path class="cls-11" d="M302.14,276.53l-6.89-4c-.56-.32-.49-.88.15-1.25l6.83-4a2.4,2.4,0,0,1,2.16-.09l6.9,4c.55.32.48.88-.16,1.25l-6.83,3.95A2.4,2.4,0,0,1,302.14,276.53Z"/><path class="cls-11" d="M291.23,270.22l-6.9-4c-.55-.32-.48-.88.16-1.25l6.83-4a2.4,2.4,0,0,1,2.16-.09l6.89,4c.56.32.49.88-.15,1.25l-6.83,3.95A2.4,2.4,0,0,1,291.23,270.22Z"/><path class="cls-11" d="M280.32,263.91l-6.9-4c-.55-.32-.48-.88.16-1.25l6.83-4a2.4,2.4,0,0,1,2.16-.09l6.89,4c.56.32.49.88-.15,1.25l-6.83,3.95A2.4,2.4,0,0,1,280.32,263.91Z"/><path class="cls-11" d="M269.4,257.6l-6.89-4c-.55-.32-.49-.88.15-1.25l6.84-4a2.4,2.4,0,0,1,2.16-.09l6.89,4c.55.32.48.88-.16,1.25l-6.83,3.95A2.4,2.4,0,0,1,269.4,257.6Z"/><path class="cls-11" d="M312.79,282.69l-6.9-4c-.55-.32-.48-.88.16-1.25l6.83-3.95a2.4,2.4,0,0,1,2.16-.09l6.89,4c.56.32.49.88-.15,1.25l-6.83,4A2.4,2.4,0,0,1,312.79,282.69Z"/><path class="cls-11" d="M323.44,288.85l-6.9-4c-.55-.32-.48-.88.16-1.25l6.83-3.95a2.4,2.4,0,0,1,2.16-.09l6.89,4c.56.32.49.88-.15,1.25l-6.83,3.95A2.4,2.4,0,0,1,323.44,288.85Z"/><path class="cls-11" d="M334.08,295l-6.89-4c-.55-.32-.49-.88.15-1.25l6.84-3.95a2.38,2.38,0,0,1,2.15-.09l6.9,4c.55.32.48.88-.16,1.25l-6.83,4A2.4,2.4,0,0,1,334.08,295Z"/><path class="cls-11" d="M344.73,301.16l-6.89-4c-.56-.32-.49-.88.15-1.25l6.83-3.95a2.4,2.4,0,0,1,2.16-.09l6.9,4c.55.32.48.88-.16,1.25l-6.83,3.95A2.4,2.4,0,0,1,344.73,301.16Z"/><path class="cls-11" d="M355.38,307.32l-6.9-4c-.55-.32-.48-.88.16-1.25l6.83-3.95a2.4,2.4,0,0,1,2.16-.09l6.89,4c.56.32.49.88-.15,1.25l-6.83,4A2.4,2.4,0,0,1,355.38,307.32Z"/><path class="cls-11" d="M366,313.48l-6.9-4c-.55-.32-.48-.88.16-1.25l6.83-3.95a2.4,2.4,0,0,1,2.16-.09l6.89,4c.56.32.49.88-.15,1.25l-6.83,3.95A2.4,2.4,0,0,1,366,313.48Z"/><path class="cls-11" d="M376.67,319.63l-6.89-4c-.56-.32-.49-.88.15-1.25l6.84-3.95a2.38,2.38,0,0,1,2.15-.09l6.9,4c.55.32.48.88-.16,1.25l-6.83,4A2.4,2.4,0,0,1,376.67,319.63Z"/><path class="cls-11" d="M387.32,325.79l-6.89-4c-.56-.32-.49-.88.15-1.25l6.83-3.95a2.4,2.4,0,0,1,2.16-.09l6.9,4c.55.32.48.88-.16,1.25l-6.83,3.95A2.4,2.4,0,0,1,387.32,325.79Z"/><path class="cls-11" d="M398,332l-6.9-4c-.55-.32-.48-.88.16-1.25l6.83-3.95a2.4,2.4,0,0,1,2.16-.09l6.89,4c.56.32.49.88-.15,1.25l-6.83,3.95A2.4,2.4,0,0,1,398,332Z"/><path class="cls-11" d="M296.53,261.3l-6.89-4c-.55-.32-.48-.88.15-1.25l6.84-3.95a2.4,2.4,0,0,1,2.16-.09l6.89,4c.55.32.48.88-.15,1.25l-6.84,3.95A2.4,2.4,0,0,1,296.53,261.3Z"/><path class="cls-11" d="M285.94,255.17l-6.9-4c-.55-.32-.48-.88.16-1.25L286,246a2.4,2.4,0,0,1,2.16-.09l6.9,4c.55.32.48.88-.16,1.25l-6.83,4A2.4,2.4,0,0,1,285.94,255.17Z"/><path class="cls-11" d="M275.35,249.05l-6.9-4c-.55-.32-.48-.88.16-1.25l6.83-3.95a2.4,2.4,0,0,1,2.16-.09l6.89,4c.56.32.49.88-.15,1.25l-6.84,4A2.38,2.38,0,0,1,275.35,249.05Z"/><path class="cls-11" d="M264.75,242.92l-6.89-4c-.56-.32-.49-.88.15-1.25l6.83-4a2.4,2.4,0,0,1,2.16-.09l6.9,4c.55.32.48.88-.16,1.25l-6.83,4A2.4,2.4,0,0,1,264.75,242.92Z"/><path class="cls-11" d="M275.64,236.62l-6.89-4c-.55-.32-.48-.88.16-1.25l2.25-1.3a2.4,2.4,0,0,1,2.16-.09l6.9,4c.55.32.48.88-.16,1.25l-2.26,1.31A2.4,2.4,0,0,1,275.64,236.62Z"/><path class="cls-11" d="M289.47,244.61l-6.89-4c-.56-.32-.49-.88.15-1.25l2.26-1.31a2.4,2.4,0,0,1,2.16-.09l6.89,4c.56.32.49.88-.15,1.25l-2.26,1.31A2.39,2.39,0,0,1,289.47,244.61Z"/><path class="cls-11" d="M300,250.72l-6.89-4c-.56-.32-.49-.88.15-1.25l2.26-1.31a2.4,2.4,0,0,1,2.16-.09l6.89,4c.56.32.49.88-.15,1.25l-2.26,1.31A2.4,2.4,0,0,1,300,250.72Z"/><path class="cls-11" d="M310.57,256.82l-6.89-4c-.56-.32-.49-.88.15-1.25l2.26-1.3a2.4,2.4,0,0,1,2.16-.09l6.89,4c.56.32.49.88-.15,1.25l-2.26,1.31A2.4,2.4,0,0,1,310.57,256.82Z"/><path class="cls-11" d="M321.12,262.92l-6.89-4c-.56-.32-.49-.88.15-1.25l2.26-1.3a2.4,2.4,0,0,1,2.16-.09l6.9,4c.55.32.48.88-.16,1.25l-2.26,1.31A2.4,2.4,0,0,1,321.12,262.92Z"/><path class="cls-11" d="M380,297l-6.89-4c-.56-.32-.49-.87.15-1.24l2.26-1.31a2.4,2.4,0,0,1,2.16-.09l6.9,4c.55.32.48.88-.16,1.25l-2.26,1.3A2.4,2.4,0,0,1,380,297Z"/><path class="cls-11" d="M390.57,303.08l-6.89-4c-.55-.32-.49-.88.15-1.25l2.26-1.31a2.4,2.4,0,0,1,2.16-.09l6.9,4c.55.32.48.88-.16,1.25l-2.26,1.3A2.4,2.4,0,0,1,390.57,303.08Z"/><path class="cls-11" d="M401.12,309.18l-6.89-4c-.55-.32-.48-.88.15-1.25l2.26-1.31a2.4,2.4,0,0,1,2.16-.09l6.9,4c.55.32.48.88-.16,1.25l-2.26,1.31A2.39,2.39,0,0,1,401.12,309.18Z"/><path class="cls-11" d="M411.67,315.29l-6.89-4c-.55-.32-.48-.88.15-1.25l2.26-1.31a2.4,2.4,0,0,1,2.16-.09l6.9,4c.55.32.48.88-.16,1.25l-2.26,1.31A2.4,2.4,0,0,1,411.67,315.29Z"/><path class="cls-11" d="M307.18,267.46l-6.89-4c-.56-.32-.49-.88.15-1.25l6.83-4a2.4,2.4,0,0,1,2.16-.09l6.9,4c.55.32.48.88-.16,1.25l-6.83,3.95A2.4,2.4,0,0,1,307.18,267.46Z"/><path class="cls-11" d="M317.83,273.62l-6.9-4c-.55-.32-.48-.88.16-1.25l6.83-3.95a2.4,2.4,0,0,1,2.16-.09l6.9,4c.55.32.48.88-.16,1.25L320,273.53A2.4,2.4,0,0,1,317.83,273.62Z"/><path class="cls-11" d="M328.48,279.77l-6.9-4c-.55-.32-.48-.88.16-1.25l6.83-4a2.4,2.4,0,0,1,2.16-.09l6.89,4c.56.32.49.88-.15,1.25l-6.83,3.95A2.4,2.4,0,0,1,328.48,279.77Z"/><path class="cls-11" d="M339.12,285.93l-6.89-4c-.55-.32-.48-.88.15-1.25l6.84-3.95a2.4,2.4,0,0,1,2.16-.09l6.89,4c.55.32.48.88-.15,1.25l-6.84,3.95A2.4,2.4,0,0,1,339.12,285.93Z"/><path class="cls-11" d="M349.77,292.09l-6.89-4c-.56-.32-.49-.88.15-1.25l6.83-4a2.4,2.4,0,0,1,2.16-.09l6.9,4c.55.32.48.88-.16,1.25L351.93,292A2.4,2.4,0,0,1,349.77,292.09Z"/><path class="cls-11" d="M360.42,298.25l-6.9-4c-.55-.32-.48-.88.16-1.25l6.83-3.95a2.4,2.4,0,0,1,2.16-.09l6.9,4c.55.32.48.88-.16,1.25l-6.83,4A2.4,2.4,0,0,1,360.42,298.25Z"/><path class="cls-11" d="M371.07,304.4l-6.9-4c-.55-.32-.48-.88.16-1.25l6.83-3.95a2.4,2.4,0,0,1,2.16-.09l6.89,4c.56.32.49.88-.15,1.25l-6.83,3.95A2.4,2.4,0,0,1,371.07,304.4Z"/><path class="cls-11" d="M381.71,310.56l-6.89-4c-.55-.32-.48-.88.15-1.25l6.84-3.95a2.4,2.4,0,0,1,2.16-.09l6.89,4c.55.32.48.88-.15,1.25l-6.84,4A2.4,2.4,0,0,1,381.71,310.56Z"/><path class="cls-11" d="M392.36,316.72l-6.89-4c-.56-.32-.49-.88.15-1.25l6.83-4a2.4,2.4,0,0,1,2.16-.09l6.9,4c.55.32.48.88-.16,1.25l-6.83,3.95A2.4,2.4,0,0,1,392.36,316.72Z"/><path class="cls-11" d="M246.31,268.22,226,256.48c-.55-.32-.48-.88.16-1.25l6.83-3.95a2.4,2.4,0,0,1,2.16-.09l20.3,11.74c.56.32.49.88-.15,1.25l-6.83,3.95A2.4,2.4,0,0,1,246.31,268.22Z"/><path class="cls-11" d="M377.12,343.87l-20.31-11.75c-.55-.32-.48-.88.15-1.25l6.84-3.95a2.4,2.4,0,0,1,2.16-.09l20.3,11.75c.56.32.49.88-.15,1.24l-6.84,4A2.38,2.38,0,0,1,377.12,343.87Z"/><path class="cls-11" d="M334.53,332.84l-6.89-4c-.55-.32-.48-.88.15-1.24l8.14-4.71a2.4,2.4,0,0,1,2.16-.09l6.9,4c.55.32.48.88-.16,1.25l-8.14,4.7A2.4,2.4,0,0,1,334.53,332.84Z"/><path class="cls-11" d="M257.21,288.13l-11-6.38c-.56-.32-.49-.88.15-1.25l8.14-4.71a2.4,2.4,0,0,1,2.16-.09l11,6.38c.55.32.48.88-.16,1.25L259.37,288A2.4,2.4,0,0,1,257.21,288.13Z"/><path class="cls-11" d="M324.28,326.91l-11-6.38c-.55-.32-.49-.88.15-1.25l8.14-4.7a2.4,2.4,0,0,1,2.16-.09l11,6.37c.55.32.48.88-.16,1.25l-8.13,4.71A2.4,2.4,0,0,1,324.28,326.91Z"/><path class="cls-11" d="M272.57,297l-11-6.38c-.56-.32-.49-.88.15-1.25l8.14-4.7a2.4,2.4,0,0,1,2.16-.09L283,291c.55.32.48.88-.16,1.25l-8.14,4.71A2.4,2.4,0,0,1,272.57,297Z"/><path class="cls-11" d="M272.08,284.63,320,312.36a.66.66,0,0,1,0,1.24l-8.3,4.8a2.41,2.41,0,0,1-2.16,0l-47.94-27.72Z"/><path class="cls-11" d="M364.29,344l7.68,4.44c.46.26.4.72-.12,1l-3.33,1.93a2,2,0,0,1-1.77.07L359.07,347c-.46-.26-.4-.72.12-1l3.33-1.92A2,2,0,0,1,364.29,344Z"/><path class="cls-11" d="M353.56,337.8l7.68,4.44c.45.26.39.72-.13,1l-3.33,1.93a2,2,0,0,1-1.77.07l-7.68-4.44c-.45-.26-.4-.72.13-1l3.33-1.93A2,2,0,0,1,353.56,337.8Z"/><path class="cls-11" d="M342.91,331.64l7.68,4.44c.45.26.4.72-.13,1L347.13,339a2,2,0,0,1-1.77.07l-7.68-4.44c-.45-.26-.39-.72.13-1l3.33-1.93A2,2,0,0,1,342.91,331.64Z"/><path class="cls-11" d="M359.44,334.4l7.68,4.44c.45.26.39.72-.13,1l-3.33,1.93a2,2,0,0,1-1.77.07l-7.68-4.44c-.45-.26-.4-.72.13-1l3.33-1.93A2,2,0,0,1,359.44,334.4Z"/></g><g class="cls-10"><path class="cls-11" d="M221.14,267.26l-6.9-4c-.55-.32-.48-.88.16-1.25l8.14-4.71a2.4,2.4,0,0,1,2.16-.09l6.89,4c.55.32.48.88-.15,1.25l-8.14,4.7A2.4,2.4,0,0,1,221.14,267.26Z"/><path class="cls-11" d="M231.79,273.42l-6.9-4c-.55-.32-.48-.88.16-1.25l8.13-4.7a2.4,2.4,0,0,1,2.16-.09l6.9,4c.55.32.48.88-.16,1.24L234,273.33A2.4,2.4,0,0,1,231.79,273.42Z"/><path class="cls-11" d="M242.43,279.58l-6.89-4c-.56-.32-.49-.88.15-1.25l8.14-4.7a2.4,2.4,0,0,1,2.16-.09l6.9,4c.55.32.48.88-.16,1.25l-8.14,4.71A2.4,2.4,0,0,1,242.43,279.58Z"/><path class="cls-11" d="M257.16,274.49l-6.9-4c-.55-.32-.48-.88.16-1.25l6.83-3.95a2.4,2.4,0,0,1,2.16-.09l6.9,4c.55.32.48.88-.16,1.25l-6.83,3.95A2.4,2.4,0,0,1,257.16,274.49Z"/><path class="cls-11" d="M267.81,280.65l-6.9-4c-.55-.32-.48-.88.16-1.25l6.83-4a2.4,2.4,0,0,1,2.16-.09l6.89,4c.56.32.49.88-.15,1.25L270,280.56A2.4,2.4,0,0,1,267.81,280.65Z"/><path class="cls-11" d="M278.45,286.81l-6.89-4c-.55-.32-.49-.88.15-1.25l6.84-3.95a2.4,2.4,0,0,1,2.16-.09l6.89,4c.55.32.48.88-.15,1.25l-6.84,4A2.4,2.4,0,0,1,278.45,286.81Z"/><path class="cls-11" d="M289.1,293l-6.89-4c-.56-.32-.49-.88.15-1.25l6.83-4a2.4,2.4,0,0,1,2.16-.09l6.9,4c.55.32.48.88-.16,1.25l-6.83,3.95A2.4,2.4,0,0,1,289.1,293Z"/><path class="cls-11" d="M299.75,299.12l-6.9-4c-.55-.32-.48-.88.16-1.25l6.83-3.95a2.4,2.4,0,0,1,2.16-.09l6.9,4c.55.32.48.88-.16,1.25L301.91,299A2.4,2.4,0,0,1,299.75,299.12Z"/><path class="cls-11" d="M310.4,305.28l-6.9-4c-.55-.32-.48-.88.16-1.25l6.83-4a2.4,2.4,0,0,1,2.16-.09l6.89,4c.56.32.49.88-.15,1.25l-6.83,3.95A2.4,2.4,0,0,1,310.4,305.28Z"/><path class="cls-11" d="M321,311.44l-6.89-4c-.55-.32-.49-.88.15-1.25l6.84-3.95a2.4,2.4,0,0,1,2.16-.09l6.89,4c.55.32.48.88-.15,1.25l-6.84,4A2.4,2.4,0,0,1,321,311.44Z"/><path class="cls-11" d="M331.69,317.6l-6.89-4c-.56-.32-.49-.88.15-1.25l6.83-3.95a2.4,2.4,0,0,1,2.16-.09l6.9,4c.55.32.48.88-.16,1.25l-6.83,3.95A2.4,2.4,0,0,1,331.69,317.6Z"/><path class="cls-11" d="M342.34,323.75l-6.9-4c-.55-.32-.48-.88.16-1.25l6.83-3.95a2.4,2.4,0,0,1,2.16-.09l6.9,4c.55.32.48.88-.16,1.25l-6.83,4A2.4,2.4,0,0,1,342.34,323.75Z"/><path class="cls-11" d="M353,329.91l-6.9-4c-.55-.32-.48-.88.16-1.25l6.83-3.95a2.4,2.4,0,0,1,2.16-.09l6.89,4c.56.32.49.88-.15,1.25l-6.83,3.95A2.4,2.4,0,0,1,353,329.91Z"/><path class="cls-11" d="M272.85,271.58l-6.9-4c-.55-.32-.48-.88.16-1.25l6.83-3.95a2.4,2.4,0,0,1,2.16-.09l6.89,4c.56.32.49.88-.15,1.25L275,271.49A2.4,2.4,0,0,1,272.85,271.58Z"/><path class="cls-11" d="M262,265.33l-6.89-4c-.56-.32-.49-.88.15-1.25l6.83-3.95a2.4,2.4,0,0,1,2.16-.09l6.9,4c.55.32.48.88-.16,1.25l-6.83,3.95A2.4,2.4,0,0,1,262,265.33Z"/><path class="cls-11" d="M251.22,259.07l-14.85-8.59c-.56-.32-.49-.88.15-1.25l6.83-3.95a2.4,2.4,0,0,1,2.16-.09l14.85,8.59c.56.32.49.88-.15,1.25l-6.83,4A2.4,2.4,0,0,1,251.22,259.07Z"/><path class="cls-11" d="M258.78,251.46l-12-7c-.55-.32-.48-.88.16-1.25l6.83-4a2.4,2.4,0,0,1,2.16-.09l12.05,7c.55.32.48.88-.16,1.25l-6.83,4A2.4,2.4,0,0,1,258.78,251.46Z"/><path class="cls-11" d="M283.49,277.74l-6.89-4c-.55-.32-.48-.88.16-1.25l6.83-3.95a2.4,2.4,0,0,1,2.16-.09l6.89,4c.55.32.49.88-.15,1.25l-6.84,3.95A2.4,2.4,0,0,1,283.49,277.74Z"/><path class="cls-11" d="M294.14,283.89l-6.89-4c-.56-.32-.49-.88.15-1.25l6.83-4a2.4,2.4,0,0,1,2.16-.09l6.9,4c.55.32.48.88-.16,1.25l-6.83,3.95A2.4,2.4,0,0,1,294.14,283.89Z"/><path class="cls-11" d="M304.79,290.05l-6.89-4c-.56-.32-.49-.88.15-1.25l6.83-3.95a2.4,2.4,0,0,1,2.16-.09l6.9,4c.55.32.48.88-.16,1.25L307,290A2.4,2.4,0,0,1,304.79,290.05Z"/><path class="cls-11" d="M315.44,296.21l-6.9-4c-.55-.32-.48-.88.16-1.25l6.83-4a2.4,2.4,0,0,1,2.16-.09l6.89,4c.56.32.49.88-.15,1.25l-6.83,3.95A2.4,2.4,0,0,1,315.44,296.21Z"/><path class="cls-11" d="M326.08,302.37l-6.89-4c-.55-.32-.48-.88.16-1.25l6.83-3.95a2.4,2.4,0,0,1,2.16-.09l6.89,4c.55.32.49.88-.15,1.25l-6.84,3.95A2.4,2.4,0,0,1,326.08,302.37Z"/><path class="cls-11" d="M336.73,308.52l-6.89-4c-.56-.32-.49-.88.15-1.25l6.83-4a2.4,2.4,0,0,1,2.16-.09l6.9,4c.55.32.48.88-.16,1.25l-6.83,3.95A2.4,2.4,0,0,1,336.73,308.52Z"/><path class="cls-11" d="M347.38,314.68l-6.9-4c-.55-.32-.48-.88.16-1.25l6.83-3.95a2.4,2.4,0,0,1,2.16-.09l6.9,4c.55.32.48.88-.16,1.25l-6.83,3.95A2.4,2.4,0,0,1,347.38,314.68Z"/><path class="cls-11" d="M358,320.84l-6.9-4c-.55-.32-.48-.88.16-1.25l6.83-4a2.4,2.4,0,0,1,2.16-.09l6.89,4c.56.32.49.88-.15,1.25l-6.83,3.95A2.4,2.4,0,0,1,358,320.84Z"/><path class="cls-11" d="M368.67,327l-6.89-4c-.55-.32-.48-.88.16-1.25l6.83-3.95a2.4,2.4,0,0,1,2.16-.09l6.89,4c.55.32.49.88-.15,1.25l-6.84,4A2.4,2.4,0,0,1,368.67,327Z"/><path class="cls-11" d="M387.6,337.94l-15-8.7c-.55-.32-.48-.88.15-1.25l6.84-3.95a2.4,2.4,0,0,1,2.16-.09l15,8.7c.55.32.48.88-.16,1.25l-6.83,4A2.4,2.4,0,0,1,387.6,337.94Z"/><path class="cls-11" d="M408.33,326l-12.69-7.34c-.56-.32-.49-.88.15-1.25l6.83-3.95a2.4,2.4,0,0,1,2.16-.09l12.7,7.35c.55.32.48.87-.16,1.24l-6.83,3.95A2.4,2.4,0,0,1,408.33,326Z"/><path class="cls-11" d="M302.14,276.53l-6.89-4c-.56-.32-.49-.88.15-1.25l6.83-4a2.4,2.4,0,0,1,2.16-.09l6.9,4c.55.32.48.88-.16,1.25l-6.83,3.95A2.4,2.4,0,0,1,302.14,276.53Z"/><path class="cls-11" d="M291.23,270.22l-6.9-4c-.55-.32-.48-.88.16-1.25l6.83-4a2.4,2.4,0,0,1,2.16-.09l6.89,4c.56.32.49.88-.15,1.25l-6.83,3.95A2.4,2.4,0,0,1,291.23,270.22Z"/><path class="cls-11" d="M280.32,263.91l-6.9-4c-.55-.32-.48-.88.16-1.25l6.83-4a2.4,2.4,0,0,1,2.16-.09l6.89,4c.56.32.49.88-.15,1.25l-6.83,3.95A2.4,2.4,0,0,1,280.32,263.91Z"/><path class="cls-11" d="M269.4,257.6l-6.89-4c-.55-.32-.49-.88.15-1.25l6.84-4a2.4,2.4,0,0,1,2.16-.09l6.89,4c.55.32.48.88-.16,1.25l-6.83,3.95A2.4,2.4,0,0,1,269.4,257.6Z"/><path class="cls-11" d="M312.79,282.69l-6.9-4c-.55-.32-.48-.88.16-1.25l6.83-3.95a2.4,2.4,0,0,1,2.16-.09l6.89,4c.56.32.49.88-.15,1.25l-6.83,4A2.4,2.4,0,0,1,312.79,282.69Z"/><path class="cls-11" d="M323.44,288.85l-6.9-4c-.55-.32-.48-.88.16-1.25l6.83-3.95a2.4,2.4,0,0,1,2.16-.09l6.89,4c.56.32.49.88-.15,1.25l-6.83,3.95A2.4,2.4,0,0,1,323.44,288.85Z"/><path class="cls-11" d="M334.08,295l-6.89-4c-.55-.32-.49-.88.15-1.25l6.84-3.95a2.38,2.38,0,0,1,2.15-.09l6.9,4c.55.32.48.88-.16,1.25l-6.83,4A2.4,2.4,0,0,1,334.08,295Z"/><path class="cls-11" d="M344.73,301.16l-6.89-4c-.56-.32-.49-.88.15-1.25l6.83-3.95a2.4,2.4,0,0,1,2.16-.09l6.9,4c.55.32.48.88-.16,1.25l-6.83,3.95A2.4,2.4,0,0,1,344.73,301.16Z"/><path class="cls-11" d="M355.38,307.32l-6.9-4c-.55-.32-.48-.88.16-1.25l6.83-3.95a2.4,2.4,0,0,1,2.16-.09l6.89,4c.56.32.49.88-.15,1.25l-6.83,4A2.4,2.4,0,0,1,355.38,307.32Z"/><path class="cls-11" d="M366,313.48l-6.9-4c-.55-.32-.48-.88.16-1.25l6.83-3.95a2.4,2.4,0,0,1,2.16-.09l6.89,4c.56.32.49.88-.15,1.25l-6.83,3.95A2.4,2.4,0,0,1,366,313.48Z"/><path class="cls-11" d="M376.67,319.63l-6.89-4c-.56-.32-.49-.88.15-1.25l6.84-3.95a2.38,2.38,0,0,1,2.15-.09l6.9,4c.55.32.48.88-.16,1.25l-6.83,4A2.4,2.4,0,0,1,376.67,319.63Z"/><path class="cls-11" d="M387.32,325.79l-6.89-4c-.56-.32-.49-.88.15-1.25l6.83-3.95a2.4,2.4,0,0,1,2.16-.09l6.9,4c.55.32.48.88-.16,1.25l-6.83,3.95A2.4,2.4,0,0,1,387.32,325.79Z"/><path class="cls-11" d="M398,332l-6.9-4c-.55-.32-.48-.88.16-1.25l6.83-3.95a2.4,2.4,0,0,1,2.16-.09l6.89,4c.56.32.49.88-.15,1.25l-6.83,3.95A2.4,2.4,0,0,1,398,332Z"/><path class="cls-11" d="M296.53,261.3l-6.89-4c-.55-.32-.48-.88.15-1.25l6.84-3.95a2.4,2.4,0,0,1,2.16-.09l6.89,4c.55.32.48.88-.15,1.25l-6.84,3.95A2.4,2.4,0,0,1,296.53,261.3Z"/><path class="cls-11" d="M285.94,255.17l-6.9-4c-.55-.32-.48-.88.16-1.25L286,246a2.4,2.4,0,0,1,2.16-.09l6.9,4c.55.32.48.88-.16,1.25l-6.83,4A2.4,2.4,0,0,1,285.94,255.17Z"/><path class="cls-11" d="M275.35,249.05l-6.9-4c-.55-.32-.48-.88.16-1.25l6.83-3.95a2.4,2.4,0,0,1,2.16-.09l6.89,4c.56.32.49.88-.15,1.25l-6.84,4A2.38,2.38,0,0,1,275.35,249.05Z"/><path class="cls-11" d="M264.75,242.92l-6.89-4c-.56-.32-.49-.88.15-1.25l6.83-4a2.4,2.4,0,0,1,2.16-.09l6.9,4c.55.32.48.88-.16,1.25l-6.83,4A2.4,2.4,0,0,1,264.75,242.92Z"/><path class="cls-11" d="M275.64,236.62l-6.89-4c-.55-.32-.48-.88.16-1.25l2.25-1.3a2.4,2.4,0,0,1,2.16-.09l6.9,4c.55.32.48.88-.16,1.25l-2.26,1.31A2.4,2.4,0,0,1,275.64,236.62Z"/><path class="cls-11" d="M289.47,244.61l-6.89-4c-.56-.32-.49-.88.15-1.25l2.26-1.31a2.4,2.4,0,0,1,2.16-.09l6.89,4c.56.32.49.88-.15,1.25l-2.26,1.31A2.39,2.39,0,0,1,289.47,244.61Z"/><path class="cls-11" d="M300,250.72l-6.89-4c-.56-.32-.49-.88.15-1.25l2.26-1.31a2.4,2.4,0,0,1,2.16-.09l6.89,4c.56.32.49.88-.15,1.25l-2.26,1.31A2.4,2.4,0,0,1,300,250.72Z"/><path class="cls-11" d="M310.57,256.82l-6.89-4c-.56-.32-.49-.88.15-1.25l2.26-1.3a2.4,2.4,0,0,1,2.16-.09l6.89,4c.56.32.49.88-.15,1.25l-2.26,1.31A2.4,2.4,0,0,1,310.57,256.82Z"/><path class="cls-11" d="M321.12,262.92l-6.89-4c-.56-.32-.49-.88.15-1.25l2.26-1.3a2.4,2.4,0,0,1,2.16-.09l6.9,4c.55.32.48.88-.16,1.25l-2.26,1.31A2.4,2.4,0,0,1,321.12,262.92Z"/><path class="cls-11" d="M380,297l-6.89-4c-.56-.32-.49-.87.15-1.24l2.26-1.31a2.4,2.4,0,0,1,2.16-.09l6.9,4c.55.32.48.88-.16,1.25l-2.26,1.3A2.4,2.4,0,0,1,380,297Z"/><path class="cls-11" d="M390.57,303.08l-6.89-4c-.55-.32-.49-.88.15-1.25l2.26-1.31a2.4,2.4,0,0,1,2.16-.09l6.9,4c.55.32.48.88-.16,1.25l-2.26,1.3A2.4,2.4,0,0,1,390.57,303.08Z"/><path class="cls-11" d="M401.12,309.18l-6.89-4c-.55-.32-.48-.88.15-1.25l2.26-1.31a2.4,2.4,0,0,1,2.16-.09l6.9,4c.55.32.48.88-.16,1.25l-2.26,1.31A2.39,2.39,0,0,1,401.12,309.18Z"/><path class="cls-11" d="M411.67,315.29l-6.89-4c-.55-.32-.48-.88.15-1.25l2.26-1.31a2.4,2.4,0,0,1,2.16-.09l6.9,4c.55.32.48.88-.16,1.25l-2.26,1.31A2.4,2.4,0,0,1,411.67,315.29Z"/><path class="cls-11" d="M307.18,267.46l-6.89-4c-.56-.32-.49-.88.15-1.25l6.83-4a2.4,2.4,0,0,1,2.16-.09l6.9,4c.55.32.48.88-.16,1.25l-6.83,3.95A2.4,2.4,0,0,1,307.18,267.46Z"/><path class="cls-11" d="M317.83,273.62l-6.9-4c-.55-.32-.48-.88.16-1.25l6.83-3.95a2.4,2.4,0,0,1,2.16-.09l6.9,4c.55.32.48.88-.16,1.25L320,273.53A2.4,2.4,0,0,1,317.83,273.62Z"/><path class="cls-11" d="M328.48,279.77l-6.9-4c-.55-.32-.48-.88.16-1.25l6.83-4a2.4,2.4,0,0,1,2.16-.09l6.89,4c.56.32.49.88-.15,1.25l-6.83,3.95A2.4,2.4,0,0,1,328.48,279.77Z"/><path class="cls-11" d="M339.12,285.93l-6.89-4c-.55-.32-.48-.88.15-1.25l6.84-3.95a2.4,2.4,0,0,1,2.16-.09l6.89,4c.55.32.48.88-.15,1.25l-6.84,3.95A2.4,2.4,0,0,1,339.12,285.93Z"/><path class="cls-11" d="M349.77,292.09l-6.89-4c-.56-.32-.49-.88.15-1.25l6.83-4a2.4,2.4,0,0,1,2.16-.09l6.9,4c.55.32.48.88-.16,1.25L351.93,292A2.4,2.4,0,0,1,349.77,292.09Z"/><path class="cls-11" d="M360.42,298.25l-6.9-4c-.55-.32-.48-.88.16-1.25l6.83-3.95a2.4,2.4,0,0,1,2.16-.09l6.9,4c.55.32.48.88-.16,1.25l-6.83,4A2.4,2.4,0,0,1,360.42,298.25Z"/><path class="cls-11" d="M371.07,304.4l-6.9-4c-.55-.32-.48-.88.16-1.25l6.83-3.95a2.4,2.4,0,0,1,2.16-.09l6.89,4c.56.32.49.88-.15,1.25l-6.83,3.95A2.4,2.4,0,0,1,371.07,304.4Z"/><path class="cls-11" d="M381.71,310.56l-6.89-4c-.55-.32-.48-.88.15-1.25l6.84-3.95a2.4,2.4,0,0,1,2.16-.09l6.89,4c.55.32.48.88-.15,1.25l-6.84,4A2.4,2.4,0,0,1,381.71,310.56Z"/><path class="cls-11" d="M392.36,316.72l-6.89-4c-.56-.32-.49-.88.15-1.25l6.83-4a2.4,2.4,0,0,1,2.16-.09l6.9,4c.55.32.48.88-.16,1.25l-6.83,3.95A2.4,2.4,0,0,1,392.36,316.72Z"/><path class="cls-11" d="M246.31,268.22,226,256.48c-.55-.32-.48-.88.16-1.25l6.83-3.95a2.4,2.4,0,0,1,2.16-.09l20.3,11.74c.56.32.49.88-.15,1.25l-6.83,3.95A2.4,2.4,0,0,1,246.31,268.22Z"/><path class="cls-11" d="M377.12,343.87l-20.31-11.75c-.55-.32-.48-.88.15-1.25l6.84-3.95a2.4,2.4,0,0,1,2.16-.09l20.3,11.75c.56.32.49.88-.15,1.24l-6.84,4A2.38,2.38,0,0,1,377.12,343.87Z"/><path class="cls-11" d="M334.53,332.84l-6.89-4c-.55-.32-.48-.88.15-1.24l8.14-4.71a2.4,2.4,0,0,1,2.16-.09l6.9,4c.55.32.48.88-.16,1.25l-8.14,4.7A2.4,2.4,0,0,1,334.53,332.84Z"/><path class="cls-11" d="M257.21,288.13l-11-6.38c-.56-.32-.49-.88.15-1.25l8.14-4.71a2.4,2.4,0,0,1,2.16-.09l11,6.38c.55.32.48.88-.16,1.25L259.37,288A2.4,2.4,0,0,1,257.21,288.13Z"/><path class="cls-11" d="M324.28,326.91l-11-6.38c-.55-.32-.49-.88.15-1.25l8.14-4.7a2.4,2.4,0,0,1,2.16-.09l11,6.37c.55.32.48.88-.16,1.25l-8.13,4.71A2.4,2.4,0,0,1,324.28,326.91Z"/><path class="cls-11" d="M272.57,297l-11-6.38c-.56-.32-.49-.88.15-1.25l8.14-4.7a2.4,2.4,0,0,1,2.16-.09L283,291c.55.32.48.88-.16,1.25l-8.14,4.71A2.4,2.4,0,0,1,272.57,297Z"/><path class="cls-11" d="M272.08,284.63,320,312.36a.66.66,0,0,1,0,1.24l-8.3,4.8a2.41,2.41,0,0,1-2.16,0l-47.94-27.72Z"/><path class="cls-11" d="M364.29,344l7.68,4.44c.46.26.4.72-.12,1l-3.33,1.93a2,2,0,0,1-1.77.07L359.07,347c-.46-.26-.4-.72.12-1l3.33-1.92A2,2,0,0,1,364.29,344Z"/><path class="cls-11" d="M353.56,337.8l7.68,4.44c.45.26.39.72-.13,1l-3.33,1.93a2,2,0,0,1-1.77.07l-7.68-4.44c-.45-.26-.4-.72.13-1l3.33-1.93A2,2,0,0,1,353.56,337.8Z"/><path class="cls-11" d="M342.91,331.64l7.68,4.44c.45.26.4.72-.13,1L347.13,339a2,2,0,0,1-1.77.07l-7.68-4.44c-.45-.26-.39-.72.13-1l3.33-1.93A2,2,0,0,1,342.91,331.64Z"/><path class="cls-11" d="M359.44,334.4l7.68,4.44c.45.26.39.72-.13,1l-3.33,1.93a2,2,0,0,1-1.77.07l-7.68-4.44c-.45-.26-.4-.72.13-1l3.33-1.93A2,2,0,0,1,359.44,334.4Z"/></g><path class="cls-12" d="M472.12,321.94,268.71,204.3A9,9,0,0,1,265,194.24L311,44.63c1.14-3.71,4.66-5.22,7.86-3.37L522.25,158.9A9,9,0,0,1,526,169l-46,149.6C478.84,322.28,475.32,323.79,472.12,321.94Z"/><path class="cls-13" d="M470.2,316.7,272.9,202.5a8.62,8.62,0,0,1-3.56-9.63l44-143c1.09-3.55,4.46-5,7.52-3.23l197.3,114.2a8.64,8.64,0,0,1,3.57,9.63l-44,143C476.63,317,473.27,318.47,470.2,316.7Z"/><path class="cls-14" d="M470.2,316.7,272.9,202.5a8.62,8.62,0,0,1-3.56-9.63l44-143c1.09-3.55,4.46-5,7.52-3.23l197.3,114.2a8.64,8.64,0,0,1,3.57,9.63l-44,143C476.63,317,473.27,318.47,470.2,316.7Z"/><path class="cls-14" d="M470.2,316.7,272.9,202.5a8.62,8.62,0,0,1-3.56-9.63l44-143c1.09-3.55,4.46-5,7.52-3.23l197.3,114.2a8.64,8.64,0,0,1,3.57,9.63l-44,143C476.63,317,473.27,318.47,470.2,316.7Z"/><path class="cls-15" d="M459.6,273,326,195.75a5.94,5.94,0,0,1-2.45-6.61L353.8,90.91c.75-2.44,3.06-3.43,5.16-2.21l133.56,77.24a5.94,5.94,0,0,1,2.45,6.61l-30.21,98.23C464,273.22,461.7,274.21,459.6,273Z"/><path class="cls-16" d="M441.56,275.36,308,198.12a5.92,5.92,0,0,1-2.45-6.61l30.2-98.23a3.43,3.43,0,0,1,5.16-2.21l133.56,77.24a5.93,5.93,0,0,1,2.45,6.61l-30.2,98.23C446,275.59,443.66,276.58,441.56,275.36Z"/><g class="cls-17"><path class="cls-11" d="M441.56,275.36,308,198.12a5.92,5.92,0,0,1-2.45-6.61l30.2-98.23a3.43,3.43,0,0,1,5.16-2.21l133.56,77.24a5.93,5.93,0,0,1,2.45,6.61l-30.2,98.23C446,275.59,443.66,276.58,441.56,275.36Z"/></g><path class="cls-9" d="M474.47,168.31,340.91,91.07a3.32,3.32,0,0,0-3.76.13,3.58,3.58,0,0,1,1.93.49l133.56,77.24a5.93,5.93,0,0,1,2.45,6.61l-30.2,98.24a4.06,4.06,0,0,1-1.4,2.08,3.54,3.54,0,0,0,3.23-2.71l30.2-98.23A5.93,5.93,0,0,0,474.47,168.31Z"/><path class="cls-14" d="M273.11,355.58a10,10,0,0,1-4.95-1.16h0l-53.52-30.95a3.87,3.87,0,0,1-2.19-3.3c0-1.52,1.07-3,3-4.1l27.54-15.93c3.37-1.94,8.31-2.13,11.25-.43l53.51,31a3.86,3.86,0,0,1,2.2,3.3c0,1.52-1.07,3-2.95,4.09L279.41,354A13,13,0,0,1,273.11,355.58Zm-23.84-55.47a11.43,11.43,0,0,0-5.56,1.38l-27.54,15.92c-1.39.81-2.18,1.81-2.18,2.76a2.44,2.44,0,0,0,1.43,2l53.51,30.95c2.43,1.4,6.87,1.2,9.7-.44l27.55-15.93c1.38-.8,2.18-1.8,2.18-2.75a2.44,2.44,0,0,0-1.43-2l-53.51-30.95A8.48,8.48,0,0,0,249.27,300.11Z"/><path class="cls-9" d="M373.44,142.61l-8.26-4.78a2.16,2.16,0,0,1-.91-2.38h0a1.22,1.22,0,0,1,1.85-.77l8.26,4.77a2.16,2.16,0,0,1,.92,2.38h0A1.23,1.23,0,0,1,373.44,142.61Z"/><path class="cls-9" d="M393.11,154l-12.18-7a2.16,2.16,0,0,1-.91-2.38h0a1.21,1.21,0,0,1,1.85-.77l12.18,7a2.15,2.15,0,0,1,.92,2.38h0A1.22,1.22,0,0,1,393.11,154Z"/><path class="cls-9" d="M356.79,179.43l-8.26-4.78a2.15,2.15,0,0,1-.92-2.37h0a1.23,1.23,0,0,1,1.86-.78l8.26,4.78a2.18,2.18,0,0,1,.92,2.38h0A1.23,1.23,0,0,1,356.79,179.43Z"/><path class="cls-9" d="M374.32,189.57l-12.17-7a2.15,2.15,0,0,1-.92-2.38h0a1.22,1.22,0,0,1,1.86-.77l12.17,7a2.15,2.15,0,0,1,.92,2.38h0A1.22,1.22,0,0,1,374.32,189.57Z"/><path class="cls-9" d="M348.71,136l-5.16-3a2.15,2.15,0,0,1-.92-2.38h0a1.22,1.22,0,0,1,1.86-.77l5.16,3a2.16,2.16,0,0,1,.91,2.38h0A1.21,1.21,0,0,1,348.71,136Z"/><path class="cls-9" d="M364.23,152.76l-15.76-9.11a2.16,2.16,0,0,1-.92-2.38h0a1.22,1.22,0,0,1,1.86-.77l15.76,9.11a2.16,2.16,0,0,1,.91,2.38h0A1.21,1.21,0,0,1,364.23,152.76Z"/><path class="cls-9" d="M349.69,159.84l-5.16-3a2.17,2.17,0,0,1-.91-2.38h0a1.21,1.21,0,0,1,1.85-.77l5.16,3a2.15,2.15,0,0,1,.92,2.38h0A1.22,1.22,0,0,1,349.69,159.84Z"/><path class="cls-9" d="M376.22,206.15l-13.77-8a2.16,2.16,0,0,1-.92-2.38h0a1.22,1.22,0,0,1,1.85-.78l13.78,8a2.15,2.15,0,0,1,.92,2.38h0A1.22,1.22,0,0,1,376.22,206.15Z"/><path class="cls-9" d="M343.91,172l-3.31-1.91a2.16,2.16,0,0,1-.92-2.38h0a1.23,1.23,0,0,1,1.86-.78l3.31,1.92a2.17,2.17,0,0,1,.92,2.38h0A1.22,1.22,0,0,1,343.91,172Z"/><path class="cls-9" d="M340.78,185.65l-4.12-2.37a2.17,2.17,0,0,1-.91-2.38h0a1.22,1.22,0,0,1,1.85-.78l4.12,2.38a2.16,2.16,0,0,1,.91,2.38h0A1.21,1.21,0,0,1,340.78,185.65Z"/><path class="cls-9" d="M356.77,194.91l-10.84-6.27a2.19,2.19,0,0,1-.92-2.38h0a1.23,1.23,0,0,1,1.86-.78l10.84,6.27a2.16,2.16,0,0,1,.92,2.38h0A1.23,1.23,0,0,1,356.77,194.91Z"/><path class="cls-9" d="M342.49,194.39l-7.79-4.51a2.15,2.15,0,0,1-.92-2.38h0a1.22,1.22,0,0,1,1.86-.77l7.79,4.51a2.14,2.14,0,0,1,.92,2.37h0A1.22,1.22,0,0,1,342.49,194.39Z"/><path class="cls-9" d="M388,213l-5-2.89a2.16,2.16,0,0,1-.92-2.38h0A1.23,1.23,0,0,1,384,207l5,2.9a2.15,2.15,0,0,1,.92,2.38h0A1.22,1.22,0,0,1,388,213Z"/><path class="cls-9" d="M368.88,170.94l-13.78-8a2.17,2.17,0,0,1-.92-2.38h0a1.22,1.22,0,0,1,1.86-.77l13.78,8a2.19,2.19,0,0,1,.92,2.38h0A1.23,1.23,0,0,1,368.88,170.94Z"/><path class="cls-18" d="M370.51,164.14l-24-13.89a2.15,2.15,0,0,1-.92-2.38h0a1.22,1.22,0,0,1,1.86-.77l24,13.89a2.15,2.15,0,0,1,.92,2.38h0A1.22,1.22,0,0,1,370.51,164.14Z"/><path class="cls-18" d="M356.34,171.43l-13.77-8a2.15,2.15,0,0,1-.92-2.38h0a1.22,1.22,0,0,1,1.85-.77l13.78,8a2.15,2.15,0,0,1,.92,2.38h0A1.22,1.22,0,0,1,356.34,171.43Z"/><path class="cls-18" d="M379.33,177l-5-2.89a2.17,2.17,0,0,1-.91-2.38h0a1.22,1.22,0,0,1,1.85-.78l5,2.9a2.18,2.18,0,0,1,.92,2.38h0A1.23,1.23,0,0,1,379.33,177Z"/><path class="cls-18" d="M430.25,175.46,400.6,158.31a2.15,2.15,0,0,1-.91-2.37h0a1.22,1.22,0,0,1,1.85-.78l29.65,17.15a2.15,2.15,0,0,1,.91,2.37h0A1.22,1.22,0,0,1,430.25,175.46Z"/><path class="cls-19" d="M355.19,186.25l-16.56-9.58a2.17,2.17,0,0,1-.92-2.38h0a1.22,1.22,0,0,1,1.86-.77l16.56,9.58a2.15,2.15,0,0,1,.92,2.38h0A1.22,1.22,0,0,1,355.19,186.25Z"/><path class="cls-19" d="M357.69,133.5l-12.18-7a2.17,2.17,0,0,1-.91-2.38h0a1.22,1.22,0,0,1,1.85-.78l12.18,7a2.16,2.16,0,0,1,.92,2.38h0A1.23,1.23,0,0,1,357.69,133.5Z"/><path class="cls-18" d="M340,200.66l-14.11-8.16a2.15,2.15,0,0,1-.91-2.37h0a1.22,1.22,0,0,1,1.85-.78l14.1,8.16a2.14,2.14,0,0,1,.92,2.37h0A1.22,1.22,0,0,1,340,200.66Z"/><path class="cls-9" d="M433.57,160.19l-6-3.49a1.59,1.59,0,0,1-.67-1.74h0a.9.9,0,0,1,1.36-.57l6,3.49a1.58,1.58,0,0,1,.67,1.74h0A.9.9,0,0,1,433.57,160.19Z"/><path class="cls-9" d="M445.09,166.84l-6-3.49a1.57,1.57,0,0,1-.67-1.73h0a.9.9,0,0,1,1.36-.57l6,3.49a1.57,1.57,0,0,1,.67,1.74h0A.88.88,0,0,1,445.09,166.84Z"/><path class="cls-9" d="M456.6,173.5l-6-3.49a1.57,1.57,0,0,1-.67-1.74h0a.89.89,0,0,1,1.36-.56l6,3.49a1.57,1.57,0,0,1,.67,1.74h0A.89.89,0,0,1,456.6,173.5Z"/><path class="cls-19" d="M462.26,176.78l-.18-.11a1.57,1.57,0,0,1-.67-1.74h0a.89.89,0,0,1,1.35-.56l.18.11a1.57,1.57,0,0,1,.68,1.73h0A.9.9,0,0,1,462.26,176.78Z"/><path class="cls-20" d="M150.75,247.53a22,22,0,0,1-11.05-3h0L99.27,221.19a5.61,5.61,0,0,1,0-9.71L139.7,188.1a22.12,22.12,0,0,1,22.09,0l40.43,23.38a5.61,5.61,0,0,1,0,9.71l-40.43,23.38A21.92,21.92,0,0,1,150.75,247.53ZM141,242.29a19.51,19.51,0,0,0,19.47,0l40.43-23.38a3,3,0,0,0,0-5.15l-40.43-23.38a19.51,19.51,0,0,0-19.47,0l-40.43,23.38a3,3,0,0,0,0,5.15Z"/><ellipse class="cls-4" cx="150.54" cy="216.89" rx="27.77" ry="16.06"/><path class="cls-21" d="M191.71,102.42h-79.1L120,188.21h0c0,4.76,3.15,9.53,9.43,13.16,12.58,7.27,33,7.27,45.53,0,6.29-3.63,9.43-8.4,9.43-13.16Z"/><path class="cls-14" d="M191.71,102.42h-79.1l1.21,14.11a30.78,30.78,0,0,0,7.33,6.61c15.11,10,40,12,57.07,4.75l-2.63,62.74a12.38,12.38,0,0,1-2.83,7.48c-2.56,3-7.5,6.58-17,8.58a44.52,44.52,0,0,0,19.14-5.32c6.29-3.63,9.43-8.4,9.43-13.16l5.9-68.8h0Z"/><ellipse class="cls-14" cx="152.16" cy="102.42" rx="39.55" ry="22.87"/><ellipse class="cls-14" cx="152.16" cy="94.36" rx="34.07" ry="19.7"/><path class="cls-22" d="M194.05,101.34h0v-.07a.49.49,0,0,1,0-.12l-.76-7.68,0,.09c-.34-5.81-4.33-11.57-12-16-16.06-9.29-42.09-9.29-58.15,0-7.87,4.55-11.87,10.49-12,16.45v0l-.72,6.84-.06.53v.11h0c-.43,6.51,3.64,13.11,12.24,18.09,16.38,9.47,42.93,9.47,59.31,0C190.47,114.55,194.54,107.9,194.05,101.34Z"/><ellipse class="cls-23" cx="152.16" cy="94.36" rx="34.07" ry="19.7"/><ellipse class="cls-24" cx="150.54" cy="94.36" rx="34.07" ry="19.7"/><path class="cls-14" d="M132.11,83.36c13.3-7.69,34.87-7.69,48.18,0,.17.1.31.21.47.31a26.47,26.47,0,0,0-4.52-3.24c-13.3-7.69-34.87-7.69-48.17,0-13.13,7.59-13.28,19.84-.48,27.56C119.05,100.35,120.54,90.05,132.11,83.36Z"/><path class="cls-25" d="M128.07,83.85c13.3-7.69,34.87-7.69,48.17,0,5.9,3.41,9.18,7.76,9.85,12.22.84-5.6-2.44-11.36-9.85-15.64-13.3-7.69-34.87-7.69-48.17,0-7.4,4.28-10.68,10-9.84,15.64C118.89,91.61,122.17,87.26,128.07,83.85Z"/><path class="cls-26" d="M181.49,77.74c-16-9.46-42.17-9.69-58.37-.51s-16.33,24.29-.29,33.75,42.16,9.69,58.36.51S197.52,87.2,181.49,77.74Zm-5.24,30.55a44.34,44.34,0,0,1-15.49,5.11l-.62-2a2,2,0,0,0-1.87-1.38H146a1.94,1.94,0,0,0-1.86,1.38l-.62,2a44.27,44.27,0,0,1-15.49-5.11c-13.3-7.69-13.3-20.17,0-27.86s34.87-7.69,48.17,0S189.55,100.6,176.25,108.29Z"/><path class="cls-9" d="M176.24,79c-13.3-7.69-34.87-7.69-48.17,0-7,4-10.28,9.38-9.95,14.66.31-4.8,3.62-9.54,9.95-13.2,13.3-7.69,34.87-7.69,48.17,0,6.34,3.66,9.65,8.4,9.95,13.2C186.53,88.35,183.22,83,176.24,79Z"/><path class="cls-9" d="M181.19,110c-16.2,9.18-42.33,9-58.36-.51-7.63-4.5-11.59-10.29-11.91-16.1-.32,6.3,3.64,12.68,11.91,17.56,16,9.46,42.16,9.69,58.36.51,8.49-4.81,12.56-11.25,12.21-17.65C193.1,99.75,189,105.59,181.19,110Z"/><rect class="cls-27" x="147.58" y="112.48" width="9.16" height="1.98" rx="0.65"/><path class="cls-28" d="M155.81,112.48H148.5a.93.93,0,0,0-.92.93v.13a.7.7,0,0,0,0,.25.91.91,0,0,1,.87-.68h7.31a.91.91,0,0,1,.88.68,1,1,0,0,0,.05-.25v-.13A.93.93,0,0,0,155.81,112.48Z"/><path class="cls-29" d="M154.75,113.47s22.11-7.42,13.16-32.87S141.52,47.39,148.54,27c0,0-11,16.48-.72,38.78s12.54,19.74,12.42,30.41a19.22,19.22,0,0,1-10.36,17.25Z"/><path class="cls-29" d="M156.74,30.57S154.43,15.34,168.69,0c0,0-12.61,28.21-8.48,42.14C160.21,42.14,156.87,33.28,156.74,30.57Z"/></g></g></svg>