<svg xmlns="http://www.w3.org/2000/svg" viewBox="0 0 100 100"><defs><style>.cls-1{fill:#1e88e5;}.cls-2{fill:#fafafa;}.cls-3{fill:#1458c8;}</style></defs><title>messenger</title><g id="Capa_2" data-name="Capa 2"><g id="Capa_1-2" data-name="Capa 1"><path class="cls-1" d="M50,18.75c-17.26,0-31.25,13-31.25,28.93A28.12,28.12,0,0,0,30.39,70.21v11L41,75.41a33.36,33.36,0,0,0,9,1.21c17.26,0,31.25-13,31.25-28.93S67.26,18.75,50,18.75Z"/><polygon class="cls-2" points="53.1 57.72 45.15 49.23 29.62 57.72 46.7 39.58 54.85 48.07 70.19 39.58 53.1 57.72"/><g id="Capa_1-2-2" data-name="Capa 1-2"><polygon class="cls-1" points="50 0 50 8.08 91.92 8.08 91.92 91.92 50 91.92 50 100 100 100 100 0 50 0"/><polygon class="cls-3" points="8.08 91.92 8.08 8.08 50 8.08 50 0 0 0 0 100 50 100 50 91.92 8.08 91.92"/></g></g></g></svg>