<svg xmlns="http://www.w3.org/2000/svg" viewBox="0 0 100 100"><defs><style>.cls-1{fill:#da0a16;}.cls-2{fill:#fff;}</style></defs><title>pin_audiovisual</title><g id="Capa_2" data-name="Capa 2"><g id="Capa_1-2" data-name="Capa 1"><g id="Capa_2-2" data-name="Capa 2"><g id="Capa_1-2-2" data-name="Capa 1-2"><circle class="cls-1" cx="50" cy="50" r="50"/><path class="cls-2" d="M79.07,46.1l-9.84,6.4V45.83a1.79,1.79,0,0,0-1.8-1.76h-4.1A12.27,12.27,0,1,0,46.43,31.6H46.2A11.33,11.33,0,1,0,30.57,44.07h-5.1a1.76,1.76,0,0,0-1.77,1.76v25.6a1.77,1.77,0,0,0,1.77,1.77h42a1.8,1.8,0,0,0,1.8-1.77V64.77l9.84,6.36a.56.56,0,0,0,.78-.18.5.5,0,0,0,.08-.32v-24a.57.57,0,0,0-.47-.65A.49.49,0,0,0,79.07,46.1Zm-34.4,8.23a1.5,1.5,0,0,1-1.5,1.5H31.77a1.5,1.5,0,0,1-1.5-1.5h0V51a1.5,1.5,0,0,1,1.5-1.5H43.33a1.5,1.5,0,0,1,1.5,1.5Z"/></g></g></g></g></svg>