<svg xmlns="http://www.w3.org/2000/svg" viewBox="0 0 100 100"><defs><style>.cls-1{fill:#0083f5;}.cls-2{fill:#fff;}</style></defs><title>pin_música</title><g id="Capa_2" data-name="Capa 2"><g id="Capa_1-2" data-name="Capa 1"><g id="Capa_2-2" data-name="Capa 2"><g id="Capa_1-2-2" data-name="Capa 1-2"><circle class="cls-1" cx="50" cy="50" r="50"/><path class="cls-2" d="M75.2,19.73V66.07a9.73,9.73,0,1,1-8.7-10.7,9.9,9.9,0,0,1,2.93.76,1.07,1.07,0,0,0,1.4-.56h0a.82.82,0,0,0,0-.44V33.63a1.07,1.07,0,0,0-.36-.8,1.19,1.19,0,0,0-.87-.26L39.33,36.9A1.1,1.1,0,0,0,38.4,38V70.5a9.77,9.77,0,1,1-9.77-9.77h0a10,10,0,0,1,3.93.84A1.07,1.07,0,0,0,34,61h0a1,1,0,0,0,0-.43V25.9Z"/></g></g></g></g></svg>