<svg xmlns="http://www.w3.org/2000/svg" viewBox="0 0 100 100"><defs><style>.cls-1{fill:#3cdc32;}.cls-2{fill:#fff;}</style></defs><title>pin_diseño</title><g id="Capa_2" data-name="Capa 2"><g id="Capa_1-2" data-name="Capa 1"><g id="Capa_2-2" data-name="Capa 2"><g id="Capa_1-2-2" data-name="Capa 1-2"><circle class="cls-1" cx="50" cy="50" r="50"/><path class="cls-2" d="M31.67,75.17l-9.47,3.1a.37.37,0,0,1-.46-.24.45.45,0,0,1,0-.2l3.1-9.5.27.3,3.33,3.14h0l3.14,3.13Z"/><path class="cls-2" d="M82.17,34.73l-2.6,2.57-8.44-8.43L62.7,20.43l2.57-2.6a7,7,0,0,1,9.94,0l.06,0,7,7A7,7,0,0,1,82.17,34.73Z"/><polygon class="cls-2" points="76.37 40.5 75.8 41.07 71.8 45.07 71.8 45.1 71.8 45.1 71 45.87 70.83 46.07 62.37 37.63 53.93 29.17 54.13 29 54.13 29 59.5 23.6 59.5 23.63 67.93 32.07 67.93 32.07 76.37 40.5"/><polygon class="cls-2" points="46.47 70.33 36.47 73.6 31.43 68.57 26.4 63.53 29.7 53.57 46.47 70.33"/><polygon class="cls-2" points="67.63 49.27 49.7 67.17 41.27 58.73 32.83 50.3 50.73 32.37 67.63 49.27"/></g></g></g></g></svg>