<svg xmlns="http://www.w3.org/2000/svg" viewBox="0 0 100 100"><defs><style>.cls-1{fill:#bb30bb;}.cls-2{fill:#fff;}</style></defs><title>pin_software</title><g id="Capa_2" data-name="Capa 2"><g id="Capa_1-2" data-name="Capa 1"><g id="Capa_2-2" data-name="Capa 2"><g id="Capa_1-2-2" data-name="Capa 1-2"><circle class="cls-1" cx="50" cy="50" r="50"/><path class="cls-2" d="M74.57,21.87H25.43a3.59,3.59,0,0,0-3.56,3.63V59.17a3.62,3.62,0,0,0,3.56,3.66h19.4v1a10.19,10.19,0,0,1-5.16,9H36.33a4.06,4.06,0,0,0-4,4.1,1.26,1.26,0,0,0,1.24,1.26H66.23a1.26,1.26,0,0,0,1.24-1.26,4.06,4.06,0,0,0-4-4.1H60.13a10.19,10.19,0,0,1-5.16-9v-1h19.4a3.62,3.62,0,0,0,3.56-3.66V25.53A3.62,3.62,0,0,0,74.57,21.87ZM67.63,55.63H32.37a2.2,2.2,0,0,1-2.14-2.26V31.27a2.17,2.17,0,0,1,2.14-2.2H67.6a2.17,2.17,0,0,1,2.17,2.16v22.1a2.2,2.2,0,0,1-2.1,2.3Z"/></g></g></g></g></svg>