<svg id="Capa_1" data-name="Capa 1" xmlns="http://www.w3.org/2000/svg" xmlns:xlink="http://www.w3.org/1999/xlink" viewBox="0 0 1600 400"><defs><style>.cls-1{fill:url(#Degradado_sin_nombre_27);}.cls-2{fill:#9b26b5;}.cls-3{isolation:isolate;}.cls-4{fill:#fff;}</style><linearGradient id="Degradado_sin_nombre_27" y1="200" x2="1600" y2="200" gradientUnits="userSpaceOnUse"><stop offset="0" stop-color="#44046a"/><stop offset="1" stop-color="#5c2a9e"/></linearGradient></defs><title>readme-arhcoder</title><rect class="cls-1" width="1600" height="400" rx="60"/><path class="cls-2" d="M254.22,294.35l-17-41.26H158.66l-17,41.26H100l79.63-185.28h37.69L297,294.35ZM198,157.69l-24.69,59.66h49.37Z"/><path class="cls-2" d="M433.65,294.35l-39.81-58.87H361.72v58.87H320.84v-184h84.94q33.18,0,51.63,16t18.45,44.68v.52q0,22.35-11,36.4A63.73,63.73,0,0,1,436,228.65l45.39,65.7Zm.8-121.16q0-13.14-8.49-19.71t-23.63-6.57H361.72v52.83h41.41q15.14,0,23.22-7.1t8.1-18.92Z"/><path class="cls-2" d="M629,294.35V220.5H553.63v73.85H512.75v-184h40.88v72.8H629v-72.8h40.88v184Z"/><g class="cls-3"><path class="cls-4" d="M773.31,292.9A60.61,60.61,0,0,1,752.76,280a58.13,58.13,0,0,1-13.4-20,68.06,68.06,0,0,1-4.81-26.15,79.77,79.77,0,0,1,6.64-32.46,84.14,84.14,0,0,1,44-44,82,82,0,0,1,52.17-4.09,62.66,62.66,0,0,1,16,6.65,53.37,53.37,0,0,1,12,9.78A70.66,70.66,0,0,1,874,181.63l-30.18,21.52A52,52,0,0,0,832,189.88q-6.63-5.13-18.35-5.12a31.14,31.14,0,0,0-15.08,4,42.44,42.44,0,0,0-12.75,10.68A55.76,55.76,0,0,0,777,215.08a52.51,52.51,0,0,0-3.38,18.72q0,13.71,7.8,21.76a26.09,26.09,0,0,0,19.52,8,36.92,36.92,0,0,0,16.39-3.55,69.3,69.3,0,0,0,15.09-10.38l20.29,26a96.46,96.46,0,0,1-23.16,15.9q-12.22,5.91-29.91,5.91A72.84,72.84,0,0,1,773.31,292.9Z"/><path class="cls-4" d="M919.41,292.64a61.12,61.12,0,0,1-21.08-13.54,58.87,58.87,0,0,1-13.39-20.63,70.9,70.9,0,0,1-4.69-26.15,77.32,77.32,0,0,1,6.24-30.48,84.72,84.72,0,0,1,42.8-44.15,74,74,0,0,1,31.62-6.84,76,76,0,0,1,28,4.87A61.29,61.29,0,0,1,1010,169.25a59.13,59.13,0,0,1,13.4,20.63A71.14,71.14,0,0,1,1028,216a76,76,0,0,1-6.37,30.49,86.63,86.63,0,0,1-17.3,26,85.5,85.5,0,0,1-25.63,18.14,73.55,73.55,0,0,1-31.35,6.83A75.89,75.89,0,0,1,919.41,292.64Zm46.31-33.54a45.35,45.35,0,0,0,12.62-11.25,52.6,52.6,0,0,0,8.06-14.94A48.06,48.06,0,0,0,989.27,217q0-15.6-8.33-23.94t-21.85-8.33a31.19,31.19,0,0,0-16.52,4.5A45.49,45.49,0,0,0,930,200.5a52.23,52.23,0,0,0-8.07,15.08A48.52,48.52,0,0,0,919,231.32q0,15.62,8.32,24t21.86,8.33A31.21,31.21,0,0,0,965.72,259.1Z"/><path class="cls-4" d="M1081.76,292.9a48.76,48.76,0,0,1-17-11.83A53.65,53.65,0,0,1,1053.4,262a75.46,75.46,0,0,1-4-25.49,89.34,89.34,0,0,1,6.5-34.43,88.1,88.1,0,0,1,17.31-27.2,78.56,78.56,0,0,1,24.58-17.74,68.13,68.13,0,0,1,28.62-6.31q16.39,0,26.67,6.36a53.44,53.44,0,0,1,17,16.95l18.73-71.66h39.55l-50.73,191.85h-39.55l4.16-15.39a83.49,83.49,0,0,1-18.34,13.25A45,45,0,0,1,1103,297,54.39,54.39,0,0,1,1081.76,292.9Zm53.34-33.61a43.78,43.78,0,0,0,13.53-10.44,52.61,52.61,0,0,0,9.36-15.54,50.6,50.6,0,0,0,3.51-18.79q0-13.32-8.32-21.54t-21.59-8.22a34.69,34.69,0,0,0-15.49,3.65A41.47,41.47,0,0,0,1103,198.72a53.86,53.86,0,0,0-12.75,35.12q0,13.83,7.93,21.53t21.21,7.7A35.28,35.28,0,0,0,1135.1,259.29Z"/><path class="cls-4" d="M1273.9,258q7.55,7.49,23.16,7.49a44.21,44.21,0,0,0,15.09-2.63,68.72,68.72,0,0,0,15.87-8.67l18.21,24.7a84.21,84.21,0,0,1-22.5,13.27q-13.15,5.38-31.1,5.39a79,79,0,0,1-27.05-4.33,56.69,56.69,0,0,1-20.3-12.36,53,53,0,0,1-12.75-19.58,73.06,73.06,0,0,1-4.42-26.28A83.29,83.29,0,0,1,1234,204.6a85.32,85.32,0,0,1,42.92-46.39,77.1,77.1,0,0,1,34-7.36,65.71,65.71,0,0,1,24.2,4.21,51.45,51.45,0,0,1,18,11.56A49.11,49.11,0,0,1,1364.06,184a61.37,61.37,0,0,1,3.77,21.81,72.41,72.41,0,0,1-1.82,15.77,98.3,98.3,0,0,1-5.21,16.29h-95.49Q1266.36,250.46,1273.9,258Zm55.42-45.07a32.67,32.67,0,0,0,1.3-9.2,21.5,21.5,0,0,0-5.33-14.72q-5.34-6-17.56-6a36.88,36.88,0,0,0-23.81,8.27,48.87,48.87,0,0,0-15.22,21.69Z"/><path class="cls-4" d="M1414.92,153.48h39.54l-7.54,28.39q10.66-15.78,23.29-24.05t29.79-7l-11.19,41.79h-2.08q-19.77,0-34.34,12.09t-21.86,39.68l-13.27,49.94h-39.55Z"/></g></svg>