<svg id="Capa_1" data-name="Capa 1" xmlns="http://www.w3.org/2000/svg" xmlns:xlink="http://www.w3.org/1999/xlink" viewBox="0 0 1600 400"><defs><style>.cls-1{fill:url(#Degradado_sin_nombre_27);}.cls-2,.cls-3{fill:#fff;}.cls-3{font-size:200px;font-family:Gotham-Medium, Gotham;font-weight:500;}</style><linearGradient id="Degradado_sin_nombre_27" y1="200" x2="1600" y2="200" gradientUnits="userSpaceOnUse"><stop offset="0" stop-color="#44046a"/><stop offset="1" stop-color="#5c2a9e"/></linearGradient></defs><title>readme-blog</title><rect class="cls-1" width="1600" height="400" rx="60"/><path class="cls-2" d="M429,100H265.33a27.3,27.3,0,0,0-27.27,27.27V272.73A27.3,27.3,0,0,0,265.33,300H429a27.3,27.3,0,0,0,27.27-27.27V127.27A27.3,27.3,0,0,0,429,100Zm0,181.85H265.33a9.09,9.09,0,0,1-9.08-9.08V145.47H438.1v127.3A9.15,9.15,0,0,1,429,281.85Z"/><path class="cls-2" d="M410.78,190.9H347.15a9.08,9.08,0,0,1,0-18.15h63.63a9.08,9.08,0,1,1,0,18.15Z"/><path class="cls-2" d="M410.78,227.3H347.15a9.08,9.08,0,0,1,0-18.16h63.63a9.08,9.08,0,1,1,0,18.16Z"/><path class="cls-2" d="M410.78,263.65H347.15a9.08,9.08,0,0,1,0-18.16h63.63a9.08,9.08,0,1,1,0,18.16Z"/><path class="cls-2" d="M310.8,190.9H283.53a9.08,9.08,0,1,1,0-18.15H310.8a9.08,9.08,0,1,1,0,18.15Z"/><path class="cls-2" d="M310.8,227.3H283.53a9.08,9.08,0,1,1,0-18.16H310.8a9.08,9.08,0,0,1,0,18.16Z"/><path class="cls-2" d="M310.8,263.65H283.53a9.08,9.08,0,0,1,0-18.16H310.8a9.08,9.08,0,0,1,0,18.16Z"/><text class="cls-3" transform="translate(528.1 272.48)">Mi Blog</text></svg>